<svg xmlns="http://www.w3.org/2000/svg" viewBox="0 0 102 102"><defs><style>.cls-1,.cls-2{fill:none;}.cls-1{stroke:#000;stroke-linecap:round;stroke-linejoin:round;stroke-width:1.5px;}</style></defs><title>academiaAsset 41</title><g id="Layer_2" data-name="Layer 2"><g id="Layer_1-2" data-name="Layer 1"><path class="cls-1" d="M83.11,41a36.14,36.14,0,0,0-6,3.5.66.66,0,0,0-.23.24,3.15,3.15,0,0,0-.18,1.88q.67,6.33,1.52,12.63a9.51,9.51,0,0,0,.34,1.67,9.65,9.65,0,0,0,1.74,2.74c.3.39,1.3,1.46,0,2.05a1.62,1.62,0,0,1-2.17-.81,2,2,0,0,1-.22-.67,140.59,140.59,0,0,1-2.39-16.69,2.43,2.43,0,0,0-.92-2.14,1.08,1.08,0,0,0-.94-.07c-1.18.58-.34.25-1.45,1a2.23,2.23,0,0,0-.85,1.27,1.56,1.56,0,0,0,0,.57c.53,5.7,1.4,11.58,1.94,17.25.09.93-.86,1.57-1.3,2-4.42,4.37-11,8-17.16,8.6-9.39.84-10.65.36-18.16-1.58a8,8,0,0,1-5.35-5.79L28.23,51.86c-.09-.53.1-1.25.61-1a50.35,50.35,0,0,1,7.39,2.64c5.81,1.27,10.55,3.89,16.14,4.22,0-.12-.2,0-.12.1s.21,0,.31,0l10.35-6.55,7.34-4.64c3.09-2,11.69-6.9,14.79-8.86a1.25,1.25,0,0,0,.55-.54.89.89,0,0,0-.49-1,7.43,7.43,0,0,0-1.26-.28c-9.66-3-24.12-4.4-33.06-6.91A7.41,7.41,0,0,0,45,29.6C35.45,35,22.92,39.72,15,45.77c1.54.55,8.67,2.65,10.21,3.2a3.24,3.24,0,0,0,1.69.28A1.14,1.14,0,0,0,27.79,48c-.19-.76-1.08-.88-1.78-.6-.85.79.11,1.21.11,1.85a10.56,10.56,0,0,1-1.4,6.29l-1.48,2.05"/><rect class="cls-2" width="102" height="102"/></g></g></svg>