<svg xmlns="http://www.w3.org/2000/svg" viewBox="0 0 102 102"><defs><style>.cls-1,.cls-2{fill:none;}.cls-1{stroke:#000;stroke-linecap:round;stroke-linejoin:round;stroke-width:1.5px;}</style></defs><title>artAsset 32</title><g id="Layer_2" data-name="Layer 2"><g id="Layer_1-2" data-name="Layer 1"><path class="cls-1" d="M50.42,73.54A9.57,9.57,0,0,1,46.63,82c-2.54,1.79-7.46,1.75-9.7-.39,3-.4,3.5-1.47,3.82-2.85a17.92,17.92,0,0,0,.12-4.21,5.81,5.81,0,0,1,1.14-4c1-1,2.81-1.34,3.72-.26a7.15,7.15,0,0,1,.9-3.46C53.16,52.62,67.32,32.51,76.76,20c.58-.78,1.55-1.64,2.38-1.15s.54,1.75.13,2.63c-3.43,7.29-9.8,18.1-13.45,25.28S56.55,66.3,50.63,72.14c.13-4,5.35-6.06,6.5-9.75a.67.67,0,0,0,0-.44.76.76,0,0,0-.4-.37L51,58.41A28.78,28.78,0,0,0,46.73,68a3,3,0,0,0,0,1.83,3.06,3.06,0,0,0,1,1.17c1.85,1.48,4.12,2.28,6,3.68,4.63,3.43,11.91,1.12,17.49-.3C77,72.94,82,74.19,86.7,75.72"/><path class="cls-1" d="M9.53,68.67c4.5,3.1,7.91,7.55,12.28,10.83s10.47,5.28,15.26,2.65"/><rect class="cls-2" width="102" height="102"/></g></g></svg>