<svg xmlns="http://www.w3.org/2000/svg" viewBox="0 0 102 102"><defs><style>.cls-1,.cls-2{fill:none;}.cls-1{stroke:#000;stroke-linecap:round;stroke-linejoin:round;stroke-width:1.5px;}</style></defs><title>articlesAsset 30</title><g id="Layer_2" data-name="Layer 2"><g id="Layer_1-2" data-name="Layer 1"><path class="cls-1" d="M35.57,24.76c.22.22,2.89-.89,3.19-1a22,22,0,0,1,8.45-.33,28.5,28.5,0,0,1,9,2.88c2.82,1.47,5.53,3.12,8.38,4.53a2.5,2.5,0,0,0,.94.32.78.78,0,0,0,.79-.45c.17-.49-.33-1-.76-1.26A31.21,31.21,0,0,0,55.62,25a6,6,0,0,0-2.17-.24c-2.31.28-2.45,2.95-3,4.73-.86,2.89-1.65,5.81-2.39,8.74-.56,2.27-1.09,4.56-1.57,6.85-.25,1.19-.49,2.38-.7,3.57a9.18,9.18,0,0,1-1.2,3.9l-1.43,2.08-4,5.85L33.93,68s2.67,8.16,1.67,20.15c0,0,9.1-11.45,14.22-13q.75-5.14,1.51-10.31c.18-1.27.37-2.54.56-3.81.06-.4.13-.81.17-1.22,0-.09.09-.27.06-.36-.19-.65-1.87-1.12-2.43-1.44a.92.92,0,0,0-1-.08,1,1,0,0,0-.28.43c-.9,2-1.79,4-2.69,6a5.17,5.17,0,0,0-.44,1.27,10.73,10.73,0,0,0,0,1.88,3.48,3.48,0,0,1-.53,2,2.11,2.11,0,0,1-1.72,1,1.78,1.78,0,0,1-1.63-1.14,2.28,2.28,0,0,1,0-1.13,4.47,4.47,0,0,1,1.32-2.28,7,7,0,0,0,.8-.74,3.78,3.78,0,0,0,.49-1l2.7-7.4c.13-.35.32-.75.7-.79a1.14,1.14,0,0,1,.65.21,22.49,22.49,0,0,0,5.15,2.61,2.47,2.47,0,0,0,1,.07,1.1,1.1,0,0,0,.78-.57.76.76,0,0,0,0-.47c-.1-.34-.47-.53-.79-.67C50.68,55.6,47.13,54,43.58,52.44a2.89,2.89,0,0,1-.91-.54A1.06,1.06,0,0,1,42.3,51a1,1,0,0,1,1-.64,2.91,2.91,0,0,1,1.24.39l10.86,5.21c.91-.92,4-4.1,3.06-5.22-.58-.65-2.44-1.11-3.24-1.47l-3.44-1.56-6.68-3a2.07,2.07,0,0,1-1-.74c-.21-.37-.09-1,.32-1l9.07,3.92,4.44,1.92c.87.38,1.08.66,1.75.16a16.91,16.91,0,0,0,2.86-3.48c.94-1.31,1.52-2.56,2.35-3.94a31.42,31.42,0,0,0,3.71-8.88s3.5-9.28,12.54-4.14"/><rect class="cls-2" width="102" height="102"/></g></g></svg>