<svg xmlns="http://www.w3.org/2000/svg" viewBox="0 0 492.79 266.72"><defs><style>.cls-1{fill:none;stroke:#000;stroke-linecap:round;stroke-linejoin:round;stroke-width:2px;}</style></defs><title>changeAsset 39</title><g id="Layer_2" data-name="Layer 2"><g id="Layer_1-2" data-name="Layer 1"><path class="cls-1" d="M491.79,218.6c-12.17,0-27.74,1.93-41.54-.28-9.34-1.49-17.87-4.88-24-12-11-12.9-9-37-12.69-52.66-.7-3-1.4-6.17-.22-9a22.18,22.18,0,0,1,2.72-4.11c7-9.87,3.89-23.65-1.35-34.57a61.79,61.79,0,0,1,.68,14.25,13,13,0,0,1-1.73,6.45c-1.26,1.87-3.73,3.1-5.82,2.27s-2.87-4.17-1-5.41c-1.8,1.94,0,5.52,2.63,5.88s5.09-1.67,6.12-4.11.95-5.17.85-7.81l-.27-7.28a11.85,11.85,0,0,0-.93-5,4.09,4.09,0,0,0-4.17-2.41c-2.58.52-3.26,3.84-3.39,6.47l-.42,8.82c-.13,2.74-.3,5.62-1.74,7.95s-4.6,3.87-7,2.57c1.66,1.37,4.31.83,5.87-.65a11.45,11.45,0,0,0,2.77-5.74,48.92,48.92,0,0,0,1.38-12.41c-.06-3.61-1.49-8.2-5.11-8.37s-5.45,4.2-5.52,7.75c-.07,3.81.78,7.66.09,11.41s-3.67,7.54-7.47,7.29c-.63,2.85,4.07,4.25,6.15,2.21s2.05-5.36,1.87-8.27l-.66-11.06c-.15-2.34-.31-4.77-1.48-6.81s-3.65-3.51-5.87-2.75c-2.75,1-3.49,4.54-3.08,7.42s1.49,5.83.66,8.62A27.36,27.36,0,0,0,386,105a3.41,3.41,0,0,0-1.66-2c-1.82-.7-3.28,1.62-3.74,3.51a39,39,0,0,0-.69,14.79,42.27,42.27,0,0,1,10.45-3.49,6.26,6.26,0,0,1,3.88.14c3.25,1.56,1.73,6.88-1.39,8.69s-7,1.85-10.13,3.69c3.73,1.07,7.54-1.17,10.71-3.41,2.81-2,5.88-5.45,4.05-8.36s-6-1.77-9-.43l-9.78,4.37c-1.92.85-4,1.8-5.07,3.59-2,3.16-.13,7.4,2.5,10.05s6,4.56,8.12,7.66c2.8,4.2,2.61,9.64,2.31,14.68q-1.15,19.62-2.33,39.21c-.29,4.91.32,6.65-2.34,10.78a51,51,0,0,1-10.06,10.7,187.41,187.41,0,0,1-17.95,13.5c-4.1,2.71-8.38,5.33-11.47,9.15s-4.79,9.21-2.88,13.74c3.55,0,7-3.11,9.05-6a16.63,16.63,0,0,0-9.08-10.41c-3.5-1.56-7.41-1.83-11.15-2.68s-7.61-2.48-9.56-5.78c-1.43-2.42-1.6-5.36-1.71-8.17q-.9-22.09.16-44.2c.17-3.52.4-7.14,2-10.28a61,61,0,0,1,3.95-5.79,22.08,22.08,0,0,0,3.65-12.76c.36-.83,1.47.35,1.49,1.26.11,4.69-.82,9.76-4.19,13s-9.7,3.69-12.41-.15c-1.91-2.71-1.45-6.49,0-9.48.72-1.51,1.87-3.06,3.53-3.27s3.37,1.91,2.26,3.17a15.24,15.24,0,0,1-9.61-12.27,4.5,4.5,0,0,1,.91-3.79c1.26-1.22,3.31-.86,5-.3A32.58,32.58,0,0,1,325,144.26a3.68,3.68,0,0,0,1.68,1.06c1.8.33,2.2-2,3.12-3.58,5.15-8.71,6.62-19.06,7.38-29.14.16-2.17.28-4.43-.6-6.41s-3.08-3.55-5.17-3c-2.24.62-3.21,3.19-3.86,5.42l-7.83,26.91c-.35,1.17-1,2.59-2.21,2.62q.51-11.06,1-22.11c.24-5.07.09-11-4-14.06a4.09,4.09,0,0,0-3.87-.85c-1.63.67-2.18,2.65-2.45,4.38-1.9,12.31.49,25.16-2.85,37.15-.68,2.43-2.09,5.19-4.6,5.37a4.54,4.54,0,0,1-4.13-2.83,13.42,13.42,0,0,1-.91-5.2q-.12-3.22-.26-6.47c-.1-2.69-.2-5.47.82-8s3.44-4.64,6.12-4.41,4.8,3.66,3.2,5.83a4.71,4.71,0,0,0-9.35,1c-2.08-2-2.12-6.13-4.93-6.89a3.78,3.78,0,0,0-3.92,1.77,9.52,9.52,0,0,0-1.27,4.36,43.57,43.57,0,0,0,1.43,16.46,4.9,4.9,0,0,0,1.16,2.29c1.52,1.43,4.25.36,5.21-1.5s.7-4.09.4-6.16c-.95,2.7-1.79,5.44-2.5,8.22-1.44.48-3-.58-3.67-1.95a9.29,9.29,0,0,1-.54-4.48,38.29,38.29,0,0,0,2.74,24.18c1.35,2.89,3.33,5.81,6.37,6.78,1.49-4.38-2.19-9.66-6.8-9.79a469,469,0,0,1-4.72,54.36c-.61,4.2-1.61,8.92-5.2,11.17a7.78,7.78,0,0,1-10.38-2.5,38.18,38.18,0,0,1-5.75-23.3,449.5,449.5,0,0,1,5.55-49.63c1-6.19,2.27-12.51,5.53-17.87,2.83-4.64,7-8.28,10.45-12.49s7.14-10.47,6.67-15.88c-1.82-21-2.44-30.25-5.78-51.53-.47-3-1.4-6.17-.22-9a23,23,0,0,1,2.72-4.11c7-9.87,3.88-23.65-1.35-34.57a61.26,61.26,0,0,1,.67,14.25,12.79,12.79,0,0,1-1.73,6.45c-1.25,1.87-3.72,3.1-5.82,2.27s-2.85-4.16-1-5.4c-1.8,1.93,0,5.51,2.63,5.88s5.09-1.68,6.12-4.11,1-5.18.85-7.82L289,10.25a12.16,12.16,0,0,0-.93-5,4.12,4.12,0,0,0-4.17-2.42c-2.59.53-3.26,3.85-3.39,6.49-.14,2.94-.29,5.87-.42,8.81-.14,2.74-.31,5.62-1.75,8s-4.59,3.86-7,2.57c1.66,1.37,4.31.82,5.87-.66A11.45,11.45,0,0,0,280,22.21,49.32,49.32,0,0,0,281.33,9.8c-.07-3.61-1.5-8.2-5.1-8.36s-5.45,4.19-5.52,7.74c-.08,3.81.76,7.66.08,11.41s-3.67,7.55-7.47,7.29c-.63,2.85,4.07,4.26,6.15,2.21s2-5.36,1.87-8.27l-.66-11C270.54,8.42,270.37,6,269.2,4S265.54.44,263.33,1.2c-2.76,1-3.49,4.54-3.08,7.42s1.49,5.84.65,8.62A27.24,27.24,0,0,0,258.79,5a3.4,3.4,0,0,0-1.67-2c-1.82-.7-3.27,1.62-3.73,3.51a39,39,0,0,0-.69,14.79,42.27,42.27,0,0,1,10.45-3.49,6.22,6.22,0,0,1,3.87.14c3.25,1.57,1.73,6.88-1.38,8.69s-7,1.85-10.13,3.69c3.73,1.08,7.54-1.17,10.72-3.41,2.8-2,5.86-5.45,4-8.36s-6-1.77-9-.43l-9.78,4.36c-1.93.86-4,1.81-5.07,3.6-2,3.16-.13,7.41,2.5,10s6,4.56,8.12,7.67c2.8,4.19,2.6,9.64,2.31,14.68Q258.18,78.06,257,97.68c-1.66,27.89-7.65,55.22-13.63,82.44-3.08,14-6.17,28.06-8.65,42.21-2.16,12.31-1.25,28.38-6.83,39.64a7.44,7.44,0,0,1-2.56,3.23,3.06,3.06,0,0,1-3.83-.31,4.65,4.65,0,0,1-.82-2.65c-1.89-20.9-3.63-42.42-2.54-63.4.27-5.15.67-10.36,2.41-15.21,1.61-4.46,4.27-8.44,6.68-12.52a120.06,120.06,0,0,0,14.11-36.53c1.8-8.66,2.57-17.92-.71-26.14-2.78,4.11-2.58,9.45-2.67,14.4s-.87,10.5-4.78,13.54c-3.69,2.87-8.85,2.53-13.5,2,3.28,4,10.13,3.27,13.86-.36s5-9.06,5.61-14.22a78.66,78.66,0,0,0,.14-16.45c-.21-2.13-.55-4.37-1.9-6s-4-2.41-5.66-1c-1.1.94-1.39,2.49-1.61,3.92q-2,12.75-4,25.52a9.46,9.46,0,0,1-1.16,3.81,7.05,7.05,0,0,1-3.19,2.44,14.1,14.1,0,0,1-13.7-1.51c.19,2.72,2.74,4.81,5.42,5.31,4.07.76,8.27-1.5,10.81-4.78s3.69-7.41,4.43-11.49a72,72,0,0,0,1.11-14.51c-.11-4.36-.77-9-3.77-12.21s-9-3.66-11.31,0c-1.43,2.31-1,5.26-.61,8a71,71,0,0,1,.18,16.92c-.53,4.86-1.83,10.08-5.7,13s-10.89,1.81-11.93-3c-.74-3.38,1.61-7.36-.44-10.15a3.32,3.32,0,0,0-.9,1.92c-1.1,4.9-1.68,11.17,2.57,13.84,4.61,2.89,10.57-1.38,13.14-6.18,3.37-6.25,4.13-13.57,4.24-20.67.09-5.25-.29-10.93-3.64-15s-10.71-4.95-13.49-.5c-.81,1.31-1.13,2.89-2.07,4.12s-2.92,1.91-4,.79a4.08,4.08,0,0,1-.78-2.22c-.61-3.63-3.78-7.61-7.25-6.39-2.4.84-3.39,3.72-3.43,6.26s.55,5.12-.07,7.58c-2.18.49-3.28-2.59-3.19-4.83.2-4.87,2.37-10.6,7.18-11.43,3.17-.55,6.37,1.44,8.13,4.14s2.38,6,2.78,9.18c1.66,13.21-.26,28.37-10.68,36.67a4.6,4.6,0,0,0-1.69,1.9,4.21,4.21,0,0,0,.24,2.54q2.18,6.92,4.34,13.83c.42,1.35,1.46,3,2.8,2.54a40,40,0,0,0-18-32.47c3.94-1.21,7.94-2.46,11.38-4.73s6.31-5.74,6.87-9.83a6.15,6.15,0,0,0-1.38-5.25c-1.85-1.85-4.86-1.6-7.46-1.23-5.85.85-11.79,1.73-17.18,4.17s-10.23,6.72-12,12.37c-1.16,3.74-.87,7.78-.13,11.62a50.51,50.51,0,0,0,3.47,11c2.68,6,6.49,11.41,9.22,17.38,9.94,21.77,4.45,47.28,2.91,70.19-.24,3.56-.5,7.22-2,10.45-4.24,9-15.74,7.38-19.68-.92-2.33-4.89-2.29-10.52-2.44-15.93s-.64-11.13-3.77-15.55c-6-8.44-16.28-4.23-22.41,1.63-4.48,4.3-9.39,9.82-16.07,5.64-4.74-3-6-9.18-6.86-14.73A618.57,618.57,0,0,1,88.77,132c-6.08.16-10.93,7.13-9,12.9,4-1.27,6.61-5.12,8.4-8.94a50.51,50.51,0,0,0,3.62-31.88A12.52,12.52,0,0,1,91.1,110c-.85,1.8-2.94,3.2-4.84,2.57Q84.85,107,83,101.69c-.39,2.74-.74,5.68.53,8.13s4.86,3.86,6.87,2a6.44,6.44,0,0,0,1.53-3,57.18,57.18,0,0,0,1.89-21.7,12.6,12.6,0,0,0-1.68-5.76A5,5,0,0,0,86.93,79c-3.71,1-3.76,6.41-6.5,9.09a6.2,6.2,0,0,0-12.32-1.37c-2.11-2.87.67-7.39,4.21-7.69s6.75,2.51,8.08,5.81,1.21,7,1.07,10.52c-.11,2.84-.23,5.68-.34,8.53a17.88,17.88,0,0,1-1.2,6.86c-1,2.11-3.11,3.88-5.45,3.72-3.31-.23-5.17-3.87-6-7.07-4.42-15.81-1.27-32.77-3.77-49-.35-2.28-1.09-4.89-3.22-5.77-1.69-.69-3.65,0-5.11,1.11-5.34,4-5.54,11.85-5.23,18.55q.67,14.56,1.34,29.15c-1.62,0-2.46-1.91-2.91-3.47Q44.37,80.24,39.2,62.5c-.85-3-2.14-6.33-5.09-7.16-2.75-.77-5.66,1.3-6.82,3.91s-1,5.6-.79,8.45c1,13.3,2.94,27,9.72,38.43,1.23,2.07,1.76,5.16,4.13,4.72a4.81,4.81,0,0,0,2.21-1.39,42.77,42.77,0,0,1,14.85-8.76c2.18-.75,4.89-1.21,6.55.39,1.28,1.24,1.41,3.24,1.21,5a20.09,20.09,0,0,1-12.68,16.18c-1.46-1.67.79-4.45,3-4.18s3.71,2.32,4.66,4.31c1.88,3.94,2.48,8.92,0,12.5-3.57,5.07-11.92,4.53-16.36.2s-5.67-11-5.53-17.2c0-1.2,1.48-2.75,2-1.65A29.18,29.18,0,0,0,45,133.07c1.7,2.57,3.82,4.88,5.22,7.63,2.1,4.14,2.41,8.92,2.63,13.55.94,19.69,11.25,85.67-21.26,88.8-33.11,3.18-30.52-57.27-30.52-76.86"/></g></g></svg>