<svg xmlns="http://www.w3.org/2000/svg" viewBox="0 0 102 102"><defs><style>.cls-1,.cls-2{fill:none;}.cls-1{stroke:#000;stroke-linecap:round;stroke-linejoin:round;stroke-width:1.5px;}</style></defs><title>corporatesAsset 40</title><g id="Layer_2" data-name="Layer 2"><g id="Layer_1-2" data-name="Layer 1"><path class="cls-1" d="M93,61.18a12.5,12.5,0,0,0-7.43,1.66c-1.91,1.1-3.55,2.68-5.4,3.88A10.9,10.9,0,0,1,74,68.13l-.36-13.88L58.1,53.8,58,64.88l-2.43,1.79-.08-16.4,21.37-.19L77,47.69l-42.61.67V47.1L74,46.68l.18-5.19-4.45.09.13-.69,4.71-.09,2.84-4-43.11-.18.14-1.12,42-.11,3-4.6c-19.47,1.19-51,.29-51,.29l50.5-1.28L55.12,23.2l-5.18.09A210.25,210.25,0,0,0,21.59,31.8a35.23,35.23,0,0,1,6.09,3.61c.42-.56.72-.71,1.15-1.27.18,6.2.2,12.35.06,18.51l18.8-.22-.17,15.28-9.79,0,.15-14.31-8.9.05-.1,6.87q-.15,3.47-.39,6.94c-.44.62-1.3.48-2,.33a19,19,0,0,0-6.38-.34c-1.45.17-2.88.51-4.33.59A7,7,0,0,1,11.57,67L8,65.65"/><rect class="cls-2" width="102" height="102"/></g></g></svg>