<svg xmlns="http://www.w3.org/2000/svg" viewBox="0 0 1730.47 496"><defs><style>.cls-1{fill:none;stroke:#000;stroke-linecap:round;stroke-linejoin:round;stroke-width:3.5px;}</style></defs><title>endingAsset 43</title><g id="Layer_2" data-name="Layer 2"><g id="Layer_1-2" data-name="Layer 1"><path class="cls-1" d="M1.75,150.54H856.36c34.4,0,58.6-4,91.67,5.56s64.47,31,77.25,63c9.78,24.46,9,54.68,28.21,72.73,14.44,13.57,35.91,15.83,53.69,24.6a78.76,78.76,0,0,1,36.34,37.26c16.12,34.86,5.88,79.49,28.51,110.53,14.8,20.29,26.14,33.82,50.26,26.82q14.45,2,29,3.13a11.67,11.67,0,0,0,5.52-.49c2.74-1.21,4.21-4.33,6.9-5.64,3.83-1.87,8.79.55,12.53-1.49,6.79-3.7,1-14.95,4.94-21.62,3-5.15,11.63-7.11,11.32-13.08-.23-4.52-5.6-6.66-8.44-10.2-3.54-4.43-2.83-10.87-1.22-16.31s4-11,3.06-16.6c-1.05-6.58-6.44-12.06-6.64-18.73-.14-4.87,2.53-9.34,3.54-14.1s-.75-11-5.56-11.77c-2.6-.4-5.12,1-7.19,2.63a32,32,0,0,0-12,21.45c-1,9.25,2,18.39,4.63,27.33,6.07,21,9.64,43.42,4.18,64.56,4.39-1.34,5.82-6.76,6.43-11.32a328,328,0,0,0,2.37-63.19c-.75-12.61-3.79-27.45-15.4-32.45-2.6-1.12-5.81-1.94-6.86-4.57-1.24-3.09,1.38-6.26,3.71-8.63A137.78,137.78,0,0,0,1284,320.88c4.84-10.56-3.63-23.6-11.69-31.95-1.86-1.92-4.2-3.7-6.88-3.71-1.55,0-3.06.59-4.61.59a6.33,6.33,0,0,1-6.13-5.94c-3.22,4.07-3.54,9.63-5,14.62-3.72,12.81-16.34,22.49-29.69,22.77-3.35.07-7.84-1.95-6.85-5.16.92-3,5.26-2.57,8.21-1.53,1.07-4.65-3.9-8.91-8.68-9s-9.11,2.59-13.13,5.18c1-7.28,9.79-12.31,16.53-9.41a11.08,11.08,0,0,0-14.65,3.59c.86-7,10.8-10.78,16.09-6.14-3.79-4-11.42-3.21-14.27,1.53,1.55-6.84,12-9.35,16.51-4,1.62,2,2.41,4.49,4,6.5s4.48,3.45,6.61,2.07a6.43,6.43,0,0,0,2.16-3.16c4.2-10.34,5.32-21.67,8.74-32.29s10-21.25,20.63-24.8a15.1,15.1,0,0,0,29.76,1.68c1.69-7.55-2.5-15-4.65-22.42a43.71,43.71,0,0,1-1.35-17.66c.2-1.54.47-3.19-.21-4.59a7.45,7.45,0,0,0-3.15-2.85c-5.94-3.57-12.12-7.22-19-8-14.19-1.65-26.48,8.86-37.73,17.65-2.91,2.28-7.48,4.36-9.84,1.51a6.94,6.94,0,0,1-1.21-3,64.38,64.38,0,0,1-1.18-21.08c.66-6,2.81-12.79,8.36-15.25,9.34-4.13,20.37,6.83,29.72,2.73,3.47-1.52,7-5,10.35-3.21a6.92,6.92,0,0,1,2.41,2.65c4.45,7.37,6.19,16.84,13.15,21.89a7.14,7.14,0,0,0,4.79,1.63c4.9-.54,5.41-7.42,4.54-12.26-.44-2.39-1.39-5.31-3.8-5.63s-4.17,2.37-6.36,3.56c-4.86,2.65-10.11-2.45-15.29-4.4-9.8-3.68-19.77,4.38-27.14,11.8-3.26,3.28-6.8,7.38-5.89,11.92,1.19,6,9.75,10.75,6.76,16.09-2,.39-3.35-2.78-5.36-2.43-2.34.4-1.35,4,.3,5.73a54,54,0,0,0,21.78,13.73c5.23,1.74,10.9,2.66,16.26,1.39s10.34-5.07,11.91-10.36c1.09-3.68.48-7.62.57-11.46s1.19-8.11,4.49-10.08,8.77.5,8.11,4.28q1.26-11.18,2.54-22.37l4.27,4.21c4.26-3.79,2.07-10.63,2-16.33-.07-15.53,17.27-24.64,25-38.11a14.58,14.58,0,0,1-17.22-20.83c.09,4.22.21,8.62,2.22,12.33s6.52,6.44,10.47,5c-4.58.29-8.52-3.76-9.72-8.19s-.34-9.13.53-13.63a123.67,123.67,0,0,1,4.46,17.45q-1-9.47-2-18.93c3.87,1.14,3.7,6.56,5.09,10.35,2.62,7.07,14.21,8.14,18.07,1.66,1.06-1.77,2.71-4.29,4.46-3.2,1.15.72,1,2.43.59,3.72-1.64,5.46-4.56,10.43-7,15.56-8.22,17-11.73,35.76-15.15,54.3a18.7,18.7,0,0,0-.38,7.21c.43,2.06,1.56,3.93,1.89,6,1,6.15-4.81,11-7.65,16.55-3.64,7.09-2.33,15.81.92,23.08s8.23,13.62,12.18,20.54a80.1,80.1,0,0,1,10.21,33.15,6,6,0,0,1-.59,3.85,6.22,6.22,0,0,1-3.26,2l-24.7,8.83a31,31,0,0,0,28.66-15.88c-2.53-1.66-5.72,2-5,5s3.37,4.9,5.54,7c10.79,10.37,9.78,31-3.06,38.7a5.66,5.66,0,0,1-3.24,1c-3.4-.26-4-4.86-5.42-8-1.89-4.23-6.7-6.64-11.33-6.67s-9.07,2-12.92,4.55c-6,4-11,9.8-12.82,16.78s.3,15.15,6.08,19.44c1.77,1.31,4.51,2.11,6,.47a4.59,4.59,0,0,0,.92-2.44,16.65,16.65,0,0,0-7.31-15.9,56.6,56.6,0,0,0,18.47,26.65c6.3,5,13.85,8.86,18.27,15.59,6,9.09,4.77,21.23,9.64,30.94,4.6-5.62,13.07-9.24,13.27-16.49.19-6.81-7.35-11.35-9.13-17.92-.63-2.34-.57-5-2.19-6.84-1.78-2-4.8-2.05-7.21-3.14-4.28-1.94-6.25-6.79-7.83-11.2l-10.68-29.76c7,6.44,10,16,15.48,23.77,8.85,12.54,23.39,19.55,37.29,26,37.67,17.59,58.88,60.72,90.39,87.83,2.52,2.18,5.22,4.34,8.45,5.16s7.14-.08,8.86-2.93c1.24-2.05,1.13-4.61.87-7a96.73,96.73,0,0,0-8.56-29.23,138.1,138.1,0,0,0-31-43.23c-4.54-4.27-9.45-8.31-12.74-13.61-4.7-7.6-5.56-17.09-4.18-25.93s4.83-17.19,8.24-25.45c.89-2.14-1,1.44,0-.68s2.7-4.16,5-4.3,4.53,2.74,3.11,4.57a19.6,19.6,0,0,1-17.86-7,137.28,137.28,0,0,1,16.72-34.05c8.55-12.6,21.65-24.73,36.78-23,4.83.54,11.36,1.6,13.06-2.94,1.38-3.68-2.73-7.47-6.66-7.53s-7.43,2.21-10.89,4.07-7.61,3.39-11.22,1.85-5.31-5.47-6.8-9.05a312.27,312.27,0,0,0-46.73-77.76c-3-3.7-6.34-8.61-4.13-12.86.9-1.72,2.59-3,3.3-4.76,1.35-3.43-1.41-7.11-4.4-9.26s-6.62-3.88-8.2-7.21c-3.22-6.75-9.73-13.95-9.5-21.43a22,22,0,0,1,1-5.36,297.65,297.65,0,0,1,13.12-36.76c1.23-2.82,2.52-5.86,1.91-8.88-1.4-6.88,1.26-14.16,5.11-20a10.71,10.71,0,0,1,1.53,11.09,15.3,15.3,0,0,1,9.63-16.35q.79,13.6.51,27.25a13.58,13.58,0,0,0,9.92-2.8c.73,5.6-6.55,8.22-10.55,12.21s-4.89,10.35-5.44,16.12l-1.77,18.41c-.29,3.1-.58,6.3.37,9.26,1.4,4.37,5.19,7.43,8.29,10.81a41,41,0,0,1,9,15.79c1.1,3.62,1.71,7.43,3.35,10.84s4.64,6.5,8.4,6.91c6,.65,10.38-5.26,13.43-10.45,4.92-8.37,10-17.67,8.41-27.24-1.11-6.54-5.23-12.13-9.51-17.19a8.11,8.11,0,0,0-3.08-2.6c-2.16-.83-4.57.26-6.48,1.56A26.55,26.55,0,0,0,1429.9,133c-.52,2.42-2,5.74-4.29,4.82a36.39,36.39,0,0,1,3-25.35c3.07-5.94,8-11.11,14.31-13.37s14-1.15,18.64,3.61c5.12-7.88,2.77-18.3-.24-27.2s-6.54-18.58-3.31-27.41c5.42-14.77,27.54-20.62,28.28-36.34.11-2.35-.31-4.81.52-7s3.68-3.91,5.56-2.49A4.63,4.63,0,0,1,1493.61,4c2.44,5.16,1.69,11.34-.5,16.62s-5.66,9.87-8.8,14.64c-2.62,4-4.55,10.32-.43,12.75,1.95,1.15,4.47.7,6.56-.18,9.93-4.19,14-18.31,7.77-27.13,5.23,2.46,8.25,8.42,8.32,14.2s-2.39,11.34-5.71,16.07c-3.88,5.52-9.3,11.83-6.74,18.08a14.48,14.48,0,0,0,8.89-14.2c-.09-1.12-.26-2.4.51-3.21,1.12-1.19,3.33-.13,3.79,1.44s-.21,3.23-.87,4.72l-8.18,18.6,7.7-2.85c-5.43,5.93-1.53,16-5.28,23.1-4.28,8.09-15.57,8.34-24.67,7.49-.28,6.89,4.13,13,6.21,19.58,3.2,10.11.67,21.49-5.2,30.32s-14.76,15.32-24.33,19.9c-2.24-.32-2.43,1.05-1.42,3.08,11.25,3.17,21.57-6.6,32.56-10.59a15.75,15.75,0,0,1,9-1c6.1,1.49,9.6,8.16,15.42,10.55,2.37,1,5,1.16,7.44,2s4.9,2.43,5.45,4.93-1.93,5.49-4.32,4.56c1.59,5.29,9.1,4.47,14.6,5,7.78.73,14.15,6.19,20.58,10.64s14.7,8.15,21.86,5c2.78-1.22,5.11-3.4,8-4.23s6.88.57,7,3.6l-8.25,2.31A17.72,17.72,0,0,0,1592,223.13c3.69,1.3,8.68,2.22,9.23,6.09.66,4.74-6,6.47-10.83,6.25-4.59-.2-9.42-.48-13.33-2.9-3.39-2.11-5.71-5.62-9-7.88-5.79-4-13.38-3.43-20.39-3.63a83.41,83.41,0,0,1-55.92-24.14,4.82,4.82,0,0,0-2.44-1.61c-2.62-.41-3.68,3.32-3.3,5.94,1.62,11.15,9.42,20.22,16.34,29.1s13.59,19.34,12.32,30.53-11.79,20.85-23.19,21.05c-4.76.08-9.73-1.24-14.16.52-3.8,1.51-6.4,5-8.67,8.39a161.93,161.93,0,0,0-26,71.31c-.68,6.06.14,14,6,15.67,4.42,1.29,8.78-2,12-5.28,18.54-18.76,29.54-43.49,40.14-67.64,2.38-5.42,4.76-10.84,6.84-16.38-3.31-2.49-7.9.61-10.66,3.71a97.43,97.43,0,0,0-20.5,36.81c-1.07,3.62-1.75,8,.91,10.72,2.9,2.92,8,1.74,11.23-.85s5.39-6.28,8.64-8.8,8.49-3.46,11.2-.36c1.62,1.87,1.8,4.56,1.72,7a52.4,52.4,0,0,1-17.39,37,142.57,142.57,0,0,1-1.55-27.31c-2.84,8.1-5.73,16.28-10.41,23.48s-11.38,13.42-19.63,15.81c-2.93-.82-3.65,3.41-1.64,5.71s5.34,2.69,8.24,3.65c9.59,3.16,15.28,13.76,15.31,23.86,0,5.48-1.31,11-.65,16.39s4.19,11.18,9.64,11.77c2.41.26,5.15-.45,7.09,1,3.41,2.59.48,7.83-1.85,11.43a29.75,29.75,0,0,0-4,22.13,7,7,0,0,0,2.19,4.26c1.43,1.1,3.4,1.09,5.2.95,30.2-2.38,57.77-19.79,88.36-23,33-3.51,67.82.28,98.91-13.66,13.66-6.13,26-15.81,33.55-28.77s9.68-29.33,4-43.17"/></g></g></svg>