<svg xmlns="http://www.w3.org/2000/svg" viewBox="0 0 102 102"><defs><style>.cls-1,.cls-2{fill:none;}.cls-1{stroke:#000;stroke-linecap:round;stroke-linejoin:round;stroke-width:1.5px;}</style></defs><title>eventsAsset 35</title><g id="Layer_2" data-name="Layer 2"><g id="Layer_1-2" data-name="Layer 1"><path class="cls-1" d="M89.84,54.56a5.12,5.12,0,0,0-6,3.06c-.45,1.25-.35,2.7-.78,4-.24.75-2.14,2.88-2.68,1.29a2,2,0,0,1,2.07-2.39c1.89.14,2.69,2.22,2.64,3.86-.2,6.37-6.4,11.72-12.62,11.71a15.71,15.71,0,0,1-5.94-.93,30,30,0,0,0,3.14-2.94A17.21,17.21,0,0,0,72,69.66a22.6,22.6,0,0,0,1.82-3.22l3.48-7c1-2.07,2.6-3.78,3.64-5.84.89-1.75,1.61-4,.81-5.88a6.57,6.57,0,0,1-3.53,6c-3,1.65-6,.38-8.8-1.23-3-1.74-6.11-3.19-8.87-5.25-3.17-2.37-8.07-8-3.46-11.46a12.47,12.47,0,0,1,3.68-1.89c-1.18,1.92-2.13,4-3.28,5.91-2.18,3.67-5.1,7-6.1,11.17-.19.82-1,1.27-1,2.11a2.24,2.24,0,0,0,.41,1.29c1.48,2.41,4,2.81,6.14,4.41,1.33,1,3.32,3.37,3.28,5.15-.05,2-2.17,3.51-3.09,5.1a4,4,0,0,0-.74,2.61c.17.9,1.28,1.65,2,1.14a2.3,2.3,0,0,1-2.39.47,5.6,5.6,0,0,1-2.11-1.44C53,70.83,51,69.26,50.67,68c.2,1.36.66,3.36,1,4.65.58,2.18,1.65,4.37,4.2,4.4s5.45-1.66,7.43-3.26a12.9,12.9,0,0,1-6.47-.32,2.74,2.74,0,0,1-.9-.5,2.56,2.56,0,0,1-.63-1.26,3.23,3.23,0,0,1,.25-3A4.66,4.66,0,0,1,56.59,68,6.49,6.49,0,0,0,59,65.18a2.69,2.69,0,0,0,0-2.57c-1.24-1.76-4-.22-5.67-1.32-1.37-.91-1.79-6.07-4.19-4.94-.83.38-.85,1.49-.95,2.39A42.69,42.69,0,0,0,50,75c.59,2,1.72,4.34,3.71,5.1a5.45,5.45,0,0,0,3.89-.16,21,21,0,0,0,4-1.87c3.56-2.55,7.1-5.37,9.53-9a6.42,6.42,0,0,0,1-2.14,2.52,2.52,0,0,0-.53-2.25c-.87-.88-2.15-.53-3.25-.67-2.27-.28-5.19-.19-6.5,1,.63-.66,3.91,1.57,4.46,1.85,1.76.91,4.07,0,5.55-1.24,1.76-1.42,2.72-3.58,3.63-5.65.6-1.37,1.2-2.74,1.79-4.11a14.69,14.69,0,0,0,1.54-5.17A9.7,9.7,0,0,0,78.13,48c-.34-1.34.77-2.58,1.14-3.92a4.87,4.87,0,0,0-2.45-5.22,9.75,9.75,0,0,0-6-1c-2.05.22-4.07.76-6.13.92a9.11,9.11,0,0,1-6-1.25c-2-1.38-3.54-3.42-5.53-4.77a13.59,13.59,0,0,0-6.64-2.39,6,6,0,0,0-3.08.52,3.63,3.63,0,0,0-2,2.33c-.38,1.6.72,2.53,1.76,3.5,1.9,1.77,4.62,3.56,5.74,6a10.4,10.4,0,0,1,.65,4.69,36.09,36.09,0,0,1-.22,4.88,10.53,10.53,0,0,1-.81,2.35S46,54,45.81,54c-2-.32-4,.38-5.92-.15-1.45-.39-.51,1.84-1.64,2.83.34-.55,1.18-.37,1.72,0,.22.13.38.33.6.46a2.83,2.83,0,0,0,2,.26A5.68,5.68,0,0,0,45.16,56c.25-.22.72-.69,1-.71s2.11,0,2.09.33a24.76,24.76,0,0,1-.7,4.48A22.53,22.53,0,0,1,45.3,65.7c-.85,1.48-.91,3.11-1.56,4.68a13.45,13.45,0,0,1-3.23,5.16,5.24,5.24,0,0,1-5.68,1c-4.62-2.43-7.5-7.15-9.27-12.06-.5-1.38-1.39-2.11-1.87-3.5a5.86,5.86,0,0,1,0-4.3,11.26,11.26,0,0,1,3.54-.39c.61.1,1.21.29,1.82.34a7.89,7.89,0,0,0,3.41-.77,1.86,1.86,0,0,1,2,.49,3.51,3.51,0,0,1,.59,2,10.65,10.65,0,0,1-.21,4.57c-.15.48-.21,1.52-.32,2a4.77,4.77,0,0,0,1.67,1.34,2.33,2.33,0,0,0,.79.35,2.92,2.92,0,0,0,1.22-.24,4.31,4.31,0,0,1,5.17,2.57c-1.29-.69-2.54-.86-3.59.16-.82.79-1.41,2.05-2.54,2.1a3.89,3.89,0,0,1-1.57-.46c-2-.8-3.5-.51-4.75,1.28.53-2.8,2-4.79,4.87-5.25.66-.11,1.34-.13,2-.29a3.24,3.24,0,0,0,1.9-1.24,2.14,2.14,0,0,0,.17-2.19c-.76-1.35-1.67-.6-2.06-2.1-.18-.69-.6-3.94-.84-4.62-.44-1.27-.09-3-1.38-2.65-1.67.5-3.33-.48-5-.52a7.59,7.59,0,0,0-3,.58c-1,.4-1.69,1.22-2.66,1.56A1.64,1.64,0,0,1,23,54.91a2.48,2.48,0,0,1-.23-1.73c.26-2.9-1.39-6.28-.57-9.12a6.34,6.34,0,0,1,2.86-3.28,19.71,19.71,0,0,1,7.64-2.94,28.26,28.26,0,0,1,12.08,1c-4.23,1-8.72-1-13-.08-3.29.75-6.27,3.25-9.62,2.81-1.9-.25-3.66-1.53-5.62-1.37a5.12,5.12,0,0,0-4.31,3.83c-.69,2.23.06,4.62,1.07,6.63a10.32,10.32,0,0,1,.85,1.89c.36,1.28-.28,3.28-2,3.07"/><rect class="cls-2" width="102" height="102"/></g></g></svg>