<svg xmlns="http://www.w3.org/2000/svg" viewBox="0 0 102 102"><defs><style>.cls-1,.cls-2{fill:none;}.cls-1{stroke:#000;stroke-linecap:round;stroke-linejoin:round;stroke-width:1.5px;}</style></defs><title>expertsAsset 42</title><g id="Layer_2" data-name="Layer 2"><g id="Layer_1-2" data-name="Layer 1"><path class="cls-1" d="M77.63,68.4a7.84,7.84,0,0,1-1.09-4c2-2.41,3.61-5.7,3.45-8.81-.09-1.78.06-3.91-.85-5.5-.26-.46-1.8-2.75-2.27-1.37.29-.85.21-2-.86-2.25a1.53,1.53,0,0,0-1.84,1.41,5.54,5.54,0,0,0-.52-1.85,1.84,1.84,0,0,0-1.53-1,2,2,0,0,0-1.53.93c-.37.49-.62,1.07-1,1.58a4.71,4.71,0,0,1-2.12,1.7,1,1,0,0,1-.81,0,1.1,1.1,0,0,1-.42-.67c-1-3.24-3.23-9.45-4.08-12.74a1.67,1.67,0,0,1-.09-.73.73.73,0,0,1,.43-.55,1.38,1.38,0,0,1,1.62.27,29.56,29.56,0,0,1,2.6,6.7,45.39,45.39,0,0,0,1.74,5A3.84,3.84,0,0,0,69.75,48c.5.22.7.06.63.69l-.21,1.65c-.14,1.09-.27,2.19-.41,3.29,0,.22,0,.5.2.56a.47.47,0,0,0,.38-.13c1.81-1.42,2.75-3.64,3.62-5.76a5.84,5.84,0,0,1-.76,3.38,5.42,5.42,0,0,0-.67,3.38c0,.1.07.21.16.23s.19-.06.26-.14a21.68,21.68,0,0,0,3-4.51,3.68,3.68,0,0,1,.76-1.13A2.93,2.93,0,0,1,76,51.78a6.92,6.92,0,0,0-1.2,3.29c0,.19,0,.42.21.47a.43.43,0,0,0,.32-.12c1.26-1,1.55-3.36,2.94-4.06-.29.8-.57,1.62-.91,2.39a4.51,4.51,0,0,1-1.79,2.17,9.83,9.83,0,0,1-2.16.66,6.27,6.27,0,0,0-3.53,3.06,1.1,1.1,0,0,0,.27,1.23c1.09-.83-.42-3.64-1-4.51A4.52,4.52,0,0,0,67.79,55a2.54,2.54,0,0,0-1.8-.38c-.28.05-.62.13-.79-.09a.54.54,0,0,1-.09-.22,3.2,3.2,0,0,1,0-1.71c0-.12.11-.26.24-.27s.22.14.23.27,0,.27,0,.4a.57.57,0,0,0,.43.43,1.26,1.26,0,0,0,.64,0,3.88,3.88,0,0,0,2.45-1.53,2.68,2.68,0,0,0,.12-3.08,5.13,5.13,0,0,1-3.44,1.4,3.78,3.78,0,0,0-1.43.25,2.83,2.83,0,0,0-.81.77,18,18,0,0,0-2.44,4.25,1.34,1.34,0,0,0-.07.4A7.85,7.85,0,0,0,63,61.24a23.66,23.66,0,0,0,4.23,3.95c1.18,1,1.06,4,1.32,5.42C69,73.34,70.92,82.05,65.28,81a3.85,3.85,0,0,1-2.4-1.76,13.09,13.09,0,0,1-1.72-6c-.38-5.7-2.5-9.46-5.15-14.45a2.7,2.7,0,0,0-1-1.21c-.48-.23-1.31.4-1.14.91a36.76,36.76,0,0,0,3.22,7.05c-.59-.17-1.16.42-1.22,1a3,3,0,0,0,.53,1.7c.54,1,1.08,2,1.63,3,.27.5.53,1.13.2,1.6q-1.6-2.9-3.12-5.85a.87.87,0,0,1-1.15.29,2.47,2.47,0,0,1-.89-1l-4.44-6.77a7,7,0,0,0-3.16,1.44,6.13,6.13,0,0,0-1.22,2c-.85,1.94-1.62,3.86-3.32,5.12a4.5,4.5,0,0,0,1.75-2.81,13.6,13.6,0,0,1,1-3.22c1-1.81,3.17-2.65,5.18-3.23s4.16-1.1,5.61-2.6a.7.7,0,0,0,.26-.47c0-.18-.21-.12-.39-.1l-1,.09c-3.34.3-6.76.58-9.85,1.91-.81.34-1.68.88-1.82,1.75A49.06,49.06,0,0,1,52,55.13a10.46,10.46,0,0,0-12,.88,9.67,9.67,0,0,1,6.15-3,20.46,20.46,0,0,1,7,.54c.5.11,1.22.07,1.26-.43,0-.34-.3-.58-.59-.74a24.92,24.92,0,0,0-4.27-2.11,8.36,8.36,0,0,0-4.69-.35c-2.08.52-3.3,1.86-5.44,2l-.29.22a12.08,12.08,0,0,1,5.66-3.2,41.86,41.86,0,0,1,6.49-1.08,1.5,1.5,0,0,0,1-.36c.24-.25.31-.62,0-.66a59.38,59.38,0,0,1-6.38-1.07,17.7,17.7,0,0,0-3.67-.61l3.35-.07a.69.69,0,0,0,.35-.08c.1-.08-.25-.46-.34-.54a.3.3,0,0,0,.27.34,15.42,15.42,0,0,0-2.28-3.49,2.19,2.19,0,0,0-1.24-.86,2,2,0,0,0-1.25.34,6.87,6.87,0,0,0-1.65,1.29,6.1,6.1,0,0,0,3.21-1.55,4.39,4.39,0,0,0,1-2.93,7.42,7.42,0,0,0-.44-3.11A8.22,8.22,0,0,0,40,30.68a5.57,5.57,0,0,0-4.86-.45,4.61,4.61,0,0,0-2.83,4c.06,2.66,1.09,5.47,3.32,6.94.92.6,2.19.65,2.75,1.59L40.21,46a.94.94,0,0,1,.18.57c0,.2-.18.43-.35.33a16.79,16.79,0,0,0-4.77,4,16.54,16.54,0,0,0-1.66,3.21c-1.36,3.15-2.72,6.3-3.94,9.51a17.27,17.27,0,0,1-1.23,2.78,16,16,0,0,1-1.79,2.32C23.9,71.81,21,75,17.3,76.8"/><rect class="cls-2" width="102" height="102"/></g></g></svg>