<svg xmlns="http://www.w3.org/2000/svg" viewBox="0 0 950.74 149.36"><defs><style>.cls-1{fill:none;stroke:#000;stroke-miterlimit:10;stroke-width:2px;}</style></defs><title>janakiAsset 36</title><g id="Layer_2" data-name="Layer 2"><g id="Layer_1-2" data-name="Layer 1"><path class="cls-1" d="M.86,32.73A58,58,0,0,0,40.13,60.07c8.74,1.57,17.71,1.08,26.56.44,16.64-1.21,27.72-12.19,41.6,3,5.39,5.9,8.48,13.54,10.77,21.19,2.91,9.73,5.32,20.68,13.57,26.59,8.08,5.78,19.25,4.69,28.64,1.42,9-3.15,17-8.47,24.89-13.74,5.24-3.5,10.11-7.76,15.89-10.39,20.86-9.47,28.71,15.78,47.56,16.51a10.86,10.86,0,0,1,7.63,2.4c1.42,1,1.94,3,2.5,4.65.88,2.6,3.55,4.65,6.28,4.3a10.28,10.28,0,0,0,3.83-1.63l4.24-2.54a3.19,3.19,0,0,1-2,2.51,7.17,7.17,0,0,0-2.81,1.86,3.74,3.74,0,0,0,.27,4.21c.86,1.23,2.4,1.67,3.25,2.91a5.68,5.68,0,0,0,3.08,1.83,5.35,5.35,0,0,0,2.91.39,4.23,4.23,0,0,0,1.66-.94,6.56,6.56,0,0,0,2.59-5,9.41,9.41,0,0,0-1-3.4l-1-2.29a2.2,2.2,0,0,1-.24-1,.7.7,0,0,1,.61-.68c.41,0,.66.44.8.83a22.29,22.29,0,0,0,1.84,4.22c1.27,2.07,2.89,4.22,5.27,4.71a6.13,6.13,0,0,0,5.65-2.23,11.87,11.87,0,0,0,2.41-5.81,6.1,6.1,0,0,1,.87-2.71,16.5,16.5,0,0,1,2.45-1.9c.6-.54,1-1.26,1.57-1.86a2.65,2.65,0,0,1,2.14-1l2.31,1.74a15.18,15.18,0,0,0,1.49,1,7.46,7.46,0,0,0,2.46.87c1.32.21,2.89-.06,3.59-1.2a4,4,0,0,0,.11-3.06,7.84,7.84,0,0,1-.52-3.08c0-.3.18-.66.48-.71a.59.59,0,0,1,.59.46,2,2,0,0,1,0,.81,7.27,7.27,0,0,0,1,5.45,3.58,3.58,0,0,0,4,.9C326,108,324.14,98.57,318,97.93c1.74,3,6.89,2.94,8.75,0s.09-7.42-3.21-8.6a7.23,7.23,0,0,0-8.67,4,5.32,5.32,0,1,0-6.18-8.39c-3.6,4,.32,10.13,4.11,14l2.18,2.2a16.92,16.92,0,0,0-5.23-8.72,8,8,0,0,0-3.94-2.1c-3.43-.52-6.73,3.25-5.75,6.57s5.79,4.72,8.39,2.43a8.29,8.29,0,0,0-5.82,5.06,12,12,0,0,1-1.45,3.55c-3.9,4.84-13.95-4.71-17.08.66,3.55.63,6.68-3.73,5.43-7.12s-5.7-4.9-9.05-3.54-5.43,5-5.7,8.56a5.76,5.76,0,0,0,1.48,4.8c1.3,1.16,3.77,1,4.38-.67.87-2.28-2.19-4-4.58-4.48,2.3-3.26,4.63-7.7,2.3-10.94s-7.94-2-9.56,1.51.31,8,3.58,10.12c.34-3-3.41-4.92-6.43-4.62S260,104,257,103.84c-5.59-.19-9.63-6.29-9.23-11.87s4.09-10.43,8.33-14.08c11.28-9.7,26.93-13.11,41.78-12.22,20.07,1.21,40.7,10.93,50,28.76,2.83,5.43,4.56,11.46,8.06,16.5s9.56,9,15.52,7.62c6.41-1.53,10.51-7.35,17.09-8.82,8.73-2,17.65,1.35,26,3.4,16.11,3.93,32.85,5.66,48.49-1.11,24.58-10.64,39.94-35.07,61-51.56,8.1-6.33,18.73-8.91,29-9.6s21.28-1.48,29.3-7.92c4-3.21,6.89-7.57,10.6-11.12,10.3-9.83,25.51-12.77,43.07-8.32,16.36,4.14,17,13.2,17,13.2.22,2.18-.11,3.49-1.09,4.69-.78,1-1.53,1.2-5.45,2.29a19,19,0,0,0-4.15,1.43,12.77,12.77,0,0,0-6.12,5.57,16,16,0,0,0-1.12,11.22,3.15,3.15,0,0,0,.94-2.45,30.81,30.81,0,0,0-.22-9.3c-.7-3-2.5-6-5.32-7.29a11.13,11.13,0,0,0-5.27-.82,13,13,0,0,0-7.73,2.75,7.81,7.81,0,0,0-2.77,7.44A11.77,11.77,0,0,0,620,59a33.21,33.21,0,0,0,7.91,3.46c.69.22,1.5.59,1.58,1.31a1.83,1.83,0,0,1-.4,1.12A28.21,28.21,0,0,0,626.57,69a4.76,4.76,0,0,0,.2,4.58,4.08,4.08,0,0,0,3.7,1.49,7.19,7.19,0,0,0,3.75-1.7,4.68,4.68,0,0,0,1.67-2.17,4.48,4.48,0,0,0-1.41-4.26c-1.09-1.13-2.48-1.93-3.62-3-1.62-1.52-2.72-3.56-4.51-4.88a15,15,0,0,0-5.74-2.18,16.87,16.87,0,0,0-4.17-.6c-4.62.08-8.48,3.92-10.08,8.25-1,2.73-1.28,5.92.17,8.44s4.44,4,7.38,4.24a28,28,0,0,0,8.75-1l-.9-.27c.12-.33,1.2-.26,1.31-.58-2.91-1-6,.57-8.69,2.07s-5.34,3-7,5.53a18.35,18.35,0,0,0-2.07,5.34,7.32,7.32,0,0,0-.38,2.44A7.82,7.82,0,0,1,596,91.9c-2.85-1.49-4.8-4.59-7.91-5.4s-6.43,1.07-9.21,2.88a1.9,1.9,0,0,1-1.07.43c-1.11,0-1.22-1.86-.32-2.53s2.11-.57,3.22-.69A8.13,8.13,0,0,0,587.51,77a10.29,10.29,0,0,0-5.75-6.5,8.91,8.91,0,0,0-4.54-1,7.88,7.88,0,0,0-6.11,4.37A13.36,13.36,0,0,0,570,81.54a7.57,7.57,0,0,1,0,2.6,7.89,7.89,0,0,1-1.53,2.56,7.63,7.63,0,0,0-1.69,4.1,3.74,3.74,0,0,0,2.13,3.64,3.39,3.39,0,0,0,3.87-1.37,4.7,4.7,0,0,0,.34-4.24c-.73-1.88-2.43-3.37-2.71-5.37-.39-2.77,2.13-5.27,2-8.07s-2.8-4.78-5.46-5.56a14.48,14.48,0,0,0-15,4.68,8.67,8.67,0,0,0-2.13,5,5,5,0,0,0,2.56,4.62c3.24,1.54,7.52-1.61,10.5.39.74.49,1.28,1.58.69,2.24a1.87,1.87,0,0,1-1.9.27,9.94,9.94,0,0,1-3.25-1.55c-1.44-1-3.8-.7-5.58-.6a7.29,7.29,0,0,0-3.43.91,9.29,9.29,0,0,0-2.89,3.72c-1,1.91-2.06,4-1.85,6.13a11,11,0,0,0,1.09,3.41,20.68,20.68,0,0,0,2.52,4.59,6.89,6.89,0,0,0,4.34,2.72,7,7,0,0,0,5.06-1.61,20.86,20.86,0,0,0,3.63-4L564,97.29a2.09,2.09,0,0,0-.1-1.87c-3.11,2.21-4.35,6.31-4.34,10.12a10.23,10.23,0,0,0,.53,3.52c.95,2.52,3.35,4.23,5.85,5.24a11.19,11.19,0,0,0,7.35.71,6.22,6.22,0,0,0,4.56-5.38c.09-3.14-2-6.42-4.28-8.6a3.42,3.42,0,0,1-.88-1.09A1,1,0,0,1,573,98.7c.47-.25,1,.09,1.41.47,1.27,1.3,1.81,3.13,2.47,4.82s1.65,3.44,3.34,4.12c2.15.86,4.61-.39,6.22-2.06a12.51,12.51,0,0,0,2.51-3.76,25.42,25.42,0,0,0,1-3q.69-2.4,1.4-4.82a4.56,4.56,0,0,1,3.95-.89,39.71,39.71,0,0,0,4.13.94c1.78.16,3.63-.4,5.36.09a10.44,10.44,0,0,1,4,2.86,20.65,20.65,0,0,0,9.39,5.56c3.59.8,7.71,0,10.16-2.78,2.79-3.14,2.81-7.82,2.42-12a38.69,38.69,0,0,0-1.84-7.77c-.21-.69-.33-1.57.24-2a1.23,1.23,0,0,1,1.56.3,3.53,3.53,0,0,1,.66,1.58c.34,1.41.67,2.81,1,4.22a16.24,16.24,0,0,0,2.17,5.73c1.94,2.74,5.42,4,8.77,4.2a7.24,7.24,0,0,0,3.27-.42c1.59-.66,2.65-2.15,3.64-3.56,1.2-1.73,2.46-3.64,2.37-5.75-.11-2.6,1.56-4.81,1.48-7.41s-1.52-5.34-4-6.12c-1.88-.59-3.88,0-5.83.34s-4.24.2-5.43-1.37l8.53-.88a17.92,17.92,0,0,0,7-1.72c4.14-2.35,5.72-8,4.24-12.5-.94-2.86-2.91-5.48-2.85-8.49a6.84,6.84,0,0,1,7.58-6.34c11.16,1.81,20.41,10.32,24.22,21s3.55,22.24,3.75,33.54,1,23.06,6.59,32.89c7.05,12.44,21.27,20,35.55,20.58s28.58-2.85,36.77-16.92c0,0,6.73-16,18.17-17.65s20.11,10.78,20.11,10.78c11,14.89,11.07,4.76,11.07,4.76,1.11-12.38-3-33.65-3-33.65-8.52-13.12-31.71-22.26-31.71-22.26,16.51-1.8,31.34,19.28,31.34,19.28-.74-8.82-6.81-26.15-6.81-26.15-5.17-10.5-29.5-17.1-29.5-17.1,20.29-.72,29.23,13.75,29.23,13.75-2.57-11-16.43-26.87-16.43-26.87l6.65-1.77c27,32.79,27.88,89.6,27.88,89.6.13,15.2,2.85,5.74,2.85,5.74,7.4-41.32-10.51-88.7-10.51-88.7l6.55-1.39c12.81,29.52,13.17,83.72,13.17,83.72,1.92,16.13,5.37-5.83,5.37-5.83,7.87-33,8.85-84.75,8.85-84.75l5.79,1.26C861,58,853,127,853,127c0,17.21,4.5-2.8,4.5-2.8,5-48.57,18.65-91.77,18.65-91.77l5.24,3.15c-13.43,31-15.08,90.75-15.08,90.75.55,19.42,5.89,3.75,5.89,3.75,6.45-30.94-37.6-95.69-37.6-95.69l6.44-1c32.53,39.3,40.11,100.14,40.11,100.14a468.42,468.42,0,0,0,5.9-78.63,174.51,174.51,0,0,0-1.55-24.08A113.08,113.08,0,0,0,881.91,14l7.25,1.1a17.78,17.78,0,0,1,.5,6.47c-.41,10.37.65,20.06,1.64,30.39,1.41-8,5.39-15.39,9.47-22.47a84.21,84.21,0,0,1,8-12A46.08,46.08,0,0,1,942.45,1.1c-17,9.76-29.26,25.9-40,42.27-3.21,4.88-6,10.33-10.78,13.63,1.49,12.73.5,25.57-1,38.25-.78,6.54-1.73,13.06-2.56,19.6-.58,4.56-2.93,12.43-1.08,16.67,3.8-2.19,3.16-9.5,3.61-13.28a116.59,116.59,0,0,1,3.76-19.43c3-10.36,8.21-20.3,16.16-27.62C917.21,65,925.53,61,933,55.9S947.65,44,949.77,35.17"/></g></g></svg>