<svg xmlns="http://www.w3.org/2000/svg" viewBox="0 0 515.14 742.27"><defs><style>.cls-1{fill:none;stroke:#000;stroke-linecap:round;stroke-linejoin:round;stroke-width:2px;}</style></defs><title>languageAsset 22</title><g id="Layer_2" data-name="Layer 2"><g id="Layer_1-2" data-name="Layer 1"><path class="cls-1" d="M102.75,80.24c1.88-3.18,6.89-1,9.2,1.87s5,6.71,8.62,6l1.8-45.19c.3-7.36.65-15,4-21.57,3.8,4.88,4.53,11.41,5,17.57A408.48,408.48,0,0,1,132,86.59q-1.91-37.2-3.8-74.41c-.15-3-.22-6.22,1.56-8.6,3-4.06,9.88-3,13.26.8s4.22,9.12,4.92,14.13c3.62,25.86,6.37,49.74,10.91,75.45l.54,3.06A587.72,587.72,0,0,1,148.3,25.23c4.52-1.12,7.95,4.05,9.38,8.48,6.79,21,3.63,44.27,10.06,65.44a10.2,10.2,0,0,0,1.9,3.93,10.13,10.13,0,0,0,4,2.38c8.56,3.27,17.67,4.8,26.51,7.24,4.05,1.12,8.41,2.7,10.57,6.32,3,5.07.55,10.88,2.17,16.56,3.65,12.84,5.56,26.11,7.35,39.34,8.27,61,14,122.91,20.11,184.16-2.88-.14-5.2-2.64-6.07-5.38s-.61-5.7-.35-8.57.82-4.69.62-7.56a6.59,6.59,0,0,0-5.15-5.84,1.23,1.23,0,0,0-1,.12,1.38,1.38,0,0,0-.31,1.13l.12,4a7,7,0,0,0-3-6,3.78,3.78,0,0,0-2.67-.76c-1.61.26-2.62,2-2.61,3.64a10.38,10.38,0,0,0,1.5,4.58,8.46,8.46,0,0,0-8.75-4.2,2.63,2.63,0,0,0-1.66.83,2.82,2.82,0,0,0-.27,2.35,14.85,14.85,0,0,0,2.91,6.27,5.49,5.49,0,1,0-6.16,9.08,45.83,45.83,0,0,0-8.59.7,4.09,4.09,0,0,0,4.67,4.47,15.18,15.18,0,0,1-7.49,3.92,3.88,3.88,0,0,1-2,0c-1.72-.64-1.8-3.29-.56-4.65s3.2-1.75,5-2.07a11.46,11.46,0,0,1-8.43,2.7,2.83,2.83,0,0,1-1.51-.47c-1.45-1.09-.26-3.42,1.18-4.54a15.36,15.36,0,0,1,11.39-3.05,20.87,20.87,0,0,1-7.87-2.51,13.68,13.68,0,0,1,11-1.07q-5.42-19.12-10.3-38.38c2,2.76,6.53,1.38,9-.95s4.68-5.53,8.07-6.1c2.62-.45,5.71.76,7.77-.93,1.53-1.25,1.67-3.5,2.14-5.43s2-4.07,4-3.57c1.67.42,2.22,2.76,1.37,4.26a6.34,6.34,0,0,1-4.28,2.63c-2.36.53-5.08.43-6.88-1.18s-1.93-5,.21-6.17c1.81,2.69-.09,7-3.29,7.47a5.08,5.08,0,0,1-5.31-6.2,14.41,14.41,0,0,1-2.47,6.41c-1.44,1.81-3.93,3-6.12,2.22s-3.4-3.84-1.87-5.57c2.08,1.91,1.12,5.86-1.46,7s-5.85-.36-7.11-2.88a8.19,8.19,0,0,1,.82-8c.67-1,1.8-1.95,2.93-1.57-.63,4.62-7.52,6.2-11,3.08s-3.55-8.78-1.45-12.94c1.59-3.14,6.25-5.68,8.29-2.82s-2.35,6.58-5.7,5.6a6.87,6.87,0,0,1,2.25-13.46c-3.42,1.51-7.85-1.92-7.3-5.63s5.66-5.75,8.65-3.5c-4.51-.46-6.09-7.38-2.73-10.44s9.17-1.92,12.06,1.58q1.11-3.17,2.24-6.31c2.79.79,5.86,1.5,8.51.31s4.08-5.17,1.87-7.06l-1.93,2.6a8.12,8.12,0,0,1-5.33-3.48,23.51,23.51,0,0,1-3.83,7.61,6.88,6.88,0,0,1,.55-10.23c1.63-1.17,3.68-1.53,5.6-2.1s3.92-1.54,4.78-3.35-.22-4.53-2.23-4.54a4.79,4.79,0,0,0-2.16.73l-13.9,7.41q.28-9.68.58-19.37a24.66,24.66,0,0,0,19.91,4.61c-2.89.35-6,.66-8.55-.71s-4-5.14-2-7.26a7.35,7.35,0,1,1-13.23-6.4c-.4,2.87-4,4.47-6.75,3.67s-4.79-3.26-6.12-5.83c-.38,2.11-.95,4.34-2.53,5.79s-4.49,1.62-5.66-.19c-1.43,2,.82,4.92,3.25,4.94s4.47-1.78,6-3.68A64.72,64.72,0,0,1,173,237.3a2.73,2.73,0,0,1-.57,1.27c-1,1.07-2.76.06-3.84-.93-3.84-3.57-7.82-7.32-9.62-12.24s-1.23-10.14-.66-15.24c-.7,2.35-1.55,4.89-3.61,6.22s-5.6.32-5.65-2.13a4.25,4.25,0,1,1-3.66,6.9c1.69-.61,3.21,1.91,2.23,3.42s-3.25,1.65-4.82.79a10.8,10.8,0,0,1-3.58-3.94c-1.69-.54-2.48,2.45-1.05,3.49l15.47,11.24c2.51,1.82,5.08,3.71,6.64,6.38s2,6,2.33,9.15a576.64,576.64,0,0,0,19.7,97.52,67.18,67.18,0,0,1,2.79,12A54.75,54.75,0,0,1,164.75,355c-4.14-2.23-8.08-5-12.65-6.1s-10.14.09-12.43,4.2l13.92,4.78a70.71,70.71,0,0,0,9.66,2.82c4.93.95,10,.84,15,1.4,13.71,1.52,26.5,8,40.21,9.48,7.52.8,16.59.82,20.58,7.25,3.45,5.57.59,13.34-4.61,17.34s-12,5.11-18.54,5.78c-5.35.54-10.73.88-16.11,1a26.21,26.21,0,0,1-9.14-.92c-2.32-.79-4.46-2.19-6.88-2.53-2.72-.37-5.41.65-8,1.54s-5.41,1.7-8,.9-4.73-3.84-3.54-6.31c1.09-2.28,4.29-3,5.22-5.35-7.62-5.95-17-12.25-26.19-9.25a173.53,173.53,0,0,1,8.94,24.55,5.6,5.6,0,0,1,.24,3.13c-.43,1.36-1.78,2.16-2.79,3.16-5.95,5.88-.31,18.34-7.12,23.19-3.88-21.75-5.55-39.58-8.2-61.52-5.57-46.16-9.81-90.18-13.15-136.55q-2.71-37.52-5.41-75c-1.52-21.12-3-42.26-6.21-63.19-3.75,22.7,6.22,45.35,7.11,68.34.26-2.75.69-5.81,2.86-7.51s6.4-.22,5.86,2.49a4.78,4.78,0,1,1,3.14-9,4.71,4.71,0,0,1-5.61-4.95,5.44,5.44,0,0,1,10.36,1.57c-1.07-2.93,3.63-4.79,6.41-3.38s4.77,4.28,7.79,5c-2.56.48-4.4-3.16-3.06-5.4s4.45-2.8,7-2.08a5.89,5.89,0,1,1,3.14-11.32c-2.79-.57-5.56-2.37-6.27-5.13s1.67-6.13,4.47-5.62c.31,1.13-2,1.07-2.11-.09s1-2,2-2.61c3.27-1.87,7.15-3.38,10.75-2.26s6.05,6,3.59,8.84c-3-.85-3-5.74-.46-7.62s6.08-1.5,9.14-.7c1.56.42,3.22,1,4.12,2.35s.47,3.61-1.1,4c.16-3.19,4.93-3.39,7.83-2,1.55.73,3.19,1.8,3.51,3.48s-1.76,3.54-3.07,2.44a8.64,8.64,0,0,1,4.84,9,7.36,7.36,0,0,1-4.29.56,5.11,5.11,0,1,1-7,7.46,3.65,3.65,0,0,1,2.4,1.46c1.57,2.2.31,5.19-.07,7.86s1.8,6.3,4.18,5c-1.68,1.59-3.42,3.29-4.08,5.51s.26,5.07,2.48,5.73a4,4,0,0,1,5.9-1.56c-1.82-2.77-1-7.23,2.11-8.39s6.86,2.92,4.89,5.58c1.68-2.5,3.48-5.12,6.18-6.47s6.56-.89,8,1.77c2.07,3.89-2.29,8.46-1.56,12.81,1.79-1.76,5.14,0,5.64,2.47s-.92,4.89-2.52,6.82c-.94,1.13-2.05,2.49-1.6,3.89.91,2.83,6.2,1.2,7.56,3.84l-5.07-68.8a4,4,0,0,0-3.91-4.54c-35-8.13-69.73-21.69-105.63-24.1a28.51,28.51,0,0,0-9.89,1.08,5.78,5.78,0,0,0-2.16,1c-1.5,1.26-1.53,3.53-1.41,5.48,1.47,23.49,11.86,47.16,7,70.19-4.2,20.13-8,38.93-11.59,59.18-7,39-12.32,76.3-23.68,114.21-14.48,48.36-17.26,97.82-32.4,146a795.36,795.36,0,0,0-30,136.16c-.56,4.32-.57,9.74,3.26,11.82,3.05,1.66,7,0,9.13-2.78s2.75-6.33,3.35-9.75C28.36,561.52,43.44,503.78,55.8,439.4q11.73-61,27.83-121.16c10.12-37.76,25.65-76.48,22.3-116.25a95.89,95.89,0,0,0-4.21-21.7c2,22.12,6.77,40.86,8.89,63,2.85,29.66,6.32,58.25,8.29,88,1.34,20.28,4.26,39.52,4.88,59.84a386.55,386.55,0,0,0,4.34,47.19,5.26,5.26,0,0,0,.85,2.5c.56.7,1.88,1.3,2.59.76a6.66,6.66,0,0,0,3.88,0c5.94-1.27,11.6-3.55,17.24-5.81l47.43-19.12c15.18-6.11,30.43-12.26,44.57-20.53-.5,2.64-3.28,4.09-5.74,5.16L126,450.14c-3.65,1.58-7.88,3.15-11.45,1.4-.48-2.06,1.59-3.87,3.61-4.51s4.3-.72,6-2,2.12-4.46.13-5.2l-17,7c-1.91.79-4.2,2.26-3.74,4.28a4.13,4.13,0,0,0,1.27,1.91c9.15,9,24.89,10.28,35.36,2.85,2.83-2,5.44-4.62,8.84-5.33s6.63,1.11,7,4.55c2.59,21.24,1.75,40.61,2.88,62q2.4,44.86,3.77,89.77c.87,28.41-.84,56.8,2.81,85.1,1.91,14.86,3.61,30.93-3.78,44-1.77,3.11-5.09,6.3-8.44,5-3-1.11-3.74-4.9-4-8.07-3.32-37.22-4.4-74.6-5.48-112-1-34.28,1.88-66.74-2.64-100.73a358,358,0,0,1-2.93-59,9.44,9.44,0,0,1,.84-4.29,9.12,9.12,0,0,1,4.07-3.26A114.72,114.72,0,0,1,169.67,444c1.27-.29,2.7-.53,3.78.19,1.41.95,1.45,3,.92,4.66-1.14,3.46-4.71,6.29-8.28,5.56s-5.59-5.92-2.87-8.34a8.65,8.65,0,0,1,3.21-1.52,446.26,446.26,0,0,0,49.5-18.89c3.16-1.43,6.91-4.3,5.58-7.5-4.18-1.5-7,4.27-6.25,8.64q7.29,41.09,14.59,82.18c9.08,51.12,18.18,102.3,31.39,152.51a16.82,16.82,0,0,0,13.61-8.37c-12.67-70.07-24.37-140.15-40.11-209.6q-2.73-12.07-5.47-24.15L250.52,411c2-.77,4.69-1.32,5.78.49.71,1.18.2,2.73-.58,3.86a9.41,9.41,0,0,1-12.6,2.3,2.93,2.93,0,0,1-1.46-2c-.15-1.67,1.89-2.55,3.52-3a86,86,0,0,0,24.25-10.25c1.47-.91,3-2,3.53-3.64s.28-4.73-1.44-4.65l-12.89.56a3.2,3.2,0,0,1-2.58-.65,7.76,7.76,0,0,1-.81-1.47,2.67,2.67,0,0,0-2.76-1.21c-1,.22-1.84,1.05-2.8,1.51s-1.73.32-1.89-.74c-5.88-39.68-13.77-78.73-17.24-118.69L227,231.94"/><path class="cls-1" d="M403.73,173.35c-9.46,7.12-19,14.9-24.19,25.54s-4.82,24.91,3.94,32.87c9.56,8.68,24.34,6.82,37,4.41-10.83.67-21.51-7.57-23.62-18.22A29.72,29.72,0,0,0,420,233.4a57.83,57.83,0,0,0-6.81-16.19,15.47,15.47,0,0,0,7.26,15.48A11.58,11.58,0,0,0,419,220c-2.23,4.14,3.54,7.76,6.09,11.7,2.79,4.29,1.6,10-.59,14.66s-5.33,8.89-6.39,13.89c-1.93,9.09,3.79,18.55,11.8,23.26s17.77,5.42,27,4.65a19.72,19.72,0,0,1-10.17-19,41.16,41.16,0,0,0,11.75,18.5,8,8,0,0,0,4.14,2.33c3.51.44,6.22-3.63,5.81-7.14s-2.86-6.4-5.19-9c-2.75,7.49,5.52,15.19,13.5,15.43,2.95.09,6.18-.64,8-3s1.12-6.5-1.72-7.29c-1.69,3.87,3.62,7.21,7.85,7.15a20.25,20.25,0,0,0,18.25-28.47c-1.26-2.84-3.17-5.37-4.28-8.28-1.53-4-1.43-8.44-1.82-12.72a72.71,72.71,0,0,0-4.83-19.44c-7-18.26-19.49-34.92-36.7-44.2s-39.39-10.26-56,0-25.81,32.47-18.81,50.73c3.16,8.22,9.3,16.44,6.83,24.89-.83,2.85-2.6,5.33-3.7,8.09s-1.44,6.17.43,8.48,6.42,2.08,7.14-.8c-2.7,1.07-5.25,9-1.1,10.07,3.64.91-.45,2.62,1.23,5,6.07.17,6.65,9.82,11.94,12.78,6.3,3.53,14.61-4.49,21-1.11a58.5,58.5,0,0,0-37.79,36.53c13.5-10.75,27.5-21.76,44.13-26.35,14.11-3.9,29.2-2.91,43.35-6.66-18.13-6.2-38.57-2.11-55.43,7s-30.76,22.77-44,36.64c-3.41,3.59-7.18,7.41-12.08,8.11-3.32.47-6.63-.58-9.89-1.35-19.1-4.47-41.31.16-56.86-11.8-5.72-4.4-9.79-10.6-15.23-15.34s-13.37-7.91-19.83-4.7a24.19,24.19,0,0,0,16.56,9l-15.19-8c-3-1.56-8.07-2-8.27,1.29-.11,1.89,1.79,3.21,3.46,4.11L278,327.48a36.86,36.86,0,0,0-22-10.38,23.22,23.22,0,0,0,17.78,17.68L256.54,323.1A43.34,43.34,0,0,0,282,346.21a6.43,6.43,0,0,0,4.41.31,7,7,0,0,0,2.83-2.83l5.2-7.77a6.77,6.77,0,0,0,1.47-3.52c0-1.68-1.2-3.1-2.34-4.34l-11-11.94a74.47,74.47,0,0,0,28-14.17L257,323.37a25,25,0,0,1-7.23,2.07c-1.77.14-3.59-.1-5.3.38-2.72.76-4.6,3.14-6.85,4.84s-5.81,2.58-7.67.46c3.37,3.75,8.06,7,13.06,6.37s9.16-6.71,6.33-10.88a4.9,4.9,0,0,0,2.26,5.51c2.65-3.69,8.42-2.1,12.36.15,14.55,8.31,26.36,20.69,40.3,30A112,112,0,0,0,446.9,346.86c1.26-1.29,2.28-3.84.6-4.52a219.66,219.66,0,0,0-35.65,23.85c-1.13.93-2.32,2-2.57,3.44-.3,1.74.88,3.35,2,4.72l14.38,17.79c2.47,3.06,5.19,6,7.47,9.24,1.52,2.16,2.59,4.7,5.17,5.83a18.25,18.25,0,0,0,6.24,1.09c12.28.7,24.69,1.39,36.79-.83,2.95-.54,6.13-1.42,7.89-3.85s.83-6.78-2.15-7.17c-2.08-.28-4,1.53-4.55,3.55a13.05,13.05,0,0,0,.27,6.23q3.11,15,6.94,29.74c.2.79.53,1.7,1.31,1.91,1.34.37,2-1.54,2.07-2.93a105.63,105.63,0,0,0-3.35-28.59c-.67-2.6-2.18-5.75-4.87-5.61a122.79,122.79,0,0,0,4.27,26.52l-4.32-19.88a113,113,0,0,1-42.36-.15,5.12,5.12,0,0,0-2.66-.05c-2.07.73-2.22,3.55-2,5.73a227.59,227.59,0,0,1-1,48.67c-2.23,17.45.64,34.19,1.52,51.75.16,3.13.19,6.64-2,8.92s-6.05,2.46-9.38,2.3q-23.61-1.09-47.14-3.52c-2.33-.23-4.78-.53-6.66-1.93s-2.8-3.54-3.57-5.67c-3-8.31-4.08-17.22-4.32-26.06-.8-30,7.46-59.45,11.43-89.22.42-3.19.84-6.51,2.53-9.25,3.35-5.41,10.88-6.92,17-5.19s11.16,6,16,10.1c6.91,5.9,14,12,18,20.18,5.87,11.88,4.26,25.92,2.52,39.06q-.75,5.74-1.52,11.48a4.06,4.06,0,0,0,.33,2.86,3.63,3.63,0,0,0,2.17,1.19c6.67,1.63,13.55-1.07,19.89-3.72s12.83-5.38,18.22-9.71,9.64-10.54,10-17.43c-10.52,5.14-15.49,17.13-23.53,25.63-4.36,4.6-9.68,8.21-13.89,12.94s-7.31,11.15-5.83,17.31a107.37,107.37,0,0,0,33,2.31c4.8-.41,9.7-1.18,13.9-3.54,10.42-5.84,13.56-19.75,11.63-31.54s-7.69-22.59-10.84-34.11c-6-22-2.24-45.34-2.06-68.17.12-13.88-1.11-27.74-2.6-41.54-.63-5.92-1.73-12.56-6.61-16,0-2.11,3.44-1.19,4.8.42a56.61,56.61,0,0,1,12,24.37c6.06,28-9.61,56.7-6.49,85.19,1.51,13.75,7.32,26.64,10.59,40.08S499.54,480,491.19,491c-16.47,21.8-32.91,41.42-40.3,67.73-1.23,4.36-2.27,8.84-2,13.36s1.39,10.3-2.37,13c-2.49,1.77-6.8,1.88-7.29,4.9-.43,2.7,2.84,4.28,5.33,5.43s4.93,4.52,2.79,6.24c-1.05.84-2.7.62-3.7,1.53-2.17,2,1.1,5,2.92,7.22,2.13,2.65,2.23,6.35,2.22,9.75q0,15.14,0,30.26c0,6.54,0,13.14-1.31,19.55-.81,4-2.13,8-2.57,12.11a57.82,57.82,0,0,0-.12,8.22q.3,8.58.58,17.16c.06,1.82,0,3.91-1.37,5.1a5.91,5.91,0,0,1-2.67,1.1c-18.91,4.35-38.5,4.74-57.89,4.18-12.31-.35-25.35-1.33-35.35-8.51-3.12-2.23-6-6.31-4.07-9.59,1.48-2.45,4.8-2.84,7.65-3.05a159.76,159.76,0,0,0,44.63-9.88c-3.06-2-7.05,2.19-6.36,5.76s3.94,6,6.94,8q-2.26-6-4.55-12l16.58,11.6c4.24,3,8.8,6.05,14,6.25s10.84-3.86,10.29-9A5.86,5.86,0,0,0,440.7,689c-2.09,1.58-3.5,3.91-5.45,5.66-4.46,4-11.26,4.36-16.93,2.48s-10.48-5.65-15.17-9.35c-2.66-2.1-5.61-5.42-4-8.4,6.33,1.4,11.77,5.43,18,7.32s14.4.66,16.87-5.33c-6.74-5.62-16.91-1.22-25.61-2.4-2.68-.36-5.71-1.79-6-4.47s2.33-4.86,3.31-7.45c1.62-4.3-1.63-8.81-2.3-13.36-.58-3.84.72-7.68,1.18-11.53,1.44-12-5.21-24.32-1.87-35.93,6.27.88,12.82,1.74,18.82-.3s11.19-7.94,10.19-14.2c-9.19,5-20.28,10.16-29.67,5.5a10.71,10.71,0,0,0,9.3-5.8c-3.14.47-6.38.94-9.45.14s-5.95-3.24-6.24-6.4c-.26-2.74,1.41-5.32,1.51-8.07.07-2.07-.74-4-1.22-6.07-.84-3.57-.61-7.3-.37-11q.78-12.31,1.58-24.65a4.37,4.37,0,0,1,1.06-3.14,4.45,4.45,0,0,1,3.16-.68l21.95,1c5.92.27,12.23.66,17,4.2,4.33,3.22,6.56,8.46,8.56,13.47A838.66,838.66,0,0,1,479.87,644c-.28-2.61-.61-5.34-2.12-7.49s-4.6-3.42-6.83-2.05c-2.41,1.48-2.51,4.94-1.88,7.69s1.68,5.68.63,8.3a5.2,5.2,0,0,0-4.34,4.27l-12.58,5.26a6.06,6.06,0,0,0-4.69,5.75q-1.08,5.87-2.15,11.73l55.52,8.78c3.54.56,7.78.86,10-1.91,3.42-4.18-1.11-10-2-15.4-3.86,1.31-6.69,4.66-10.36,6.45-8.3,4-18-.8-25.91-5.51-4.58-2.72-9.81-6.72-9-12,4.49,1.54,6.92,6.43,11,8.93,7.51,4.66,17.42-.43,23.37-7a52.53,52.53,0,0,0,13.38-30.37,43.29,43.29,0,0,0-8,24.86,4.71,4.71,0,0,0,.67,2.9c1.11,1.47,3.57,1.17,4.89-.13s1.76-3.21,2.12-5a133,133,0,0,0-2.6-62.12,62.82,62.82,0,0,1-2.16-8.7c-.45-3.24-.86-7.37-4-8.35-1.11-.35-2.33-.17-3.43-.53-3.19-1.07-3.25-5.62-2.06-8.76s3-6.65,1.49-9.66c-1.38-2.75-5.16-4-5.81-7-.61-2.78,1.83-5.25,2.44-8,1-4.7-3.23-9-3.5-13.8-.14-2.29.65-4.52,1-6.79.7-4.47-.3-9.06.24-13.56s3.49-9.34,8-9.55"/></g></g></svg>