<svg xmlns="http://www.w3.org/2000/svg" viewBox="0 0 1506.13 718.14"><defs><style>.cls-1{fill:none;stroke:#000;stroke-linecap:round;stroke-linejoin:round;stroke-width:2px;}</style></defs><title>movementAsset 38</title><g id="Layer_2" data-name="Layer 2"><g id="Layer_1-2" data-name="Layer 1"><path class="cls-1" d="M873.63,713a666.1,666.1,0,0,0-51-113.27c-3.28-5.77-6.84-11.7-12.43-15.28s-13.81-3.94-18.29.95a167.23,167.23,0,0,0,32.69,50c5.48-16.1-14.59-28.48-21.77-43.9-7.51-16.1.37-35.86,13.29-48s30-18.8,46-26.44a336.3,336.3,0,0,0,50.76-29.91c7.57-5.4,15.79-13.56,13.2-22.49a91.33,91.33,0,0,1-50.28,43.93c-15.71,5.56-32.79,6.71-48.25,12.94s-30,20-29.14,36.66c-11.59-3.58-13.79-15.75-15.36-27.77C775.29,470.88,817.15,409,875.22,394c12.49-3.22,25.5-4.5,37.61-8.92s23.72-12.85,27.58-25.15c19.11,14.65,48,10.08,66.89-4.85s29.64-37.81,37.57-60.55c.29,32.24-28.49,61.93-60.73,62.63-6.6.14-13.38-.75-19.7,1.17-9.21,2.8-15.59,10.92-23.24,16.77-14.78,11.31-34.15,14-52.3,18.09-39.73,9-80.87,29.92-95.63,67.88-3.93,10.09-5.17,14.8-12.75,22.54-7.77-.6-18.62-5.42-24.52-10.53-4.71-4.07-7-10.22-8.56-16.26a92.94,92.94,0,0,1-2-35.58c.83-6,2.47-12.29,6.94-16.38,6.14-5.6,16.31-5.13,23-.23s10.24,13.25,11,21.53-.88,16.58-2.79,24.67c-.83,3.5-1.88,7.27-4.75,9.45-4.49,3.39-11.41.95-14.69-3.62s-3.85-10.49-4.22-16.1c-.25-3.92-.43-8,1.14-11.61s5.44-6.52,9.27-5.67c3,.67,5.19,3.46,6,6.43s2.15,9.19,2.14,12.27c0,3.74-4,8.65-6.29,5.74C771,402.53,792,357.24,827.41,329.12c15.14-12,32.66-21.06,46.6-34.46s24.15-33.23,19-51.87a82.39,82.39,0,0,1-33.47,55.74c-14.55,10.37-32.2,15.74-46.67,26.23-17.79,12.9-27.32,11.65-29.79,33.48,1.49-54.23.78-87.94,20.8-138.37,6.14-15.44,14-30.35,17.7-46.55,6.51-28.33.33-59.85,14.1-85.45-10.67,3-17.25,14.11-19.21,25s-.42,22.13-.69,33.22c-.13,5-.06,9-2.6,13.32-2.37,4.06-8.87,3.54-12.19.23s-4.36-8.22-5.37-12.8a248.57,248.57,0,0,0-31.35-77.26c-4.23-6.84-14.84-3.7-21.43.92,10.28,6.45,20.09,17.65,24.34,29,2.33,6.24,7.17,14.8,10.5,20.57,5.39,9.36,6.8,19.2-2.39,44.76-9.61,26.71-18.74,42.33-31.89,70a129.22,129.22,0,0,0-11.22,72.89A114.87,114.87,0,0,1,688,250.64c-6.82,27.51,36.67,53,38.47,81.26.91,14.43-8.67,16.93-16.76,28.93-15,22.23-22.38,34.68-21.33,61.47-26.19-27.3-54.47-41.1-90.88-51.42-27.21-7.72-57.53-4.72-82.54-17.95a71.28,71.28,0,0,1-37-56.35c12.92,27.34,30.93,58.44,61,61.23,12.49,1.16,25.35-3,37.47.16,17.82,4.7,31.17,24.58,49.46,22.33C619.4,367,609.51,359.8,603,346.5A92,92,0,0,0,629.62,394c18.24,17.27,44.78,28.71,52.15,52.73,3.35,10.92,2,22.63,1.23,34a290.75,290.75,0,0,0,12.45,104.81C689.68,568,682.1,548.44,665,541.42c-12.27-5-26.14-2.1-39.31-.46-55.76,6.95-122.78-16.4-163-55.64-12-11.73-17.74-15.09-30.67-25.8,0,0-30.42-26.85-17.27-19.25,31.66,16.69,47.1,37.15,75.91,58.4s63.29,38.76,98.89,35c11.37-1.2,22.48.45,33.89,0,21.81-.91,54.23,9.65,67.37,27.08A68.93,68.93,0,0,1,701,622.83c-5.48-4.23-6.2-12.1-6.27-19-.63-60.8,13.18-120.87,31-179,5.28-17.24,11-35.28,7.54-53-16.92,29.84-20.71,65.25-21.49,99.55a666.2,666.2,0,0,0,6.73,110.75c3.13,21.54,7.26,43.91.86,64.72-1,3.17-2.37,6.49-5.18,8.26-4.46,2.8-10.7.29-13.76-4s-3.75-9.77-4.36-15q-2.83-24.6-5.68-49.2c-1.87-16.2-3.74-32.43-3.75-48.73,0-58,23.34-113.05,37.57-169.27C742,298.7,747.1,221.84,790.48,163.83c2.77,25.24-7.9,49.73-17,73.44a641.65,641.65,0,0,0-34.08,127.15c16.53-22.05,21-50.51,26.83-77.44,8.72-40.32,21.48-79.64,34.22-118.88,4.81,2.83,4.27,9.85,3.1,15.31q-22.7,105.87-45.4,211.76c8.87,3.62,19.14-3.77,22.19-12.86s1-19-1.12-28.35c-.65-2.9-1.39-6-3.53-8-4.32-4.17-12.12-1.64-15.38,3.4s-1.63,12-3.56,17.68C735.64,429.22,718.35,496.47,735,560c3.37,12.83,8.08,25.27,11.84,38,7.74,26.12,11.45,53.23,15.14,80.21,10.27-70.65-38.14-143.1-17.15-211.34,6.58,17.83,4.68,37.49,6.26,56.43,1.33,16,5.2,31.72,9,47.34q9.35,37.94,18.71,75.89c.91,3.7,6.43,7.62,7.17,3.88a133.3,133.3,0,0,0-10.28-59.27c-3.55-8.37-8-16.42-10.24-25.21-2.39-9.24-2.32-18.91-2.23-28.45q.2-21.24.4-42.48c0-4.85.9-10.87,5.5-12.4,5.47,34.83,8.35,70.71,11.63,105.81-6.94-15.5,2.48-33,11.6-47.37C797,534,801.56,526.78,808,521.39c6.64-5.57,14.83-8.89,22.86-12.12l38.53-15.48c8.53-3.43,17.23-6.9,26.39-7.65,10.56-.88,21.05,1.91,31.61,2.58a80.54,80.54,0,0,0,60.13-22,51.9,51.9,0,0,0-17-18.2c-.57-7.17,7.48-12.52,14.66-12.18s13.54,4.49,19.78,8.07c50.49,28.95,117.68,25.7,165.14-8,8.3-5.89,20.89-12.22,27.09-4.15,5,6.47-.05,15.7.44,23.84.62,10.56,11.1,18.37,21.59,19.7s20.93-2.2,30.91-5.68l74.6-26c-42.49,9.58-85.48,19.33-124.38,39,83.31,12.26,171.62-15.65,232.74-73.56a150.91,150.91,0,0,0-39.73-7.87c40.06-11.17,70-43.63,97.74-74.65,8.74-9.79,18.07-23.12,12.25-34.89-4.44-9-16.08-12.07-26-10.64s-19,6.22-28.62,9c-23.48,6.74-49.53,1.21-72.32,10-11,4.26-20.64,11.66-31.67,16-29.46,11.5-67.35.55-90.86,21.71,17.66-2.06,34.72,5.8,51.7,11.05,61.62,19.05,133,2,179.34-42.9A471.16,471.16,0,0,1,1344,327.41c-.94,6.34,7.59,9.32,14,9.53a191.38,191.38,0,0,0,82.21-15.66c6.16-2.67,13-6.75,13.7-13.43.48-4.38-1.92-8.6-2-13-.21-8.35,7.6-14.66,15.32-17.85s16.38-4.85,22.57-10.45,7.85-17.32.59-21.43a145.09,145.09,0,0,1-40,6.57q.8-10.87,1.6-21.76l23-6.31q-.66-6.42-1.33-12.83c-8.82-1.46-18.83-3.73-23.08-11.59s5.24-20.25,12.28-14.74c13.42-3.31,19.9-20.5,15.16-33.48s-17.62-21.51-30.94-25.22c-8.22-2.29-16.93-3.12-24.64-6.79s-14.47-11.32-13.53-19.81a83.84,83.84,0,0,0-70.15,16.14c-11.68,9.4-23.94,23-38.53,19.51,7.32-13.32,32.1-15,31.47-30.17-.52-12.74-19.82-14.87-30.38-7.73s-18,19.2-30.2,23c-8.8,2.76-18.29.6-27.51.61s-19.9,3.53-22.73,12.31c10.08-7.61,23.9-7.26,35.86-11.3s23.18-18,16-28.42c-8.18-11.93-29.21-4-39.78-13.91,9.67,1.23,13.51-14.53,6.29-21.07s-18.45-5.45-27.79-2.7a77.17,77.17,0,0,0,13.09-32.73c-28.49-.33-54.07,16-78.67,30.4a735.74,735.74,0,0,1-120,56.28c10.34-16,31.42-20.2,50-24.32s39.69-12.12,45.16-30.39l-29.26-.6a32.38,32.38,0,0,0,20.79-25.61c-4.64,8.32-18.47,9.08-23.9,1.25s.3-20.61,9.77-21.66c-13.44-3.33-26.94,3.69-39.87,8.61s-29.62,7-38.8-3.33c-3.08-3.47-5-8.09-8.9-10.57-8.35-5.31-18.89,2.25-25.1,9.94s-13.71,17-23.51,15.7c-4-.53-7.43-2.83-11.27-3.94-16.43-4.72-30.25,12.81-37.24,28.42s-16,34.47-33.08,35.64a18.39,18.39,0,0,0,8-16.49l-21.4,1.3c.62-11.46-9.46-22.38-20.92-22.69l-.3-13.08-30.15-3.36c5.87-2.37,4.53-12.06-.94-15.22s-12.36-1.79-18.47-.15-12.75,3.46-18.57,1C771.21,17,766.64,8.79,759.32,9c-4.05.11-7.47,2.89-11.21,4.44-19.43,8-45.8-16.46-60.24-1.18-5.58,14.74-.6,32.82,11.74,42.64l-27.8,16L681,79.49c-1.79,4.06-4.54,7.28-9,7.55-9.45-21.28-41.84-27.48-58.47-11.18-7.58,7.43-11.34,20.34-4.76,28.66,6.47-2.21,5-12.92-1-16.15s-13.38-1.46-20,.22-14.18,3-19.85-.78c-2.94-2-4.89-5.06-7.06-7.86A51.37,51.37,0,0,0,523.3,60.47c-6.35-.31-13,.52-18.76-2.25-6.84-3.33-10.35-10.83-15-16.83a45.34,45.34,0,0,0-22.11-15.31c-5.71-1.78-12.37-2.27-17.29,1.14S443.81,39,448.71,42.43c-12-2.42-21.95,9-28.91,19.1-.95,1.37-1.93,2.9-1.79,4.56.21,2.29,2.44,3.8,4.51,4.82C438,78.51,458,78.27,469.4,91.18c5,5.65,7.53,13.1,12.3,18.94s13.63,9.81,19.79,5.46c-8.23-10.76-22.41-14.65-35.57-17.89-21.73-5.35-43.7-10.72-66.08-10.94-18.21-.17-37.22,3-54.08-3.9-9.23-3.75-17.19-10.31-26.65-13.42s-21.93-1.31-26.22,7.67c-2.94,6.14-1.1,13.38.79,19.91,5.08,17.61,14.13,38.63,32.41,39.93C314,123.83,300.71,110,283.21,106.63c-4.5-.87-9.14-1-13.54-2.3-5-1.46-9.44-4.35-14.2-6.46A49.49,49.49,0,0,0,220,96.19c4,31.87,31.75,54.67,57.4,74L301,188c.95-12.6-19.13-14.32-26.28-24.74-2.2-3.21-3-7.16-5-10.5-6.65-11.22-22.51-11.48-35.5-10.36a9.87,9.87,0,0,0,2.77-8.31l-58.46,2.3c-17.63.69-35.95,1.56-51.52,9.86-6,3.21-6.45,12.91-12.67,15.69a26.84,26.84,0,0,0-15.53,24.26l55.06,14.11c7.35,1.88,14.89,3.85,21,8.3,4.61,3.33,8.24,7.92,13,11s11.52,4.4,15.92.79a27.88,27.88,0,0,0-23.49,4.5,75.11,75.11,0,0,0-20.71-13.1c-5.15,8.18-16.88,9.45-26.12,6.62s-17.26-8.71-26.33-12-20.58-3.41-27,3.83c-2.92,3.29-4.55,7.86-8.35,10.08-4.4,2.57-9.92,1-14.93.06A60.09,60.09,0,0,0,1,239.88a67.14,67.14,0,0,0,17.09,10.76c-1.64,7.4,3,15.05,9.34,19.25s14,5.67,21.44,7.06c-7.95,3.38-7.64,15.86-1.38,21.82s15.54,7.11,24.15,7.85S89.5,308.25,96,313.9c3.23,2.8,5.56,6.59,9.09,9s9.14,2.76,11.43-.85-1.5-10.65-3.94-7.14c-9.8-7-23.39-6.73-34.61-2.3S57.39,325,48.24,332.87c-3.63,3.11-7.5,6.64-8.22,11.36-.61,4,1.27,8,3.09,11.69q5.74,11.56,11.5,23.14c1.89,3.81,4.07,7.9,8,9.6s8.24.58,12.34-.23A80.42,80.42,0,0,1,120.73,393L73.06,405.19c-10.94,2.81-24.57,9.37-22.88,20.54.59,3.9,3.12,7.21,5.82,10.09,14.85,15.82,36.89,23.32,58.53,24.82s43.27-2.4,64.61-6.29c-4,3.64-6.3,12.47-.89,12.36q-3.93,2.25-7.87,4.49c22,12.91,49.72,11.78,74.43,5.37s48-17.61,72.7-24c5.87-1.52,12.06-2.88,16.73-6.77s7.09-11.25,3.5-16.14a17.31,17.31,0,0,0,21.1-6.6c3,.95,7,4.22,9.78,5.47,9.37,4.12,19.87,5.11,29.24,9.22,19.62,8.62,30.76,29,44.79,45.17,36.74,42.44,96.16,57.75,152.24,60.21,26.84,1.18,59.38,3.13,71.72,27,10.24,19.79,2.67,49.5,21.57,61.3a294.46,294.46,0,0,0-17.86-79.18,358.6,358.6,0,0,1-3.87,164.91"/></g></g></svg>