<svg xmlns="http://www.w3.org/2000/svg" viewBox="0 0 416.94 276.82"><defs><style>.cls-1{fill:none;stroke:#000;stroke-linecap:round;stroke-linejoin:round;stroke-width:2px;}</style></defs><title>perspectivesAsset 21</title><g id="Layer_2" data-name="Layer 2"><g id="Layer_1-2" data-name="Layer 1"><path class="cls-1" d="M210,101.87c-18.61-26.3-51.47-41.6-83.36-38.82,16.59,29.05,46.93,49.87,83.9,43.33a154.86,154.86,0,0,0-4-32.17,95.07,95.07,0,0,0-6.38-19.15A69,69,0,0,0,154.92,18c1.15,18,5.61,35.87,14.57,51.41s22.63,28.6,39.2,35.2a7.18,7.18,0,0,0,3.67.7c2.58-.41,3.93-3.22,4.83-5.68,5.93-16.22,10.21-33.29,9.95-50.58s-5.37-34.87-16.47-48a82.17,82.17,0,0,0-2.19,101.05c1.23,1.64,2.66,3.33,4.63,3.83,2.26.56,4.57-.59,6.57-1.79,27.88-16.83,42.07-51.24,41.61-84C241.43,31.77,220,45.35,212.91,67.43c-4.07,12.64-2.76,26.32-1.41,39.54,24-.18,34.57-1.89,49.05-11.11s25.86-23,33.5-38.44c-27.82-2.1-56.33,10.58-73.56,32.73-7.61,9.78-13.22,22.7-9.36,34.51"/><path class="cls-1" d="M219.43,186.07l26.36,7.42c3.38.94,7,2.09,9,5,2.45,3.65.71,8.4,0,12.74-3.86,22.76-7.19,37.54-8.78,57.05-.15,1.87.88,5.69,3.92,6.81a.33.33,0,0,0,.17,0c1.93-.27,4.45-1.52,5.33-3.58,17.27-40,26.44-76.21,41.21-116,.55-1.47,2.3,0,3.85-.23.89-.12,1.41-1,1.78-1.86.95-2,1.86-4.55.53-6.36a5.57,5.57,0,0,0-2.63-1.7c-5.07-1.88-11-1.94-15.12-5.44-4.54-3.87-5.23-10.59-4.76-16.53.45-5.54,1.72-11.31,8.86-13.91a10.93,10.93,0,0,1,4.21-.61c4.27.2,7.43-2.34,11.69-2,4.47.37,8.93,1.71,13.37,1s8.95-4.37,8.31-8.81c2.45.75,2,2.85,1.17,5.26a15.22,15.22,0,0,1-5.7,7.34c-1.6,1.09-3.67,1.88-5.45,1.12,3.91,2,6.9.1,11.07-1.21a41.13,41.13,0,0,1,29.36,1.92,26.65,26.65,0,0,0-20.84,1.69,2.88,2.88,0,0,0,2.34,2.06,8.87,8.87,0,0,0,3.28-.19c6.39-1.12,13-1.59,19.32-.26s12.44,4.62,16.23,9.87c-10-5.43-23-6.2-33-.85,2.28-1.11,4.88.41,7.29,1.21,4.26,1.41,8.88.49,13.35,0a60.91,60.91,0,0,1,18,.9c5.84,1.18,6.27,1.9,12.23,2.07s11.44-1.34,20.65-6c-9.56,7.61-21.75,11.88-33.93,11-10.46-.71-20.7-4.74-31.14-3.75-7.18.68-14.48,3.72-21.37,1.59-3.82-1.18-7.45-3.91-11.34-3.5a2.38,2.38,0,0,0-2.21,2.19c-.1,1.79,1.48,2.34,2.85,2.67a63,63,0,0,0,13.54,1.74c3.71.07,7.5-.17,11.06.86s7,3.69,7.55,7.36c-5.23-4.12-13.39-4.46-19.3-1.41-2.3,1.2-4.33,2.9-6.69,4-7.13,3.28-15.43.34-22.7-2.59-4.36-1.76-8.93-3.67-11.81-7.39a13.35,13.35,0,0,1,6.79-21c5.23-1.53,10.8.23,16,2a19.33,19.33,0,0,0,10.56.72c-2.14,1.86-5.09,2.45-7.9,2.81s-5.74.59-8.25,1.92-4.48,4.17-3.83,6.93a8.37,8.37,0,0,1,9-5.65c-2.59,2-5.82,3.08-5.71,6.38.05,1.42.68,2.82.46,4.22a6.2,6.2,0,0,1-2.28,3.45,20.85,20.85,0,0,1-23,2.66c-2.1-1.12-4.12-2.8-4.65-5.12a13.77,13.77,0,0,0-2.85,11.53c5.89,3,12.11,4.24,18.7,5a5.69,5.69,0,0,0,2.9-.2,2.1,2.1,0,0,0,1.33-2.34l-9-2.36c-2.71-.72-5.52-1.43-8.28-1s-5.45,2.5-5.76,5.28a1,1,0,0,0,.26.92c.27.2.77-.12.59-.4-.14.48-1.16.41-1.3.89,0,0-21.09,90.49-22.7,99.47s3.24,1.49,3.24,1.49l16.67-45.53s2.58-8.7,13.21-5.54,44.12,12.57,44.12,12.57"/><path class="cls-1" d="M197.51,186.76l-26.37,7.42c-3.37.95-7,2.1-9,5-2.45,3.65-.72,8.41,0,12.75,3.86,22.75,7.2,37.53,8.79,57,.15,1.87-.88,5.69-3.92,6.81a.37.37,0,0,1-.18,0c-1.93-.27-4.44-1.52-5.33-3.58-17.26-40-26.43-76.21-41.2-116-.55-1.47-2.3,0-3.86-.23-.88-.12-1.4-1-1.78-1.85-.94-2-1.85-4.56-.53-6.37a5.6,5.6,0,0,1,2.64-1.7c5.07-1.88,11-1.93,15.12-5.44,4.54-3.86,5.23-10.59,4.75-16.52-.44-5.55-1.71-11.32-8.85-13.92a11,11,0,0,0-4.21-.6c-4.27.2-7.43-2.34-11.69-2-4.47.37-8.93,1.71-13.37,1s-9-4.37-8.31-8.81c-2.45.75-2,2.86-1.17,5.27a15.26,15.26,0,0,0,5.7,7.34c1.6,1.09,3.66,1.87,5.45,1.12-3.91,2-6.91.09-11.07-1.22a41.16,41.16,0,0,0-29.37,1.92A26.67,26.67,0,0,1,80.64,116a2.88,2.88,0,0,1-2.34,2.06,8.93,8.93,0,0,1-3.29-.18c-6.38-1.13-13-1.6-19.31-.27s-12.44,4.62-16.23,9.87c10-5.43,23-6.2,33-.84-2.29-1.11-4.88.41-7.29,1.21-4.26,1.41-8.88.49-13.35,0a60.55,60.55,0,0,0-18,.91c-5.85,1.18-6.27,1.9-12.24,2.06s-11.44-1.33-20.64-6c9.55,7.61,21.75,11.88,33.93,11,10.46-.71,20.7-4.74,31.14-3.74,7.17.68,14.47,3.71,21.36,1.58,3.82-1.17,7.45-3.91,11.35-3.5a2.4,2.4,0,0,1,2.21,2.2c.1,1.78-1.48,2.34-2.85,2.67a63.65,63.65,0,0,1-13.54,1.73c-3.71.08-7.5-.17-11.07.86s-7,3.7-7.54,7.36c5.22-4.11,13.39-4.46,19.3-1.41,2.3,1.2,4.33,2.9,6.69,4,7.13,3.28,15.43.35,22.7-2.59,4.36-1.76,8.93-3.67,11.8-7.39a13.35,13.35,0,0,0-6.79-21c-5.23-1.54-10.79.22-16,2a19.11,19.11,0,0,1-10.55.72c2.14,1.86,5.08,2.45,7.9,2.82s5.74.58,8.25,1.92,4.48,4.16,3.82,6.92a8.35,8.35,0,0,0-9-5.64c2.59,2,5.83,3.08,5.71,6.37,0,1.42-.67,2.82-.45,4.22a6.08,6.08,0,0,0,2.28,3.45,20.86,20.86,0,0,0,23,2.67c2.1-1.13,4.12-2.81,4.64-5.12a13.72,13.72,0,0,1,2.86,11.52c-5.9,3-12.11,4.24-18.7,5a5.69,5.69,0,0,1-2.9-.2,2.1,2.1,0,0,1-1.33-2.34l9-2.36c2.71-.71,5.52-1.43,8.27-1s5.45,2.5,5.77,5.28a1,1,0,0,1-.26.92c-.27.2-.77-.11-.59-.4.14.49,1.16.41,1.3.89,0,0,21.08,90.49,22.7,99.47s-3.24,1.49-3.24,1.49L145.5,209.77s-2.58-8.7-13.21-5.55S88.17,216.8,88.17,216.8"/></g></g></svg>