<svg xmlns="http://www.w3.org/2000/svg" viewBox="0 0 102 102"><defs><style>.cls-1,.cls-2{fill:none;}.cls-1{stroke:#000;stroke-linecap:round;stroke-linejoin:round;stroke-width:1.5px;}</style></defs><title>podcastsAsset 34</title><g id="Layer_2" data-name="Layer 2"><g id="Layer_1-2" data-name="Layer 1"><path class="cls-1" d="M83.19,70.88a9.33,9.33,0,0,1-1.3-4.75c2.35-2.87,4.3-6.78,4.11-10.49-.11-2.13.07-4.66-1-6.56-.31-.55-2.15-3.28-2.7-1.63.33-1,.25-2.35-1-2.69a1.83,1.83,0,0,0-2.2,1.69,6.66,6.66,0,0,0-.61-2.21A2.23,2.23,0,0,0,76.62,43a2.47,2.47,0,0,0-1.83,1.11c-.44.59-.73,1.28-1.14,1.89a5.54,5.54,0,0,1-2.54,2,1.16,1.16,0,0,1-1,.05,1.29,1.29,0,0,1-.5-.8C68.43,43.43,65.8,36,64.78,32.11a2.37,2.37,0,0,1-.11-.87.92.92,0,0,1,.52-.66,1.63,1.63,0,0,1,1.93.33,35,35,0,0,1,3.1,8,53.91,53.91,0,0,0,2.07,6,4.59,4.59,0,0,0,1.51,1.72c.59.26.84.06.75.82s-.17,1.31-.25,2c-.16,1.31-.33,2.62-.49,3.93,0,.25,0,.59.23.66a.52.52,0,0,0,.46-.16c2.15-1.68,3.28-4.33,4.32-6.86a7,7,0,0,1-.91,4,6.42,6.42,0,0,0-.8,4c0,.11.08.25.19.27s.23-.07.31-.16a26.2,26.2,0,0,0,3.6-5.38,4.29,4.29,0,0,1,.91-1.35c.26.92-.36,1.84-.87,2.66A8.3,8.3,0,0,0,79.82,55c0,.22,0,.51.25.56a.46.46,0,0,0,.37-.14c1.51-1.17,1.85-4,3.52-4.84-.35,1-.68,1.93-1.1,2.85A5.28,5.28,0,0,1,80.73,56a11.6,11.6,0,0,1-2.57.78A7.42,7.42,0,0,0,74,60.44a1.31,1.31,0,0,0,.31,1.47c1.3-1-.5-4.35-1.22-5.38A5.41,5.41,0,0,0,71.47,55a3.09,3.09,0,0,0-2.15-.45c-.33.06-.75.16-.95-.1a.9.9,0,0,1-.11-.27,3.89,3.89,0,0,1,.07-2c0-.14.13-.31.28-.32s.27.16.28.32a3.73,3.73,0,0,0,0,.47.69.69,0,0,0,.51.52,1.67,1.67,0,0,0,.77,0,4.67,4.67,0,0,0,2.91-1.83c.68-1,1-2.69.14-3.67a6.17,6.17,0,0,1-4.1,1.67,4.21,4.21,0,0,0-1.7.3,3.12,3.12,0,0,0-1,.92,21.43,21.43,0,0,0-2.92,5.06,1.25,1.25,0,0,0-.07.47,9.32,9.32,0,0,0,2.25,6.34,27.48,27.48,0,0,0,5,4.71c1.4,1.14,1.26,4.79,1.57,6.46.62,3.26,2.87,13.64-3.86,12.39a4.59,4.59,0,0,1-2.85-2.11,15.45,15.45,0,0,1-2-7.12c-.45-6.79-3-11.28-6.14-17.22A3.08,3.08,0,0,0,56.2,58c-.57-.28-1.56.47-1.35,1.08a43,43,0,0,0,3.83,8.4c-.69-.2-1.38.51-1.45,1.23a3.79,3.79,0,0,0,.63,2c.65,1.2,1.3,2.4,1.94,3.6.32.6.64,1.36.25,1.91q-1.92-3.45-3.72-7a1,1,0,0,1-1.37.35,3,3,0,0,1-1.07-1.13l-5.28-8.07a8.06,8.06,0,0,0-3.77,1.72,7.09,7.09,0,0,0-1.46,2.36c-1,2.3-1.93,4.6-4,6.09a5.38,5.38,0,0,0,2.09-3.34,15.78,15.78,0,0,1,1.22-3.84c1.23-2.16,3.78-3.15,6.17-3.85s5-1.31,6.69-3.09a1,1,0,0,0,.31-.57c0-.21-.25-.14-.47-.12l-1.14.11c-4,.35-8.06.69-11.74,2.27-1,.42-2,1.06-2.17,2.09A58.27,58.27,0,0,1,52.7,55.06a12.49,12.49,0,0,0-14.3,1,11.47,11.47,0,0,1,7.33-3.62,24.41,24.41,0,0,1,8.29.65c.6.13,1.46.08,1.51-.52,0-.4-.36-.69-.7-.88a29.33,29.33,0,0,0-5.09-2.51,9.94,9.94,0,0,0-5.6-.42c-2.48.62-3.92,2.22-6.47,2.4l-.35.26a14.39,14.39,0,0,1,6.75-3.81,51.32,51.32,0,0,1,7.73-1.29A1.86,1.86,0,0,0,53,46c.28-.31.37-.74-.05-.79a67.72,67.72,0,0,1-7.6-1.28,22.42,22.42,0,0,0-4.37-.73l4-.08a.77.77,0,0,0,.42-.1c.11-.08-.3-.54-.41-.63a.35.35,0,0,0,.32.4,18.37,18.37,0,0,0-2.71-4.16,2.62,2.62,0,0,0-1.48-1,2.4,2.4,0,0,0-1.5.4,8.08,8.08,0,0,0-2,1.54,7.2,7.2,0,0,0,3.82-1.85,5.32,5.32,0,0,0,1.21-3.49,9,9,0,0,0-.53-3.7,9.75,9.75,0,0,0-3.83-4.53,6.63,6.63,0,0,0-5.79-.55,5.51,5.51,0,0,0-3.37,4.82c.06,3.18,1.3,6.53,4,8.27,1.09.72,2.61.78,3.27,1.9l2.24,3.84a1.15,1.15,0,0,1,.22.68c0,.24-.21.5-.42.39A19.68,19.68,0,0,0,32.71,50a19.79,19.79,0,0,0-2,3.82c-1.61,3.76-3.23,7.51-4.68,11.34a21,21,0,0,1-1.47,3.32,19,19,0,0,1-2.14,2.75C19.16,75,15.72,78.7,11.28,80.89"/><rect class="cls-2" width="102" height="102"/></g></g></svg>