<svg xmlns="http://www.w3.org/2000/svg" viewBox="0 0 75.61 61.95"><defs><style>.cls-1{fill:none;stroke:#000;stroke-linecap:round;stroke-linejoin:round;}</style></defs><title>podcastAsset 9</title><g id="Layer_2" data-name="Layer 2"><g id="Layer_1-2" data-name="Layer 1"><path class="cls-1" d="M72.29,46.35A9.29,9.29,0,0,1,71,41.61c2.35-2.86,4.3-6.77,4.1-10.47-.11-2.13.08-4.65-1-6.55-.32-.55-2.15-3.27-2.7-1.63.34-1,.25-2.34-1-2.68A1.83,1.83,0,0,0,68.17,22a6.45,6.45,0,0,0-.62-2.2,2.2,2.2,0,0,0-1.82-1.22,2.45,2.45,0,0,0-1.82,1.11c-.44.59-.73,1.28-1.15,1.89a5.56,5.56,0,0,1-2.53,2,1.16,1.16,0,0,1-1,.05,1.29,1.29,0,0,1-.5-.8C57.55,19,54.93,11.56,53.91,7.65a2.37,2.37,0,0,1-.11-.87.94.94,0,0,1,.52-.66,1.61,1.61,0,0,1,1.92.33,34.88,34.88,0,0,1,3.1,8,52.9,52.9,0,0,0,2.07,6,4.57,4.57,0,0,0,1.5,1.72c.59.26.84.07.75.82s-.16,1.31-.25,2c-.16,1.31-.32,2.61-.49,3.92,0,.25,0,.59.24.67s.32-.06.46-.17c2.14-1.68,3.27-4.32,4.3-6.84a6.92,6.92,0,0,1-.9,4,6.43,6.43,0,0,0-.8,4c0,.11.08.25.19.27s.23-.07.31-.16a27,27,0,0,0,3.6-5.37,4.26,4.26,0,0,1,.9-1.35c.26.92-.35,1.84-.87,2.65a8.3,8.3,0,0,0-1.43,3.92c0,.22,0,.51.25.56a.47.47,0,0,0,.38-.14c1.51-1.17,1.85-4,3.5-4.83-.34,1-.67,1.92-1.09,2.84a5.32,5.32,0,0,1-2.12,2.59,11.93,11.93,0,0,1-2.57.78,7.4,7.4,0,0,0-4.2,3.64,1.33,1.33,0,0,0,.31,1.47c1.31-1-.49-4.34-1.21-5.37a5.53,5.53,0,0,0-1.58-1.58A3.09,3.09,0,0,0,58.44,30c-.33.06-.74.17-.95-.1a.79.79,0,0,1-.1-.27,3.85,3.85,0,0,1,.06-2c0-.15.13-.32.29-.33s.26.17.27.33,0,.31,0,.46a.68.68,0,0,0,.51.52,1.55,1.55,0,0,0,.77,0,4.58,4.58,0,0,0,2.9-1.83c.68-1,1-2.67.15-3.65a6.18,6.18,0,0,1-4.1,1.66,4.19,4.19,0,0,0-1.69.3,3.24,3.24,0,0,0-1,.91A21.56,21.56,0,0,0,52.67,31a1.26,1.26,0,0,0-.08.47,9.33,9.33,0,0,0,2.24,6.33,28,28,0,0,0,5,4.7c1.4,1.14,1.27,4.78,1.58,6.45.61,3.26,2.86,13.61-3.85,12.37a4.55,4.55,0,0,1-2.85-2.1,15.45,15.45,0,0,1-2.05-7.12c-.45-6.77-3-11.25-6.13-17.18a3,3,0,0,0-1.21-1.44c-.57-.28-1.56.47-1.36,1.07A43.91,43.91,0,0,0,47.82,43c-.69-.21-1.38.5-1.45,1.21a3.82,3.82,0,0,0,.63,2l1.94,3.59c.32.6.64,1.36.25,1.91q-1.92-3.45-3.72-7a1,1,0,0,1-1.37.35A3.12,3.12,0,0,1,43,44l-5.28-8.06A8.27,8.27,0,0,0,34,37.65,7.29,7.29,0,0,0,32.55,40c-1,2.3-1.93,4.59-3.95,6.09a5.37,5.37,0,0,0,2.08-3.34,16.15,16.15,0,0,1,1.22-3.83c1.24-2.15,3.78-3.15,6.16-3.84S43,33.77,44.74,32a.92.92,0,0,0,.32-.56c0-.21-.25-.14-.47-.12l-1.14.11c-4,.35-8.05.69-11.73,2.27-1,.41-2,1-2.17,2.09a58.56,58.56,0,0,1,12.29-5.21,12.48,12.48,0,0,0-14.27,1.05A11.52,11.52,0,0,1,34.89,28a24.38,24.38,0,0,1,8.28.65c.59.13,1.46.09,1.51-.52,0-.39-.36-.68-.71-.88a29.56,29.56,0,0,0-5.08-2.5,9.87,9.87,0,0,0-5.58-.42c-2.48.62-3.92,2.22-6.47,2.4L26.5,27a14.37,14.37,0,0,1,6.73-3.81A51.38,51.38,0,0,1,41,21.89a1.81,1.81,0,0,0,1.15-.43c.28-.3.37-.74-.05-.78a69.49,69.49,0,0,1-7.59-1.28,22.44,22.44,0,0,0-4.36-.73l4-.08a.68.68,0,0,0,.42-.1c.12-.08-.3-.54-.41-.63a.37.37,0,0,0,.32.41,18.11,18.11,0,0,0-2.7-4.16,2.65,2.65,0,0,0-1.48-1,2.4,2.4,0,0,0-1.5.4A8,8,0,0,0,26.78,15a7.34,7.34,0,0,0,3.82-1.85,5.26,5.26,0,0,0,1.2-3.49A8.7,8.7,0,0,0,31.27,6a9.66,9.66,0,0,0-3.82-4.52A6.6,6.6,0,0,0,21.67.93a5.5,5.5,0,0,0-3.36,4.81c.06,3.18,1.3,6.52,4,8.26,1.09.71,2.6.77,3.26,1.9l2.24,3.83a1.14,1.14,0,0,1,.22.67c0,.24-.21.51-.42.39a19.64,19.64,0,0,0-5.67,4.72,19.67,19.67,0,0,0-2,3.81c-1.62,3.75-3.23,7.5-4.68,11.32A21,21,0,0,1,13.76,44a18.73,18.73,0,0,1-2.13,2.75C8.36,50.42,4.93,54.17.5,56.35"/></g></g></svg>