<svg xmlns="http://www.w3.org/2000/svg" viewBox="0 0 102 102"><defs><style>.cls-1,.cls-2{fill:none;}.cls-1{stroke:#000;stroke-linecap:round;stroke-linejoin:round;stroke-width:1.5px;}</style></defs><title>poetryAsset 31</title><g id="Layer_2" data-name="Layer 2"><g id="Layer_1-2" data-name="Layer 1"><path class="cls-1" d="M17.54,20.06a1.34,1.34,0,0,0,0,2,4.19,4.19,0,0,0,2.1.87A47.31,47.31,0,0,1,37,30.8,117,117,0,0,1,50.71,43a24,24,0,0,1,4.57,6.26,3.35,3.35,0,0,1,.44,1.46l-.49.17-3.95-4.66c-1.11-1.31-2.23-2.62-3.39-3.88a112,112,0,0,0-9.61-8.87c-1.09-.94-2.18-1.87-3.35-2.7a46.18,46.18,0,0,0-4.37-2.65L25.4,25.25a18.07,18.07,0,0,0-6.24-2.52,28.44,28.44,0,0,0,3,6.7,6.69,6.69,0,0,0,2.48,2.63,7.26,7.26,0,0,0,3.34.53,45.35,45.35,0,0,0,7.18-.47c-2.82.76-5.05,1.3-7.86,2.06a.91.91,0,0,0-.48.24c-.33.37.08.92.47,1.23,2.85,2.25,6.18,3.83,9.18,5.88,2.49,1.71,4.74,3.75,7.1,5.64,2.9,2.32,6.4,4.53,10.07,3.95a14,14,0,0,0,1.84-.22,46.2,46.2,0,0,1,2.26,4.15,3.87,3.87,0,0,0,.73,1.16,2.23,2.23,0,0,0,1.94.52,3.5,3.5,0,0,0,1.79-1,3.47,3.47,0,0,1,.86-.72c.19-.09.45-.1.54.08s0,.34-.15.48c-1.8,2.06-4.64,2.87-7.34,3.31a14.78,14.78,0,0,1-2.82.24A2.8,2.8,0,0,1,51,58.22a2.12,2.12,0,0,1-.23-1.79,4.4,4.4,0,0,1,1-1.59,10.22,10.22,0,0,1,10-3.16,6.59,6.59,0,0,1,1.88.77,3.41,3.41,0,0,1,1.45,2.29,6.16,6.16,0,0,1-1.18,4.78.59.59,0,0,0-.17.32.58.58,0,0,0,.09.34,10.59,10.59,0,0,0,3.08,3.63c.16.12.35.24.53.16s.18-.56,0-.83a11.78,11.78,0,0,0-2-2,1.76,1.76,0,0,1-.48-1.9,5,5,0,0,1,1.19.91A11.51,11.51,0,0,0,73.08,63a2.14,2.14,0,0,1,1.47,1.91,47.28,47.28,0,0,1,.84,8,5.91,5.91,0,0,1-.16,1.73,4.91,4.91,0,0,1-1.41,2,10.79,10.79,0,0,1-2.15,1.57A79.13,79.13,0,0,1,62,83a17.41,17.41,0,0,1-3.15,1,2.71,2.71,0,0,1-.75,0,3.77,3.77,0,0,1-1.25-.42L48.7,79.79a1.11,1.11,0,0,1-.48-.34,1,1,0,0,1-.14-.55q-.37-5.81-.46-11.62a1.33,1.33,0,0,1,.14-.74,1.29,1.29,0,0,1,.49-.4,44.14,44.14,0,0,0,5.33-3.56.61.61,0,0,0-.13-1,5.48,5.48,0,0,1-1-.6,3.23,3.23,0,0,1-1.3-2,9.83,9.83,0,0,0,3.19,2.34,1.6,1.6,0,0,1,.49.28,1.13,1.13,0,0,1,0,1.5,3.85,3.85,0,0,1-1.36.9A14.92,14.92,0,0,0,49,67.17a.39.39,0,0,0-.09.43.45.45,0,0,0,.24.16,36.44,36.44,0,0,0,7.14,2.14c1.28.25,2.29.45,2.81,1.65a3.72,3.72,0,0,1,.21,1.56c0,2,0,3.9,0,5.85a5.06,5.06,0,0,0,.19,1.74,1.7,1.7,0,0,0,1.2,1.17c.6-1.47.36-3.13.29-4.72A20.56,20.56,0,0,1,61,73.82a3,3,0,0,1,.4-1.38,3.31,3.31,0,0,1,1.29-1q9.81-5.13,19.82-9.83"/><rect class="cls-2" width="102" height="102"/></g></g></svg>