<svg xmlns="http://www.w3.org/2000/svg" viewBox="0 0 800.88 556.43"><defs><style>.cls-1{fill:none;stroke:#000;stroke-linecap:round;stroke-linejoin:round;stroke-width:2px;}</style></defs><title>storytellingAsset 20</title><g id="Layer_2" data-name="Layer 2"><g id="Layer_1-2" data-name="Layer 1"><path class="cls-1" d="M106.44,135.93c2.73-.72,4.36-3.46,5.57-6a97.56,97.56,0,0,0,6.7-18.74c.6-2.45,1.13-5,2.51-7.09,2.88-4.41,8.63-5.84,13.86-6.45.78-2.94-2.42-5.27-5.14-6.63l-19.46-9.75c-2.83-1.42-5.84-3-7.3-5.81-1.2-2.31-1.14-5-1.05-7.64.29-8.69,1.44-18.88,8.94-23.28,1.78-1,4.07-2,4.36-4a5.12,5.12,0,0,0-1.33-3.57,36,36,0,0,0-23-14c-1.87-3.07-.68-7.25,1.79-9.86s5.91-4,9.24-5.36c11.28-4.51,20.68-9.66,32.64-4.5a30.59,30.59,0,0,1,12.5,10c2.9,4,5.13,8.86,9.6,10.88,3.45,1.56,7.87,1.16,10.57,3.82a35.73,35.73,0,0,0,2.46,2.75c2.21,1.76,5.43,1.12,8.16.38,3.87-1,7.79-2.1,11.23-4.15,4.89-2.92,6.91-4.95,12.52-4.15,5.39.78,11.15.7,15.25,4.89a7.79,7.79,0,0,1,2.11,3.56c.8,3.33-1.4,6.6-3.79,9s-5.22,4.74-6.19,8a5.59,5.59,0,0,0,1,5.38C209.51,56,212,57,214.1,58.42s4.65,2.74,5.54,5.15c.69,1.88.21,4,.85,5.92.87,2.6,3.8,4.9,2.78,7.45"/><path class="cls-1" d="M69.56,303.83c-2.12,8.73-8.12,7.4-10.86,9.26-2.41,1.64-4,4.41-6.68,5.56-4.94,2.13-10.1-2.23-13.72-6.21L17.23,289.29c-2.15-2.36-4.12-6.51-1.42-8.2a5.22,5.22,0,0,1,3.11-.48c4.45.29,9.24,1.2,13.16-.95s5-9.15.71-10.54c-3.74-1.22-6.95,2.9-10.68,4.14-6,2-11.62-3.62-15.46-8.65C3.1,260-.63,254.05,1.75,248.72L12,251.59c0-2.92.07-5.85.1-8.77L33,246a10,10,0,0,0,3.85.07c2.12-.52,3.67-2.36,5.72-3.11s5.13.83,4.3,2.84c1.37,1.71,4.36,1,5.59-.77s1.19-4.18.89-6.34A37.29,37.29,0,0,0,41,215.82c-2.1-1.82-4.64-4-4.25-6.73.22-1.47,1.28-2.73,1.4-4.21.36-4.35-6.47-5.15-8.87-8.8-2.81-4.26,1.59-9.51,5.58-12.68l13-10.33c1.75-1.39,4.18-2.82,6-1.57,2.84,1.92,0,6.85,2,9.66,0,0,5.1,12.55,18.37,3.51,5.38-3.67,1.91-13.87,2.48-19.43a9.7,9.7,0,0,1,.7-3.12,3.44,3.44,0,0,1,2.37-2c1.25-.22,2.19-1.76,3.17-2.57s2.09-1.75,3.14-2.62A11.55,11.55,0,0,0,88.93,152c1-1.78,1-4,1-6a2.55,2.55,0,0,0-.26-1.32,3.93,3.93,0,0,0-1.06-.92c-1.87-1.46-1.81-4.25-1.58-6.61l-4.53-.71a5.52,5.52,0,0,0,5.58-1.25c.41-8.6.53-17.15.48-25.75a25.37,25.37,0,0,0,3.76-5.61,3.87,3.87,0,0,0,.56-1.79,1.45,1.45,0,0,0-1-1.43,1.74,1.74,0,0,0-1.71,1.08,11.67,11.67,0,0,1-1,1.94A2.37,2.37,0,0,1,85,101.51a13,13,0,0,1,2.6,2.74,19.79,19.79,0,0,1-1-3.63,8.42,8.42,0,0,1,2.57,2.54c-.44-1.4-.89-2.79-1.33-4.18A7.42,7.42,0,0,1,92,100.2l-.15-.51C91.52,98.61,91,97,90,96.54a4,4,0,0,0-3.29,0,5.35,5.35,0,0,0-3.13,5.37c.13,1.19.67,2.31.87,3.5a12.25,12.25,0,0,1-.21,3.91l-.9,5.67a8.64,8.64,0,0,0,4.61.68,22.33,22.33,0,0,0-3.91-.38,2.45,2.45,0,0,0-2,.66c-.24,2.4-.23,4.45-.47,6.85-.12,1.17-.23,2.33-.35,3.5l-1,10.3c-.57,5.81-.48,11.89-1.25,17.67a8.35,8.35,0,0,0-.06,3,2.77,2.77,0,0,0,1.91,2.16,3.57,3.57,0,0,0,2.5-.68,13.7,13.7,0,0,0,6.27-13c-.32-2.74-1.49-5.36-1.54-8.12a10.5,10.5,0,0,1,7.56-10.07,8.94,8.94,0,0,1,5.62.32,2.58,2.58,0,0,1,1.06.71,3.47,3.47,0,0,1,.55,1.41,9.19,9.19,0,0,0,1,2.43,3.88,3.88,0,0,0,1,1.14c.1.09.8.82.73.86-.39.22-.67,0-1.22.12a3.78,3.78,0,0,0-1.38.32,4.12,4.12,0,0,1,3.58,1.43,2.29,2.29,0,0,1-1.25,3.3c-1.29-.3.26-2.63-.75-3.23a1.11,1.11,0,0,0-1.41.5,3.15,3.15,0,0,0-.29,1.61,3.54,3.54,0,0,0,.51,2.32c.83,1,2.7,1.06,3.1,2.32.32,1-.65,2-1.39,2.8a8.36,8.36,0,0,0-1.94,3.64,2.93,2.93,0,0,0-.59-2.6,3,3,0,0,0-1.27-.5c-1.86-.41-3.71-.88-5.54-1.37s-4-.73-5.66-1.75a4.72,4.72,0,0,1-1.89-4,4,4,0,0,1,.53-2.17,2,2,0,0,1,1.9-1c.76.09,1.78.6,2.11-.09-.17-.93-.32-1.63.29-2.36.44-.52,1.06-.95,1.22-1.61a7.47,7.47,0,0,0,0-1.16,3.14,3.14,0,0,1,2.8-2.65,9.16,9.16,0,0,1,3.84.56.5.5,0,0,1,.29.71c-.16.34-.56.43-.88.51a10,10,0,0,0-3.08,1.22,1.38,1.38,0,0,0-.48.45c-.41.69.43.93.94.93a21.65,21.65,0,0,1,4.11.23,4.85,4.85,0,0,1-4,1.2c-1-.27-2,.4-2.76,1-.43.33-.88.63-1.29,1-.19.16-.46.3-.32.5s.52.17.68.32a1.84,1.84,0,0,1,.45.68,2.78,2.78,0,0,1,.15,1.66,5.12,5.12,0,0,0-2.93-.82c-1,.13-2,1.21-1.59,2.16s2,1.08,2.76,1.89c1.24,1.25.21,3.66,1.38,5a3.79,3.79,0,0,0,1.42.85l2.73,1.12a6.35,6.35,0,0,1,2.19,1.25,2.15,2.15,0,0,1-.33,3.28c-.43.35-.91.63-1.32,1a1.53,1.53,0,0,1-.36.28c-.32.15-.58-.1-.78-.32-1.53-1.66-3.27-3.1-4.79-4.79.91,2.28,1.82,4.57,2.74,6.85.54,1.37,1.19,2.85,2.49,3.53,1.77.91,4-.11,5.17-1.74a11.42,11.42,0,0,0,1.6-5c.05-.38-.11-1.1.17-1.4a.59.59,0,0,1,.5-.15,2.36,2.36,0,0,1,1.17.58A11.82,11.82,0,0,1,109.55,167a12.58,12.58,0,0,0-1.25,2.62c-.49,2,.6,4.08.24,6.09a4.39,4.39,0,0,1-2.48,3.19,4.75,4.75,0,0,0-1.51.8,2,2,0,0,0-.18,2.24,5.93,5.93,0,0,0,1.57,1.78c-.18-.16-1.65,1-1.83,1.13a6.65,6.65,0,0,0-1.21,1.1c-.21.27-.11.51.19.63a4.18,4.18,0,0,0,1.2.23c.56.05,1.29.36,1.8,0a1.3,1.3,0,0,0,.37-.52,24.05,24.05,0,0,0,1.06-3.57c.35-1.29.68-2.6,1-3.9.61-2.62,1.13-5.26,1.54-7.92a.22.22,0,0,1,0-.08,105.3,105.3,0,0,0,1.16-13.61,4.51,4.51,0,0,1,3.7,2.72,11.93,11.93,0,0,1,.9,4.71c.21,4.95.33,15.25,0,20.19"/><path class="cls-1" d="M109.35,440.36c0-12.54-9.57-19.95-13.29-27.08-5-9.53-10.78-16.44-9.43-27.09"/><path class="cls-1" d="M125.52,474.19c3.12,3.19,2.41,5.39,4.7,9.23,1.41,2.37,2,5.15,2.7,7.82a61.84,61.84,0,0,0,10.62,21.43c9.15,11.89,8.32,28.11,18.29,39.33a9.45,9.45,0,0,0,4.42,3.26c4.32,1.12,7.8-3.51,9.74-7.54,2.22-4.6,4.32-9.42,7.95-13s9.3-5.72,14-3.65a32,32,0,0,1,1.51-19.87c5.57,2.34,12.82-1.26,14.32-7.11,1-4-.32-8.1-1-12.14a37.34,37.34,0,0,1,5.86-26.68c1.78-2.62,3.93-5.09,4.85-8.12,1.27-4.18,0-8.65-1.33-12.81-2-6.19-4-12.53-3.68-19s.29-11.22,6.38-13.48c0,0,3.84-1.6-1.43-5.24s-1.72-1.54,0-7.23,7.07-9.48,12.38-12.17c4.71-2.4,14.15-5.25,16-10.82.82-2.54.9-5.36,2.29-7.64.78-1.29,2-2.32,2.7-3.62s1-3.13-.08-4.21c-.78-.81-2.05-1-2.85-1.77-1-1-.94-2.67-.78-4.11.18-1.7.78-3.83,2.47-4s2.85,1.94,4.53,2.47a4.19,4.19,0,0,0,3.77-1.14c1-.89,1.86-2,3-2.85,2.13-1.6,5.35-2.17,6.26-4.68a2.51,2.51,0,0,0,0-1.77c-.58-1.45-2.71-1.63-4-.79s-2.06,2.31-2.89,3.63a21.21,21.21,0,0,1-6.87,6.72c-1.63,1-3.46,1.79-4.64,3.29a9,9,0,0,0-1.55,5.66c0,6.05,2.11,11.55,2.11,17.6,0,2.39.74,4.71,1.09,7.07s.22,5-1.26,6.85a9.29,9.29,0,0,1-3.66,2.52,25,25,0,0,1-4.86,1.55,3,3,0,0,0-1.25.46c-.94.71-.68,2.14-.78,3.31a4.6,4.6,0,0,1-1.3,2.81c-.4.4-.87.72-1.23,1.15-1.25,1.48-.9,3.67-.64,5.59a33.34,33.34,0,0,1-.21,10.07,8.26,8.26,0,0,1-2.27,5,1.41,1.41,0,0,1-.85.4c-.69,0-1.06-.82-1.21-1.49a24.65,24.65,0,0,1,.64-13.22c.87-2.61,2.19-5.38,1.27-8-.73-.17-1.13.8-1.19,1.54-.41,5.53,1.79,11.46-.69,16.41-1,1.92-2.61,3.64-2.64,5.78a21.09,21.09,0,0,1,.16,2.74c-.13.9-1,1.82-1.86,1.51s-1.09-1.23-1.81-1.93c-2.6-2.5-2.66-6.63-1.92-10.15s2.1-7,1.72-10.61c-.56-5.26-3.37-9.86-3.09-15.32a28.18,28.18,0,0,1,2.22-9.61c1-2.26,2.23-4.44,2.65-6.86.8-4.56-1.5-9.18-1-13.79a11.64,11.64,0,0,1,3.91-7.46c2.69-2.32,6.37-3.31,8.91-5.79,2-2,3.12-4.68,4.45-7.18a15.48,15.48,0,0,1,4.95-6.1c5.36-3.64,12.52-3.1,18.76-1.42a61,61,0,0,1,10.63,4c2.84,1.38,5.94,3.58,5.9,6.74a2.4,2.4,0,0,1-2.18,2.57c-2.07.4-4.17-.67-5.77-2.05s-2.9-3.09-4.58-4.38-3.93-2.11-5.91-1.36c.22,1.89,2,3.27,3.83,3.76a22,22,0,0,0,5.68.27c1.91,0,2.73-.45,4.34.56A10.3,10.3,0,0,1,288.4,352a30.72,30.72,0,0,1,0,8.35.7.7,0,0,1-.17.47c-.35.29-.75-.28-.87-.71a11.4,11.4,0,0,0-5.76-7.12,2.76,2.76,0,0,0-2.4-.3,2,2,0,0,0-.64,2.64,3.32,3.32,0,0,0,2.52,1.5.76.76,0,0,0,.61-.12.73.73,0,0,0,.15-.48c0-1.53-1.22-2.78-2.53-3.55a10.21,10.21,0,0,0-6.55-1.29c-1,.13-.87.22-1.67.73-.61.39-1.18,1.18-.78,1.78a1.43,1.43,0,0,0,1,.5,34.26,34.26,0,0,1,3.51.4,2.75,2.75,0,0,1,2.22,2.42,1.08,1.08,0,0,1-.42.89,1.45,1.45,0,0,1-1,.1,26.2,26.2,0,0,1-5.76-1.81c-.37-.15-.11-.11-.5-.1a3.12,3.12,0,0,0,1.56,3.06,6.49,6.49,0,0,0,4.79,1c1.68-.31,3.51-1.25,4.95-.35s1.45,3.1,2.69,4.27a2.74,2.74,0,0,0,2.22.69.77.77,0,0,0,.52-.24.8.8,0,0,0,.13-.43,5.83,5.83,0,0,0-.87-3.71,1.63,1.63,0,0,0-1.31-.92c-.87,0-1.22,1.13-1.26,2a14.41,14.41,0,0,0,1.08,6.12c.58,1.4-.21,2.46-1,3.77A17,17,0,0,1,280,375a4,4,0,0,1-2.62,1.45,4.1,4.1,0,0,1-2.73-1.74q-1.59-1.83-3.11-3.72a1.53,1.53,0,0,1-.46-1.07,1.73,1.73,0,0,1,1.58,0,11.3,11.3,0,0,0,1.5.7,17.68,17.68,0,0,0,2.06.15c.69.11,1.42.6,1.4,1.29a1.58,1.58,0,0,0,0,.53c.1.34.53.44.78.69a1.06,1.06,0,0,1,.12,1.16,4.15,4.15,0,0,1-.72,1,8.17,8.17,0,0,0-1.82,4.15,4,4,0,0,1-3.21,3,7.61,7.61,0,0,1-4.43-.7,18.36,18.36,0,0,1-9.46-9.23c-.5-1.1-.67-2.77.47-3.17.84-.3,1.68.41,2.19,1.14,1.92,2.77,2,6.37,2.25,9.73.35,3.83,1.17,7.73,3.28,11,1,1.47,2.44,2.88,4.19,2.75a5.88,5.88,0,0,0,3.4-2c0,.76.93,5.09,2.5,4.8,3.86-.87-.85-4.71.14-5a7.61,7.61,0,0,1,2.49.24,3.1,3.1,0,0,0,2.81-4.82,10.3,10.3,0,0,1-3.79,3.24,5.78,5.78,0,0,1,5-6.94c2.24-.12,4.38,1.11,6.62,1.09a1.21,1.21,0,0,0,.68-.17c.88-.63-.66-2.08-.15-3s1.8-.2,2.48.53a9,9,0,0,1,2.12,3,3.08,3.08,0,0,1-.76,3.41c-.35.27-.8.45-1,.83a2,2,0,0,0-.17,1.16c.07,1.2.13,2.4.2,3.6a11.14,11.14,0,0,1-1.89,7.49,8.25,8.25,0,0,1-7.08,3.48,12.53,12.53,0,0,1-4.93-1.78,29.11,29.11,0,0,1-7.12-5.22c-6.19-6.51-8.35-21.08,1.08-25.57a20.63,20.63,0,0,1,13.43-1.73,15.17,15.17,0,0,1,10.41,8.3,12,12,0,0,1-2,12.87c-.14-1.29,1.35-2.15,2.65-2.3a9.8,9.8,0,0,1,6.84,2.14,25.65,25.65,0,0,1,5,5.37,13.27,13.27,0,0,1,2.75,5.25,8.44,8.44,0,0,1-3.52,8.06,13.89,13.89,0,0,1-8.8,2.36,41.16,41.16,0,0,1-9.1-1.71c-3-.79-5.15-3.25-6.93-5.74-.3.94-1.68,1-2.53.49a17.24,17.24,0,0,0-2.42-1.69c-1.29-.48-3,0-3.89-1.06s-.11-2.43.79-3.28a6.94,6.94,0,0,1,11,1.87,1.9,1.9,0,0,1,.24,1.47c-.19.48-.89.75-1.23.37a2.18,2.18,0,0,1,.74-3,7.11,7.11,0,0,1,3.33-.86,36.22,36.22,0,0,0,5.37-1c2.26-.59,5.06-1.27,6.61.48a1.41,1.41,0,0,1,.4.85c0,.87-1.13,1.21-2,1.19-2.21-.05-4.71-1-5.34-3.16-.58-2,.77-4.09,2.53-5.19,3.13-2,7.06-1.09,12,4.28"/><path class="cls-1" d="M457.62,142.31c4.49.46,8.14-5.45,12.5-6.64,3.6-1,7.37,1.73,8.89,5.13s1.36,7.3,1.16,11c3.56.83,7.34,0,10.92.73s7.13,4.35,5.66,7.69c-.61,1.38-1.95,2.4-2.24,3.87-.5,2.53,2.33,4.62,2.39,7.2.07,3.09-3.81,4.77-6.89,4.39s-6-1.95-9.07-1.78c-4.76.26-8.26,4.41-11.14,8.21-3.35,4.42-6.8,9.08-7.7,14.56s.85,11.47-1.46,16.54c-1.24,2.71-3.5,4.82-4.87,7.46-2.13,4.13-1.84,9-2.6,13.63s-3.4,9.62-8,10.26c-1.39.2-2.89,0-4.14.63-2,1-2.33,3.79-1.77,6s1.74,4.19,1.92,6.42c.44,5.46-5.11,9.82-5.42,15.29-.17,2.9,1.18,5.66,1.58,8.53s-.72,6.47-3.56,7-5.2-2.18-6.42-4.79c-5.14-11-2.66-24.68-9-35-4.09.73-5.15,6.1-4.88,10.25s.52,9.23-3,11.45c-4.26-4-8.68-8.27-10.34-13.86s.65-12.82,6.26-14.43c2-.58,4.4-.46,5.92-1.91,2.16-2,2.5-6.87,5.42-6.34-2.14-2.65,1.82-7.44-.7-9.74-1-.91-2.52-.84-3.86-.72L393.6,225.2c-4.28.4-8.84.75-12.66-1.24s-6.22-7.27-3.68-10.75a9.69,9.69,0,0,1-10.09-3.57,8.21,8.21,0,0,0-1.9-2.27,5.72,5.72,0,0,0-3.8-.41l-12.33,1.51c1.48,4.59,3.53,9.49,6.75,13.07,3.56-1.09,6.91,3.56,5.59,7s-5.57,5.09-9.26,4.62c-1,1.94.93,4.18,3,5s4.41,1.08,5.94,2.65c3.17,3.25.12,8.66.7,13.16a18.83,18.83,0,0,0,1.9,5.29,53.25,53.25,0,0,1,4.71,25.31,7.11,7.11,0,0,1-1.23,4.18c-1.11,1.33-2.95,1.72-4.64,2.09a70.53,70.53,0,0,0-21,8.41c-3,1.82-6.07,4.09-7.18,7.43-1.35,4.07.55,8.61-.45,12.78-2.48,10.33-18.45,9.61-25.16,17.85-2.48,3-3.41,7-5.21,10.53-2.38,4.6-10.4,10.35-15.12,12.47"/><path class="cls-1" d="M350.2,236.75a1.49,1.49,0,0,0-.87,1.51,106,106,0,0,1-2,39c-.42,1.77-.89,3.53-1.23,5.32-.08.43-.06,1,.36,1.11a.72.72,0,0,0,.51-.1c1.33-.68,1.72-2.36,2-3.84,1.16-7.24,2.87-13.85,2.47-21.18q-.48-8.87-1.18-17.71a33,33,0,0,0-.67-5c-.34-1.38-.87-2.71-1.21-4.09a23.67,23.67,0,0,1-.25-8.88,15.42,15.42,0,0,1,2.08-6.58c.82-1.25,2-2.33,2.41-3.75s-.19-3.37-1.67-3.53a1,1,0,0,0-.75.18,1.22,1.22,0,0,0-.3.47c-1.13,2.63-.21,5.67-.5,8.52-.19,2-1,3.86-1.32,5.83a22.72,22.72,0,0,0,.31,7.75,5.93,5.93,0,0,0,.8,2.41,2.11,2.11,0,0,0,2.19,1c.93-.27,1.39-1.29,1.73-2.21l1.11-3a5.07,5.07,0,0,0,.45-3.16c-.31-1-1.65-1.81-2.51-1.14a2.05,2.05,0,0,0-.66,1.19c-.38,1.49-.26,3.28-1.41,4.29-1.25-1.31-2.4-3-2.11-4.8a6.81,6.81,0,0,1,.6-1.67c1.08-2.36,2.15-4.73,3.23-7.09.29-.64.72-1.37,1.42-1.4a1.86,1.86,0,0,1,.93.3,82.34,82.34,0,0,1,8.67,5.26,3,3,0,0,0-1.53-2.1c-.76-.48-1.62-.77-2.41-1.18a12.88,12.88,0,0,1-3.59-3,3.1,3.1,0,0,0-1.38-1.09c-1.13-.32-2.16.71-2.84,1.67a31.84,31.84,0,0,0-4.27,8.45c-.23.67-.83,1.52-1.43,1.14-.32-1.66,1.34-3,1.93-4.56.37-1,.3-2.14.64-3.16a8.24,8.24,0,0,1,2-2.9l2.57-2.8a.7.7,0,0,1,.5-.3.75.75,0,0,1,.36.17l9.21,6.79a5,5,0,0,1,1.84,2,1.72,1.72,0,0,1-.82,2.29,2.29,2.29,0,0,1-.48,2.65,2.39,2.39,0,0,0-.64.67,2.42,2.42,0,0,0,.07,1.3,5.2,5.2,0,0,1-.45,2.41c-2.19,6.4-1.41,13.4.11,20a169.06,169.06,0,0,1,4,21.48,56.24,56.24,0,0,1-1.64,21.66c-1.17,3.9-3,7.79-6.27,10.26a2.13,2.13,0,0,1-2.64.28,13,13,0,0,1-5.44-4.93,40.23,40.23,0,0,1-3.23-6.71c-1.67-4.13-3.41-7.91-4.77-12.16a91.29,91.29,0,0,1-3.11-12.94,16.48,16.48,0,0,1-.29-4.37,24,24,0,0,1,1.29-4.74c1.7-5.32,2.15-11,3.87-16.3.77-2.4,1.8-5,.76-7.33-1.37,6.74-2.33,13.27-5.25,19.5-5.5,11.72-6.72,24.58-8.75,37.37-1.64,10.29-4.7,20.3-7.83,30.24a11.4,11.4,0,0,1-2.06,4.31,3.88,3.88,0,0,1-4.32,1.24,1.67,1.67,0,0,1-.76-.63,2.25,2.25,0,0,1-.05-1.54,132.84,132.84,0,0,0,1.62-40.24c-1.48.72-2,2.54-2.33,4.15-2.78,13.51-3.67,27.33-4.55,41.1q-4.71-27.92-7.83-56.05c-.33,11.32,1.56,22.58,3.66,33.72,1.37,7.23,2.83,14.59,2,21.91-2.93-.61-4.14-4-5-6.89-4-12.91-11.39-24.42-18.74-35.75a5,5,0,0,0-2.28-2.25c-.34,1.51.56,3,1.39,4.28,8.37,13.24,12.45,28.79,20.51,42.21-12.89-6.56-21.88-19-34.25-26.47,10.6,7.17,21.24,14.38,30.68,23a60,60,0,0,1-8.37-2c-9.19-2.71-18.44-5.44-26.93-9.86a30.8,30.8,0,0,0-3.85-1.83l5.84,4.4c-2.05.85-4.29-.6-6-2s-3.65-3.1-5.84-2.69c-1.84.34-3.13,2.13-3.56,4a23,23,0,0,0-.2,5.63c0,1.26-.16,2.74-1.25,3.39a25.2,25.2,0,0,1-.73-7.42,8.54,8.54,0,0,1,3.44-6.38c2.23-1.46,5.49-1.64,6.76-4,.72-1.34.92-3.42,2.43-3.59a21.26,21.26,0,0,0-1.55,6.76c.7.12,1.9-.17,1.92-.87a47.84,47.84,0,0,0-.36-8.55A80.35,80.35,0,0,0,260.1,294c-.86-3.15-1.46-6.36-2-9.57-1.22-6.95-2.08-13.18-1.7-20.22a153.54,153.54,0,0,0-.21-19.66q1.32,2.5,2.76,4.95c.33.56.79,1.19,1.44,1.14s.87-.51,1.11-1a11.76,11.76,0,0,0,1-3.89,177.07,177.07,0,0,0,1.29-22.32,34.42,34.42,0,0,0-1.45-11.22q-.45,15.58-.91,31.17a26.3,26.3,0,0,1-.61,5.81,4.18,4.18,0,0,1-1.7-1.41,24.58,24.58,0,0,0-3.71-4.67,3.41,3.41,0,0,0-2-1.17,3.45,3.45,0,0,0-1.85.65c-2.72,1.65-5.18,3.7-7.9,5.35-6,3.6-12.93,5.08-19.29,7.91a3.58,3.58,0,0,0-2.16,1.82,3.76,3.76,0,0,0-.06,1.67,113.22,113.22,0,0,1,.73,14.5c-.05,4.09-.32,8.19.24,12.24s2.5,7.42,4.78,10.81a36.54,36.54,0,0,0,7.86,8.41,7.67,7.67,0,0,1,2.36,2.42,7.35,7.35,0,0,1,.57,2.36,40.52,40.52,0,0,0,2.69,9.91,3.18,3.18,0,0,0,1,1.45,1.12,1.12,0,0,0,1.56-.21c.29-.49,0-1.1-.28-1.59l-5.34-9.37a.72.72,0,0,0-.37-.38c-.45-.12-.61.58-.52,1a25.59,25.59,0,0,0,5,10.7,3.51,3.51,0,0,1,1.07,2.21c-.07,1.32-1.75,2-3,1.72a13.91,13.91,0,0,1-3.49-1.88,6.39,6.39,0,0,0-4.32-.88,8.72,8.72,0,0,1-2.24.4c-1.42-.1-2.8-1.47-4.07-.83-.33.16-.61.46-1,.52-1,.16-1.4-1.36-2.34-1.71a7.86,7.86,0,0,0-1-.15c-1.21-.27-1.67-1.74-1.92-3-1.22-5.85-2-11.07-4.68-16.43a83.92,83.92,0,0,1-5.52-14.29c-.56-2-1.06-4-1.55-6q-1.34-5.43-2.66-10.85c-.33-1.34-.66-2.68-.9-4a58.92,58.92,0,0,1-.67-7,34.79,34.79,0,0,1,.35-9c.95-4.41,4.06-7.44,7.09-10.56a60.49,60.49,0,0,1,11.09-9.09,48.69,48.69,0,0,1,9-4.47,42.15,42.15,0,0,1,4.8-1.46c1.46-.35,3-.31,4.28-1.18a10.48,10.48,0,0,0,2.14-2.31A23,23,0,0,1,258.24,213c.88-.09,2-.33,2.14-1.21a2,2,0,0,1,.09-.5c.16-.31.58-.34.93-.33,3.65.13,7.22.34,10.87.47l11.38-3.57a14.38,14.38,0,0,0,5.47-2.62c1.52-1.36,2.41-3.64,1.55-5.48-.41-.87-1.19-1.79-.79-2.67a6.57,6.57,0,0,1,.84-1,2.76,2.76,0,0,0,.06-2.87,18.28,18.28,0,0,0-1.76-2.45c-2.11-2.9-2.46-6.68-2.74-10.26a6.74,6.74,0,0,1,.13-2.61,2.3,2.3,0,0,1,1.84-1.66c2.15-.17,2.93,3.44,5.08,3.58a2.83,2.83,0,0,0,2.52-1.95c1.09-2.55.34-5.86,2.21-7.9.71-.78,1.71-1.25,2.46-2a8.52,8.52,0,0,0,1.67-3c1.46-3.7,3.24-7.94,7.05-9.07a12.76,12.76,0,0,1,5.26,0c2,.27,4.09.58,5.7,1.78a11.26,11.26,0,0,1,2.64,3.25c1.17,1.91,2.27,3.87,3.29,5.86a7,7,0,0,0-.69-5.95,5.57,5.57,0,0,1-.92-1.71c-.18-.9.28-1.81.26-2.74a4,4,0,0,0-1.7-2.87c-3.29-2.59-8-2.16-11.92-3.59-2-.73-4.07-2-6.1-1.36-1.55.47-2.64,1.94-4.2,2.39a21.13,21.13,0,0,1-2.77.29,8.31,8.31,0,0,0-4.89,3.2c-1.28,1.52-2.32,3.25-3.74,4.65a19.84,19.84,0,0,0-1.95,1.94,8.94,8.94,0,0,0-1.38,6.15,44.6,44.6,0,0,1,.45,6.42c-.14,1.75-.69,3.45-.93,5.19a15,15,0,0,0,2.14,10c.91,1.45,2.13,3,1.72,4.66-.3,1.21-1.44,2.21-1.3,3.45.17,1.54,2.3,2.76,1.62,4.15-.49,1-2,.92-2.82,1.72a1.68,1.68,0,0,0-.25,1.95c.35.61,1.22,1.41,1.89,1.21,1.71-.51,3.56-1.18,4.47-2.72s.65-3.2.44-4.84l-1-7.9a1.1,1.1,0,0,0-.61-.94,18.55,18.55,0,0,1-3.12-2.95,4.76,4.76,0,0,1-1-1.55,5.24,5.24,0,0,1-.22-1.53c-.07-1.28-.14-2.57-.2-3.85-.05-.9,0-2,.8-2.43a1.7,1.7,0,0,1,2,.55,6.46,6.46,0,0,1,1,2A14.26,14.26,0,0,0,293,183c.71-.11.93-1.46,1.61-1.23.36.11.42.59.66.88.54.63,1.63.05,1.94-.72a16.71,16.71,0,0,1,.67-2.38c.67-1.13,2.21-1.32,3.52-1.35a41.55,41.55,0,0,1,5.8.21c2.26.28,4.67.82,6.72-.16.37-.18.68-.81.28-.9-1-.24-2,.56-3,.66a4.26,4.26,0,0,1-1-.06l-3.31-.43a45.93,45.93,0,0,0,7-.34,1,1,0,0,0,.72-.3.68.68,0,0,0-.27-.9,2.48,2.48,0,0,0-1-.3,3.54,3.54,0,0,1-2.18-1.25A2.12,2.12,0,0,1,311,172a10.39,10.39,0,0,0,5.07.85,12.42,12.42,0,0,0-8.16-1.9c-.08.3.21.6.52.68s.64,0,.95.11c1.15.26,1.41,1.75,1.42,2.92-1.62-.13-2.9,1.25-4.3,2.08a7.05,7.05,0,0,1-5.46.73,2.6,2.6,0,0,1-1.64-1.07,3.22,3.22,0,0,1-.2-1.9,9.74,9.74,0,0,1,1.27-4.64c1-1.5,2.86-2.37,3.65-4a18.92,18.92,0,0,0,.8-3.28c.89-3.22,4.25-5.31,7.58-5.57s6.6,1,9.55,2.56A6.73,6.73,0,0,1,324,161a6.53,6.53,0,0,1,1.12,2.31,35.41,35.41,0,0,1,1.53,8.16,1.56,1.56,0,0,1-.15,1c-.29.45-.91.51-1.44.58a4.76,4.76,0,0,0-2.52,1,2.59,2.59,0,0,0-1,2.42,5.9,5.9,0,0,1,2.68-1,2.46,2.46,0,0,1,1.54.24,1.2,1.2,0,0,1,.6,1.34.79.79,0,0,1-1.26.35.86.86,0,0,1-.8.77.84.84,0,0,1-.85-.71l-2.27.34a5.68,5.68,0,0,0,5.08.6,14.29,14.29,0,0,1-.2,2,2.85,2.85,0,0,0,.5,2.29,6.23,6.23,0,0,1,1,2.16,4.72,4.72,0,0,1-.45,2.29c-.81,2.18-1.63,4.35-2.44,6.53a1.3,1.3,0,0,1-.22.42c-.39.47-1,0-1.63-.05-3.1-.31-6.22.57-9.33.42l5.86-1.49a2.33,2.33,0,0,0,.93-.39,1,1,0,0,0,.24-1,.62.62,0,0,1-.38-.56,2.11,2.11,0,0,1,.13-.7c.39-1.47,0-3.29-1.34-4A3.85,3.85,0,0,0,317,186a2,2,0,0,0-1.11.29.81.81,0,0,0-.31,1,1,1,0,0,0,1.2.24c.41-.17.76-.48,1.18-.62a1.69,1.69,0,0,1,1.88.56c.13.17.24.38.43.47a.79.79,0,0,0,.48,0,4.68,4.68,0,0,0,1.59-1,2,2,0,0,1,1.76-.54c-.07.61-.74.94-1.33,1.13s-1.26.43-1.43,1a1.89,1.89,0,0,0,0,.75,3,3,0,0,0,.38,1.29c.4.62,1.2.88,1.71,1.42a2.06,2.06,0,0,1,.54,1.74.7.7,0,0,1-.71-.31,10.93,10.93,0,0,0-1.3-1.5,1,1,0,0,0-.79-.38c-.25,0-.44.25-.67.34-.56.21-1.14-.29-1.74-.28a2,2,0,0,0-.76.2l-6.87,2.78c0,.15-.07-.15,0,0,1,1.94,5.22,1.32,7,1.39a8,8,0,0,0,4.53-.72c.28,1-.63,1.92-1.57,2.31a8,8,0,0,1-4.81.17c-1.58-.36-3.11-.95-4.71-1.28,0,1.63,1.58,2.9,3.19,3.19a18.73,18.73,0,0,0,4.89-.27c.42,0,.82.19,1.24.13a1.55,1.55,0,0,1,2,1.3c-.23,3-2.91,3.64-4.7,4.46a2,2,0,0,0-.82.56c.1,3.53.51,7.44,0,10.92s-2.39,7-5.61,8.45a10.83,10.83,0,0,1-7.88-.09,18.82,18.82,0,0,1-12.26-17.91c1.29.08,2.17,1.31,2.89,2.39A63.31,63.31,0,0,0,307,223.46a1.23,1.23,0,0,0,.94.39c.4-.08.61-.52.75-.9a47.46,47.46,0,0,0,2.87-16.73c2,.2,4-.23,5.86,0a2.23,2.23,0,0,1,1.84,1.27,10.41,10.41,0,0,1,.22,1.69,4.7,4.7,0,0,0,2.09,2.6c4.51,3.38,9.8,7.87,15.61,8a6.46,6.46,0,0,0,2.59-.31,4,4,0,0,0,2.13-4.26,6.9,6.9,0,0,0-2.71-4.22,43.62,43.62,0,0,1-3.94-2.92c-1.15-1.16-1.89-3-1.19-4.44,1.85-.15,2.12-.3,4-.45a6,6,0,0,0,3.71-.43,4.9,4.9,0,0,0,1.9-2.61c1.85-5,.26-10.47-.21-15.75s1-11.7,6-13.51c5.69-2.06,11.62,3.91,12.17,9.94.26,2.93-.26,6.06,1.07,8.68,2,4,7.37,4.92,11.71,4s8.34-3.2,12.73-3.89a.75.75,0,0,1,1.23-.38c2,4.18-3.58,8.37-3.5,13a8.15,8.15,0,0,0,1.83,4.6c3.19,4.27,8.46,6.53,13.71,7.5s10.62.82,15.93,1.28a6.71,6.71,0,0,1,3.84,1.18c1.41,1.18,1.67,3.21,2.28,5s2.77,3.52,4.52,3c15.44,0,15.35,2.29,30.47,5.37,6.91,1.41,13.95,3,20.95,2.16,3.1-.37,6.29-1.29,8.51-3.49a12.58,12.58,0,0,0,2.94-5c1.14-3.3,1.36-7.12-.43-10.11s-5.76-4.13-9.18-3.46-6.84-1.34-9.55-3.58-5.31-4.88-8.7-5.83c-4-1.12-8.31.37-12.48.09a1.58,1.58,0,0,1-1-.35c-.38-.41-.25-1.05-.16-1.61a6,6,0,0,0-1.23-4.59c-.72-.9-1.76-1.68-2-2.82-.48-2.81,4-4.12,4.25-7a36.32,36.32,0,0,1,2.75-11.23l.69,4.33a25.55,25.55,0,0,0,.6-6.7l2.26,4.44q-.92-3.75-2-7.46a6.31,6.31,0,0,0,2.6,2.5c1.13.45,2.71,0,2.95-1.24s-.92-2.2-1.91-2.94a32.36,32.36,0,0,1-7-7.2,29.25,29.25,0,0,0,9.6,6.07c-4.33-4.55-11.77-6.33-14-12.21A23.82,23.82,0,0,0,459.44,158a61.7,61.7,0,0,1-16.21-10.9c4.13,2.67,9.18,5.25,13.76,3.46-6.08.5-10.87-3.38-16.19-6.37-3.73-2.11-5.24-6.62-7.76-10.09a22.35,22.35,0,0,0-12.23-8.1,34.66,34.66,0,0,0-14.83-.45,17.08,17.08,0,0,0-6.73,2.32,20.78,20.78,0,0,0-5.07,5.57c-1.38,1.94-1.95,3.42-3.6,5.14a13.64,13.64,0,0,0-3.7,8c-.56,5.59,2.36,11.42.5,16.73,1.54-.06,2.59-1.55,3.2-3s1.09-3,2.36-3.87c-1.1,1.41.72,3.75,2.44,3.25s2.26-3,1.09-4.38l3.76.8c.47.74-.54,1.53-1.37,1.84l-7.36,2.71c2.83,1.34,6.12-.29,8.82-1.88.56-.33,1.18-.73,1.31-1.37a2.36,2.36,0,0,0-.19-1.25c-.82-2.35-1.83-4.94-4.08-6s-4.74-.31-7,.44l-2.94,1a6,6,0,0,1,6.25-4.19,8,8,0,0,1,2.08.56,11.42,11.42,0,0,1,6.64,7.77c1,4.32-.58,8.84-2.76,12.71-.65,1.15-1.38,2.4-1.16,3.7s2,2.32,2.89,1.36a1.92,1.92,0,0,1-1.64-1.79l6.56,3.07a1.68,1.68,0,0,0,1.16.23c.6-.18.79-.91,1-1.48a4.46,4.46,0,0,1,6.1-2.14,5.21,5.21,0,0,0,1.18.64,1.9,1.9,0,0,0,1.6-.32c1.25-.92,1.12-2.88.35-4.23s-2-2.35-2.82-3.68c-1.08-1.79-1.25-4-1.79-6s-1.57-4.12-1.63-6.29c-.12-4.42,3.75-8.07,7.93-9.49s8.72-1.21,13.12-1.59c-6.44-2-13.77-3.36-19.68-.1a3.17,3.17,0,0,0-1.5,1.41,3.62,3.62,0,0,0,.06,2.25l2.28,9.22a1.13,1.13,0,0,0,.36.69c.38.25.87,0,1.23-.3l5.16-3.94a3.06,3.06,0,0,0-.95,4,2.74,2.74,0,0,0,3.92.69,2.46,2.46,0,0,0-.29-3.84,12.59,12.59,0,0,1,6.94,4.38,58.18,58.18,0,0,1-15.64-.83c3.92,3,9.65,4.43,13.85,1.8a19.77,19.77,0,0,1,2.26-1.41,11.1,11.1,0,0,1,2.62-.61c3.2-.55,6.65-2.25,7.43-5.4-.2-.58.42-1.16,1-1.07a2.7,2.7,0,0,1,1.48,1,11,11,0,0,1,2.5,3.57,11.63,11.63,0,0,1,.47,2.29c.33,2.22.86,4.54,2.38,6.2,1,1.11,2.41,1.83,3.45,2.93s1.63,2.89.72,4.09c-1.15,1.52-1.26,3.41-1.87,5.21a83.94,83.94,0,0,0-4.07,15.11,28,28,0,0,0,1.72,15.37c.6,1.32-1.13,2.52-2.53,2.93a12.68,12.68,0,0,1-4.35.12c-12-.78-23.93,6.3-35.67,3.62-2.55-.59-5-1.62-7.5-2.3a28.07,28.07,0,0,0-17.12.87c-.72.27-1.72.49-2.1-.18a1.35,1.35,0,0,1-.09-.91c.53-2.93,4-4.48,4.91-7.32.27-.87.27-1.81.49-2.69a5.79,5.79,0,0,1,5.84-4.24c2.42.17,4.45,1.86,6,3.7s2.88,3.94,4.78,5.44c2.76,2.17,8.82,3.76,12.32,3.43s7.25-.43,11.51-3.62c3.71-2.79,6.37-3.88,10.3-6.35-2.78-.11-5.14,1.86-7.44,3.43A32.28,32.28,0,0,1,417,203.86a1.79,1.79,0,0,1-1.23,0,1.84,1.84,0,0,1-.76-1.15,32.66,32.66,0,0,1-1.12-4.35c-.27-1.49-.6-3.21-1.94-3.91-1.71-.9-3.95.53-5.71-.28a11.7,11.7,0,0,1,7.14-2,10.46,10.46,0,0,0,2.68,0,2.26,2.26,0,0,0,1.87-1.69l-8,1.13c-.1-1.17-1.83-1-3-.73a6.67,6.67,0,0,1-7-3.21c2.25,2.82,6.56,2.47,10.12,1.85a20.77,20.77,0,0,0,7.19-2.17c2.34-1.39,4.22-3.75,6.9-4.26a45.08,45.08,0,0,0-10.95,1.28l-10.87,2.18a22.56,22.56,0,0,1-4.61.59c2-1.93,4.23-4,7-4a12.06,12.06,0,0,0,1.7,0,10.15,10.15,0,0,0,2.38-1c6-2.61,13.11,3.48,19.22,1.12a1.5,1.5,0,0,0,.76-.49,1.37,1.37,0,0,0,.2-.89c-.11-1.67-1.61-2.89-3.07-3.71s-3.1-1.54-4-3c-1-1.59-.91-4-2.58-4.76-.17,1.9-2.68,2.58-4.55,2.23s-3.81-1.24-5.61-.6a4.81,4.81,0,0,0-2.84,3.77,14,14,0,0,0,.26,4.91.88.88,0,0,0,.36.69c.49.23.85-.52.88-1.06.07-1.12.11-2.25.11-3.38a2.36,2.36,0,0,0-.29-1.34,2.39,2.39,0,0,0-1.57-.77l-5.45-1.13a2.35,2.35,0,0,0-3.24,1.61c-2.11,4.28-4.22,9.38-2,13.61.57,1.1,1.4,2.46.62,3.42a1.83,1.83,0,0,1-2.48,0,5.19,5.19,0,0,1-1.37-2.36,118.89,118.89,0,0,1-5.44-21.1c-.81.86-2.75-.27-2.82-1.45s.45-2.39.08-3.51c-.49-1.43-2.2-2.05-3-3.35-.93-1.6-.14-3.62-.34-5.47a3.38,3.38,0,0,0-.88-2c-.4-.4-.94-.65-1.35-1-1.38-1.32-.86-3.63,0-5.34s2-3.53,1.57-5.39c-.18-.79-.64-1.5-.82-2.29-.58-2.53,1.71-4.72,3.77-6.3l4.34-3.34-3.9-.09a23.49,23.49,0,0,1,15.73-6.05,55.18,55.18,0,0,1-8.42.59,36.61,36.61,0,0,1,14.62-2.24,23,23,0,0,1-6.82-.6,10,10,0,0,1,9.37-.27,3.27,3.27,0,0,1-3-3,6.4,6.4,0,0,1,5.63,4.41,10,10,0,0,1-1.13-5.9,6.21,6.21,0,0,1,2.54,5.53,8.54,8.54,0,0,1-.31-3.79c.09-.65.49-1.46,1.14-1.35.4.06.65.45.82.82a8.11,8.11,0,0,1,.75,3.21,3.59,3.59,0,0,1,.65-2.85,3.45,3.45,0,0,1,1.15,3.94c-.11.28-.11.66.07.42a1.69,1.69,0,0,0,.16-.87c.15-1.6,2.08-2.31,3.68-2.49,7.28-.85,14.51,1.47,21.47,3.75a13.18,13.18,0,0,1,4.14,1.93c2.57,2,3.22,5.62,4.82,8.49,2.35,4.23,7,7.43,7.38,12.25.12,1.72-.29,3.65.77,5a10,10,0,0,0,1.89,1.52c2.48,1.94,3.05,5.41,3.3,8.54.29,3.51.34,7.28-1.52,10.26-1.29,2.06-3.4,3.58-4.3,5.83-1.31,3.23,0,7.54-2.54,9.9-1.83,1.7-4.4,3.57-6.82,2.95"/><path class="cls-1" d="M108.88,235.53c.22-1.87.9-4.21,2.77-4.36a4.28,4.28,0,0,1,1.71.34l6.59,2.36c1.47.52,3.24,1.52,3,3.06a51.61,51.61,0,0,0-9.88-3.36c.19.9.39,1.81.58,2.71a5.67,5.67,0,0,0-3,2.44,7.84,7.84,0,0,1,12.91,3.17,10.84,10.84,0,0,0-3.21-2.45,2.49,2.49,0,1,1-4.43-1.13,4.94,4.94,0,0,0-4.93,2.3c.41,1.57,2.49,1.86,4.12,1.83l7.51-.16c.58.71-.44,1.61-1.3,1.95a13.52,13.52,0,0,1-5.75,1.33c-2-.14-4-1.45-4.34-3.41a8,8,0,0,0,6.56,2.5,17.69,17.69,0,0,0,6.88-2.2,16.54,16.54,0,0,1-1.78,12.36,6.62,6.62,0,0,0-1.33,3.23c0,1.18,1.26,2.4,2.3,1.84a1.43,1.43,0,0,1-1.33-1.9c.94,1.39,2,2.88,3.67,3.24,2.49.54,4.71-1.8,7.25-2.05a3.23,3.23,0,0,0-4.67.77,10.32,10.32,0,0,0,3.81,1,3.54,3.54,0,0,0,3.3-1.81,2.17,2.17,0,0,0-1.52-3,2.77,2.77,0,0,1-.63,4.48c-1.05.44-2.26.16-3.39.27s-2.41,1-2.14,2.12a9,9,0,0,0,.64,1.23,1.84,1.84,0,0,1-2.23,2.3c-.69-.27-1.16-.94-1.86-1.19-1.94-.68-3.42,2.28-5.47,2.31,0,.89,1.19,1.29,2,1a8.3,8.3,0,0,1,2.55-.8,8,8,0,0,1,1.93.62c2,.62,4.14-.56,6.21-.3a27.7,27.7,0,0,1,3.3,1,6.7,6.7,0,0,0,4.47-.45,20.58,20.58,0,0,0-11.5-2.3,45.14,45.14,0,0,1,12.44,2.49,18.41,18.41,0,0,1-10.65,6.42,10.38,10.38,0,0,1-6.76-.65,5.6,5.6,0,0,1-3.09-5.68,35.59,35.59,0,0,1,3.65,1.09,23.29,23.29,0,0,0,15.95-.84c.07,1.69-1.61,2.88-3.13,3.61a34.65,34.65,0,0,1-8.63,2.83,2.78,2.78,0,0,0-2,1,2.63,2.63,0,0,0-.18,1.67c.27,2.38.57,4.76.92,7.14a2,2,0,0,0,.47,1.22,2,2,0,0,0,1.34.37,31.76,31.76,0,0,0,12.08-2.26c5.32-2.13,10.82-3.67,15.26-7.29a23.66,23.66,0,0,0,8.69-14.38c.23-1.52.83-3.55,2.36-3.41-.14,1.67.05,3.85,1.67,4.32,1.32.39,2.57-.74,3.41-1.83a23.83,23.83,0,0,0,3.6-6.84,6,6,0,0,0,.22-4.07,5.23,5.23,0,0,0-1.94-2.18,5.37,5.37,0,0,0-4.17-1.11c-1.44.34-2.63,1.92-2.12,3.31a.86.86,0,0,0,.34.47c.61.35,1.12-.61,1.17-1.31a42.52,42.52,0,0,0-1.32-13.89c-.49-1.82-2.64-1.3-4.51-1s-3.79.87-5.6.31a13,13,0,0,1-3.33-2,16.29,16.29,0,0,0-20.5,2.21l13.44-2.17c1.75-.28,4.28,0,4.29,1.81a2.26,2.26,0,0,1-2.13,2,12.39,12.39,0,0,1-3.13-.33,9.5,9.5,0,0,0-9.21,4.41l6-3a2.85,2.85,0,1,0,5,1.17,4.74,4.74,0,0,1,3.67,1.87c-2.89,3.14-8,2.69-12,1.07a4,4,0,0,0-2.18-.48c-.75.13-1.41,1-1.07,1.63a1.79,1.79,0,0,0,.67.64c3.18,2.11,7,4.3,10.59,2.88a6,6,0,0,0,3.35-3.43,3.54,3.54,0,0,0,.15-2.29c-.12-.37-.33-.7-.45-1.07a3.19,3.19,0,0,1,2-3.58,9.31,9.31,0,0,1,4.4-.46l5.46.31c1.85.11,4.44-.49,4.26-2.33a3.29,3.29,0,0,0-1.63-2.1l-8.07-5.85a4,4,0,0,1,3.53-1.18,9,9,0,0,1-4.48-2.76l3.67-.55-5.27-2.79,2.33-1.46a10.59,10.59,0,0,1-4.63-1.92l1.95-1.15-11.66-4.67a1.72,1.72,0,0,1-.9-.6c-.47-.79.47-1.64,1.24-2.13a19.51,19.51,0,0,0,8.26-11.12c1.06-3.81,1.26-8.43,4.56-10.59,2.75-1.81,6.62-.89,9.09,1.28s3.83,5.32,5,8.4,2.2,6.28,4.26,8.85c3.52,4.4,9.55,6.38,12.61,11.12a1.44,1.44,0,0,1,.3.9c-.15,1.13-1.9.49-2.66-.34a33.06,33.06,0,0,0-22.61-10.48c-.45,2,1.6,3.58,3.42,4.52,6.37,3.27,13.23,5.46,19.85,8.2a130.11,130.11,0,0,1,24.52,13.38c5.58,3.87,11.1,8.52,13.37,14.92a74.48,74.48,0,0,1-16.94-10.37c-3.62-2.95-7-6.26-11-8.65s-8.93-3.77-13.42-2.44c6.77,7.15,17.23,9.09,25.93,13.7a45.76,45.76,0,0,1,23.68,35.63c-8-11.57-16.83-23.81-30-28.64a2.89,2.89,0,0,0-1.93.53A122.2,122.2,0,0,1,216.87,261a51.52,51.52,0,0,1,12,19.22c1.1,3.38,1.76,6.91,3.13,10.19a24.9,24.9,0,0,0,10.37,11.81,1.91,1.91,0,0,1,.88.8,1.2,1.2,0,0,1-.76,1.44,3,3,0,0,1-1.77,0c-4.76-1-8.75-4.39-11.5-8.4s-4.42-8.65-5.95-13.26a3.75,3.75,0,0,1-.28-1.86,1.29,1.29,0,0,1,1.32-1.09,140.27,140.27,0,0,0,5.51,15.05c1.7,4,3.61,7.91,4.28,12.18s-.1,9-3.14,12.07a77.55,77.55,0,0,0-2.69-17.53c-.77,2.45-.18,5.09,0,7.66a23.09,23.09,0,0,1-7.45,18.33c.16.38-.44,0-.62-.38s.06-.8.27-1.15a18.33,18.33,0,0,0,2.57-8.07,1.72,1.72,0,0,0-.31-1.37,1.23,1.23,0,0,0-1.82.44,3.43,3.43,0,0,0-.23,2.11,61.8,61.8,0,0,0,5.76,20.08c-3.69-2.23-5.18-6.73-7-10.64-1.94-4.15-4.65-8.79-8.27-11.68A59,59,0,0,0,199.4,310c0-.41-.38.48-.23.87.31.81-.63,1.52-1.44,1.83-5,1.94-10.59,1.7-15.95,1.18-10-1-19.87-2.83-29.88-3.37-5.19-.28-11.21.17-14.31,4.35a9.4,9.4,0,0,0,3.45-6.27c.1-.9-.6-2.2-1.32-1.66-1.14,3.62-2.57,7.6-5.93,9.35-2.95,1.54-6.51.88-9.84,1.08a2.77,2.77,0,0,0-2.09.8,2.59,2.59,0,0,0-.38,1.69c.17,5.28,4.08,9.84,8.69,12.43s9.91,3.6,15,4.87c14.1,3.5,27.68,9.14,42,11.35,5.81.9,11.76,1.24,17.35,3.07s11,5.47,13.11,10.94c.2.51.34,1.19-.07,1.56a1.4,1.4,0,0,1-.78.26c-3.26.36-6.47-.79-9.55-1.89a535.5,535.5,0,0,0-54.7-16.41c-6.54-1.59-13.18-3.08-19.17-6.15S122.09,332,120,325.61l6.72,5.23a75.89,75.89,0,0,0,10.71,7.4c5.52,2.95,11.67,4.49,17.74,6L210.3,358c2.48.62,5.13,1.34,6.77,3.3a11.29,11.29,0,0,1,2.06,5.55,72.35,72.35,0,0,1,.26,21.69c-.41,2.89-1.29,5-1.7,7.85-1.43-7.2-.86-14.63-.29-21.94,1.4-17.88,6.27-43.28-6-58.48a14.43,14.43,0,0,0-3.66-3.4c-3.37-2.06-7.11-1.9-10.7-3.58-8.21-3.86-14.72-5.89-21.49-12.16a34.3,34.3,0,0,1-8-37.73,28.5,28.5,0,0,0,2.2-11.54c-.06-3.91-.55-7.83-.12-11.71.11-1,1.73-.95,2.66-.47,3.53,1.83,5.52,6.33,9.42,7.05.64-2.05-1.05-4-2.6-5.52l-12.28-11.8c2.22,0,4.21,1.39,5.78,3a48.64,48.64,0,0,0,4.65,4.76c.56.43,1.32.81,1.93.47a11.53,11.53,0,0,0-2.7-5A80.41,80.41,0,0,0,158,211.56c3.72-.46,6.57,3.44,10.26,4.15a56.9,56.9,0,0,0-6.74-6.34,8.3,8.3,0,0,0-3-1.74,9,9,0,0,0-3.62.08l-17.84,2.84a1.66,1.66,0,0,1-1.42-.22c-.75-.72.31-1.85,1.22-2.36a26.32,26.32,0,0,0,12.42-16.3,8.28,8.28,0,0,0,.2-4.1,3.56,3.56,0,0,0-2.79-2.72,10.63,10.63,0,0,0-2.1.17,20,20,0,0,1-3.91-.4c-4.72-.54-9.29,1.64-13.54,3.76-3,1.51-6.31,1.44-9.57,2.37,2.84,1.48,6.15,1.72,9.35,1.85s6.49.2,9.47,1.39,5.63,3.78,5.87,7a30.31,30.31,0,0,0-23.2-3.51,56.27,56.27,0,0,1,11.43,3.33c2.56,1.05,5.34,2.67,5.83,5.4a26.59,26.59,0,0,0-10.95-2.56c-1,0-2.43.59-2,1.52a1.4,1.4,0,0,0,.65.6c3,1.63,7.47.55,9.36,3.38-4.37,1.35-9.4-1.34-13.57.54a13.35,13.35,0,0,0-4.39,3.85,29.05,29.05,0,0,0-5.14,7.56,29.56,29.56,0,0,0-1.64,9.22c-.58,8.38-1.16,16.82-.09,25.16a30.43,30.43,0,0,0,2.43,9.23,72.57,72.57,0,0,0,7.63,14.52,41.29,41.29,0,0,0,6.2,6.81c.47.42.65.9,1.17,1.24,6.56,4.25,3.75,15.62,1.91,23.22a28.77,28.77,0,0,1-3.27,8.37,20.22,20.22,0,0,1-12.65,9c-.6.14-1.34.2-1.71-.3a1.58,1.58,0,0,1-.23-.84,7.46,7.46,0,0,1,2.45-5.85,2.82,2.82,0,0,1,2.13-.87,2.49,2.49,0,0,1,1.84,2.5,15.81,15.81,0,0,1-.56,3.31,9,9,0,0,0,2,7.27c.58.69,1.32,1.51,1,2.36a2.28,2.28,0,0,1-1.47,1.09,78.27,78.27,0,0,1-10.86,3.1,9.4,9.4,0,0,1,7.13-4.41c.4,1.53-.66,3-1.8,4.14a18.84,18.84,0,0,1-11.68,5.2,2.55,2.55,0,0,0-2,.82,2.47,2.47,0,0,0-.8,2.86,3.26,3.26,0,0,0,1.92,1.47,10,10,0,0,0,8.92-1c1-.65,1.91-1.74,1.6-2.87a2.28,2.28,0,0,0-2.89-1.25,6.36,6.36,0,0,0-2.71,2.18c-2.15,2.56-4.14,5.24-6.14,7.93-1,1.32-2,2.81-1.82,4.45s2.35,3,3.52,1.81c.86-.87,1-2.77,2.23-2.65-.22,2-1.71,3.6-3,5.13A49.79,49.79,0,0,0,91,376c-1.83,4.16-3.12,8.6-5.61,12.4s-6.58,7-11.12,6.77a13.19,13.19,0,0,0,6.49-10,22.32,22.32,0,0,1-18.64,10.39,20.42,20.42,0,0,0,12.21-11.12A42.71,42.71,0,0,0,65,391.62c2,1,4.3-.24,6.09-1.53s3.62-2.76,5.33-4.25a9.05,9.05,0,0,0,2.76-3.46,3.33,3.33,0,0,0-1.07-4c-1.19-.72-2.81-.34-4-1s-1.67-2.54-1.76-4.09A34.29,34.29,0,0,1,75,357.92c1.06-2.46,2.43-4.95,2.19-7.61-.34-3.62-3.63-6.67-3.21-10.27.25-2.19,1.82-4,3.13-5.72s2.45-4,1.71-6.1-2.86-3.08-3.8-4.94c-1.43-2.82.35-6.15,2.15-8.74a146,146,0,0,1,9.44-12.17c2.93-3.39,6-6.44,7.92-10.49a131.91,131.91,0,0,0,4.66-12.6c2.42-6.82,5.6-13.76,4.83-20.95-.62.14-1,.77-1.27,1.34-4.41,8.85-7,18.5-11,27.55s-9.75,17.84-18.5,22.45c2.59-3.95,6.42-6.89,9.58-10.41,4.54-5,7.64-11.16,10.69-17.21,3.39-6.74,6.85-13.71,7.32-21.23-6.17,11.47-12.39,23-20.66,33.09-4.4,5.34-9.62,10.39-16.2,12.51,6.35-4.73,10.68-11.65,14.71-18.47q5.73-9.7,11.1-19.59c1.22-2.26,2.47-4.66,2.4-7.22-2,.81-3,3-3.89,4.92A88.8,88.8,0,0,1,76,285.76c-3,3.6-6.41,7.05-10.73,8.89.5-2.45,2.35-4.37,4-6.2,8.6-9.28,15.49-20.46,18.1-32.83a52.66,52.66,0,0,1-12.15,18.94c-2.74,2.73-6,5.25-9.78,5.87a78.71,78.71,0,0,0,22.91-30.1q-7.9,13.34-14.51,27.4c.05-10.63.16-21.6,4.41-31.34l1.14,4.52a4.33,4.33,0,0,0-1.28-3.85,21.48,21.48,0,0,1-2.78-3.19c-1.44-2.55-.54-5.77.71-8.42a36.48,36.48,0,0,1,6.61-9.61c1.21-1.27,2.27-2.64,3.41-4a13.41,13.41,0,0,1,3.63-3.34,4.62,4.62,0,0,1,4.71-.06,4.29,4.29,0,0,1,1.67,3.75,8.16,8.16,0,0,1-1.5,4,6.4,6.4,0,0,1-2.46,2.33c-2,1-4.56.09-6.12-1.53a13.92,13.92,0,0,1-3-6c-.89-3-1.56-6.28-.83-9.37a13.55,13.55,0,0,1,5.15-7.46,27.73,27.73,0,0,1,8.27-4.07c5.37-1.77,11.3-2.74,16.62-.84a3.32,3.32,0,0,1,1.42.82,2.1,2.1,0,0,1-.84,3.14,2.61,2.61,0,0,1-3.19-1.28,3.49,3.49,0,0,1,.41-3.58c1.69-2.32,5.65-2.82,6.24-5.62.52-2.44-2.06-4.41-4.45-5.14a17.34,17.34,0,0,0-9.45-.21,26.7,26.7,0,0,0-3.08.78c.09.57.19,1.14.28,1.71a11,11,0,0,0,10.8.3c3.31-1.8,5.08-1.64,5.4-5.4,1-11.3,8.6-21.05,17.52-28.05s19.29-11.92,28.7-18.26c.27,1.24-.87,2.3-1.88,3.06l-6.4,4.77,12.23.06a.94.94,0,0,1,.62.14,1,1,0,0,1,.27.69l.66,6.36a17.37,17.37,0,0,0,.4-8.38l-10.89.14a14.7,14.7,0,0,0-5,.64,14.24,14.24,0,0,0-3.94,2.55,202.06,202.06,0,0,0-18.21,17c-1.09,1.15-2.23,2.47-2.26,4.06a36.79,36.79,0,0,1,17.67,5.5,2.13,2.13,0,0,0,3.45-.31c6.34-7.21,11.71-15.4,19.23-21.38,1.26,7.87,2.78,16.26,8.32,22a82.07,82.07,0,0,1,12.44-12.49c-2.3-3.43-4.69-7-8.14-9.24a15.73,15.73,0,0,0-8.17-2.6l-.06,8.52a4.85,4.85,0,0,0,1.29,3.91l6.63,8.75a9.29,9.29,0,0,0-2.78,5c5.57-4.21,8.36-11.36,14-15.49.95,2.26,3.25,3.66,5.56,4.49s4.76,1.27,6.95,2.37c1.59.8,3.42,2,5,1.14-1.7-3.82-4-8.12-8.16-8.81-2.11-.36-4.41.32-6.34-.6a8.87,8.87,0,0,1-2.75-2.54c-6.49-7.85-17.11-13.88-19.16-23.86a8.76,8.76,0,0,0-1.09-2.78,1.06,1.06,0,0,0-.48-.48.93.93,0,0,0-.65.09c-2.71,1.17-3.43,5.22-6.27,6a16.28,16.28,0,0,1,2.27-5.63c.91-1.18,2.51-1.83,3.21-3.17,1-2-.69-4.56.41-6.46a34,34,0,0,0,24.32,16c1.51.2,3.21.24,4.36-.76a26.33,26.33,0,0,1-27.08-13.56,9.39,9.39,0,0,0-2.94-3.52c-1,1.11-2.94,0-3.32-1.48s.09-3-.13-4.43c-.34-2.32-2.24-4-3.35-6.11a9.56,9.56,0,0,1-.88-6.56c.17-.71.58-1.53,1.3-1.54s1,.56,1.35,1.07A35.86,35.86,0,0,1,168.1,112c.68.23,1-.8,1-1.52a53.69,53.69,0,0,1,.31-8,1.8,1.8,0,0,1,.58-1.35,1.83,1.83,0,0,1,1.29-.11,58.39,58.39,0,0,0,17.26.14,3.68,3.68,0,0,0-3.82-1.82,1.52,1.52,0,1,1-3-.22,8,8,0,0,1-3.16,1.58,8.77,8.77,0,0,1,9.64-.64c-.46-2.27-3.16-3.44-5.46-3.2s-4.36,1.47-6.5,2.33-4.69,1.36-6.69.19l.27-3.59c-1.26.74-1.39,2.48-1.38,3.93q0,4.56.07,9.1c0,1.14-.61,2.75-1.67,2.34a31.82,31.82,0,0,0-5.4-11.63,5.46,5.46,0,0,1-1.19-2.22c-.32-1.92,1.58-3.46,2.13-5.34.94-3.16-2.1-6.21-2.08-9.51,0-1.37.55-2.73.3-4.08-.19-1-.81-1.92-1.08-2.93-.67-2.56,1.09-5.09,2.89-7A53.47,53.47,0,0,1,187.2,53.21c-5.09,3-10.74,5.07-15.86,8.08s-9.88,7.31-11.51,13c1.89-1,2.7-3.3,4.21-4.83,1.88-1.9,4.68-2.49,7.3-3,6.46-1.25,13-2.5,19.55-2.47a3.22,3.22,0,0,0,2.25-.55,6.6,6.6,0,0,0,.76-1.11,3.25,3.25,0,0,1,5,.13,3.88,3.88,0,0,1-1.06,5.2,4.82,4.82,0,0,1-5.52-.26A6.46,6.46,0,0,1,190,62.25a5.63,5.63,0,0,1,.64-2.73c1.49-2.71,5.61-3.08,8.09-1.24s3.47,5.17,3.34,8.26c-.1,2.15-.79,4.47-2.6,5.63s-4.46.74-6.51-.22c-3.21-1.51-6-4.37-6.5-7.88s1.94-7.45,5.48-7.78c-1.59-.44-2.26-2.56-1.55-4a4.68,4.68,0,0,1,4.07-2.36,4.79,4.79,0,0,1,3.63,1.28,3.1,3.1,0,0,1,.57,3.65,9.2,9.2,0,0,1,5.67,9.29l10.45,1.26a8.43,8.43,0,0,1,4.55,1.47,8.24,8.24,0,0,1,1.82,2.6q1.63,3.07,3.26,6.15c.36.68,1,1.48,1.72,1.25.56-.17.78-.84.9-1.42,1-4.37,1.94-9,.55-13.26a22.38,22.38,0,0,0-3.16-5.77c-2.14-3-4.51-6-7.63-8-4.12-2.65-9.17-3.38-14.06-3.63-9.7-.48-20.09.15-28.81,4.72a53.44,53.44,0,0,0-19,16.78c-2,2.87-3.76,6.28-3.14,9.71s4.76,6.27,7.72,4.41c1.41,4.42,3.2,9.29,7.36,11.38,2.23,1.12,4.82,1.24,7.33,1.33,12.41.45,24.9.9,37.19-.92a18.81,18.81,0,0,0,6.48-1.86,7.23,7.23,0,0,0,3.88-5.25,4.06,4.06,0,0,0-1-3.32c-1.21-1.22-3.12-1.27-4.83-1.23A337.37,337.37,0,0,0,167,85.13a7,7,0,0,1-3.81-.07c-1.19-.5-2.05-2-1.39-3.12a83.52,83.52,0,0,1,61.9-4.39c0,2.34.66,4.47.33,6.79l-.57,4.07-1.2,8.47c-.75,5.3-1.57,10.79-4.47,15.29a114.48,114.48,0,0,0,1.71-13.81c.11-1.64-.15-3.75-1.73-4.17,0,1.31,0,2.62.11,3.94-2.95-.36-5.83-1.2-8.79-1.4s-6.16.36-8.32,2.4a5.42,5.42,0,0,0,4.13-1.21c-.74.77.44,2.28,1.37,1.75a5.35,5.35,0,0,0,.84-.81c1-1,3.88,0,4.12,1.36-4,1.39-7.2,1.25-11.47-.08a11.65,11.65,0,0,0-.06,6.62c.46,1.57,1.25,3.09,1.17,4.72s-1.57,3.35-3.12,2.86a10.55,10.55,0,0,0,2.87-2.14c-.83-.65-2.07,0-2.81.72s-1.43,1.73-2.48,1.88c-1.21.18-2.24-.8-3.25-1.49s-2.69-1-3.23.14c.88.71,2.15.5,3.28.45s2.54.33,2.74,1.45c.12.7-.31,1.37-.38,2.08s.71,1.56,1.25,1.1a5.9,5.9,0,0,0,.33-3.14l.06,3.51a6.9,6.9,0,0,1,6.6,2.89,18.27,18.27,0,0,0-16.08.14q8.12-.14,16.24.24a10.61,10.61,0,0,1-12.44,1.19c-.33.52.25,1.2.86,1.31s1.23-.09,1.84,0a3,3,0,0,1,2.35,2.51,8.5,8.5,0,0,1-.37,3.63c-.1.44.32.59.68.87a2.9,2.9,0,0,1,4.69,1.14,4.26,4.26,0,0,0,.43,1.46c.62.86,2,.57,2.92.11,5.89-2.86,9.93-8.79,11.42-15.16.48-2.06.77-4.28,2.15-5.89a40.86,40.86,0,0,1-4.06,12.87,29.23,29.23,0,0,1-3.38,5.28,21.73,21.73,0,0,0-3.15,4.15,4.61,4.61,0,0,0,.22,4.93c.85,9.49,2.11,18.79,2.26,28.32a117.49,117.49,0,0,1,10.79-12.16,3.49,3.49,0,0,0,1-1.36,3.4,3.4,0,0,0-.49-2.38,92.85,92.85,0,0,0-10.87-17c1.95.36,3.12,2.3,4.2,4s2.75,3.41,4.7,3a17.38,17.38,0,0,0,9.47,11.88c3.3,1.55,7.06,2,10.23,3.81,2.16,1.22,4.18,3.09,6.67,3.09-.21-1.42-1.48-2.4-2.65-3.22a212.18,212.18,0,0,0-21.89-13.32c-.34,4.26,3.05,8,6.8,10s8,3.11,11.63,5.39a20.06,20.06,0,0,1,8.31,22,179.75,179.75,0,0,1-11.35-22.41c1.86.36,2.81,2.39,3.47,4.17q5.38,14.66,9.55,29.74a38.56,38.56,0,0,1,1.69,6.71c.13-1.91-.78-3.71-1.66-5.4a3.69,3.69,0,0,0-1.12-1.48,3.43,3.43,0,0,0-1.48-.43,44.66,44.66,0,0,0-13.36.23.8.8,0,0,0-.38.15c-.21.19-.12.53,0,.8l6.27,15.45c.45-1.57,1-3.31,2.49-4a3.62,3.62,0,0,1,3.56.39,6,6,0,0,1,2.13,3,26.31,26.31,0,0,1,1.19-3.78,2.47,2.47,0,0,1,.78-1.16,1.76,1.76,0,0,1,2.29.6,5.1,5.1,0,0,1,.74,2.49c-.46-8.62-6.52-16-7.7-24.58a1.14,1.14,0,0,0-.27-.7,1.12,1.12,0,0,0-.9-.15l-8.71,1.15a7.31,7.31,0,0,0-2.92.8,2.23,2.23,0,0,0,.8,4.28,7.31,7.31,0,0,0,2.86-.28L244,186.2c.17,0,.38-.11.42-.28s-.32-.28-.3-.1c2.9.42,5.59-.46,8.46-1s6.2-.51,8.32,1.51c3.81,3.61,5.88,6.84,5.11,12s-3.16,10-4,15.2"/><path class="cls-1" d="M135.43,489.2c4.17-2.52,5.93-7.56,7.55-12.16,2.1-6,5.24-12.54,11.33-14.23A62.49,62.49,0,0,0,149.42,483c-.15,2,0,4.43,1.79,5.39a3.83,3.83,0,0,0,2.73.23c3-.7,5.08-3.54,5.77-6.52s.24-6.1-.3-9.11a38.24,38.24,0,0,0-1.19,13,3.58,3.58,0,0,0,.57,1.93,3.65,3.65,0,0,0,2.26,1.05c2.72.56,6.07.92,7.8-1.26a6.57,6.57,0,0,0,1.14-3.44,22.72,22.72,0,0,0-1.51-10.73,41.33,41.33,0,0,0-.33,10.25c.1,2,.34,4.32,2,5.5a6.8,6.8,0,0,0,3.76.91c1.31.06,2.76.08,3.77-.76s1.27-2.36,1.39-3.72a110.35,110.35,0,0,0,.45-11.78c-1.1,0-1.49,1.45-1.55,2.56-.13,2.37-.25,4.75-.38,7.12a6.66,6.66,0,0,0,.66,4.06c1.22,1.82,4.08,1.9,5.88.64a9.14,9.14,0,0,0,3.19-5.59c.4-1.74.66-3.66,2-4.85,1.74-1.55,4.47-1.09,6.65-1.93,2.62-1,4.14-3.77,4.86-6.49,1.28-4.74.3-10.69-4-13.05-3.12-1.71-6.95-1-10.44-.32l-29.18,6a2.56,2.56,0,0,0-1.66.79c-.95,1.26,1,2.87,2.53,2.76s3.16-.95,4.65-.45,2.74,2.54,4.41,2.27a8.14,8.14,0,0,0,1.91-.91c2.24-1,4.68.73,6.58,2.27a2.87,2.87,0,0,0,1.55.78,4.67,4.67,0,0,0,1.57-.44c3-1,5.69,1.9,7.37,4.53s4,5.7,7.07,5.29c-.18-1.3-2.17-1.32-3.21-.52-2.41,1.84-2.52,5.75-.66,8.15a9,9,0,0,0,8.17,3,19.26,19.26,0,0,0,8.3-3.51,30.73,30.73,0,0,0,9.37-9.35,18.35,18.35,0,0,0,2.59-12.79c-1.08-5.5-5.13-10-9.6-13.33-4.25-3.2-9.28-5.75-14.61-5.69s-10.85,3.35-12.16,8.51c-.61.12-.59,1.32-.06,1.64a1.83,1.83,0,0,0,1.76-.18c2.23-1.24,3.17-3.89,4.11-6.26a24.41,24.41,0,0,1,6.31-9.7c5.15-4.43,12.77-5.08,19.27-3.14a24.84,24.84,0,0,1,13.77,10,19.55,19.55,0,0,1,2.35,16.62,37,37,0,0,1-4.65,8.41,23.48,23.48,0,0,0-2.84,5.2,4.63,4.63,0,0,0-.22,3c.53,1.56,2.26,2.33,3.86,2.76a23.7,23.7,0,0,0,19.1-3.19c24.67-16.64,45.62-30.41,74.55-36.26,31.69-6.41,64.48-3.49,95.73,3.9,37,8.74,72.23,23.42,108.13,35.88,39,13.54,107.19,16.26,157.2-18.52,0,0,78.25-61.55,120.17-13.25"/><path class="cls-1" d="M189.86,381.61c-1.28,2.58-1.32,5.6-2.28,8.32-.88,2.46-2.14,5.41-4.6,6.29a2.7,2.7,0,0,0-1.48,1.84,13.25,13.25,0,0,1-.73,2.34,8.12,8.12,0,0,1-3.09,2.67,1.59,1.59,0,0,0-.59.56,1.72,1.72,0,0,0,.07,1.22,11.8,11.8,0,0,1,.24,5.6c-.57.05-.69-.77-.71-1.34-.06-3.33-3.56-5.78-3.86-9.11a5,5,0,0,1,1.18,4.37,1,1,0,0,1-.26.56c-.4.38-1.05.07-1.46-.31a6.62,6.62,0,0,1-2.07-4.2,6.67,6.67,0,0,1,1.65,5.6c-1.38-.06-2.42-1.31-3-2.57a15.68,15.68,0,0,0-1.8-3.73c0,2.1,2.13,3.74,2.13,5.84a.61.61,0,0,1-.11.42c-.17.21-.5.14-.75,0-1.9-.83-2.65-3.24-4.47-4.25a.54.54,0,0,0-.56,0c-.23.18-.08.53.08.77l2.67,3.83a70.3,70.3,0,0,1-8.48-2.18,4.23,4.23,0,0,0-4.62,1.2A3.72,3.72,0,0,0,153,410a4.57,4.57,0,0,0,4,1.17,13.37,13.37,0,0,0,4.06-1.55l2.39-1.23-4.68-.48a1.71,1.71,0,0,1-1.91,1.7,2.44,2.44,0,0,1-1.93-2,.78.78,0,0,1,0-.34c.13-.56,1-.37,1.46-.06-1.93-.87-4.3.39-5.37,2.22s-1.2,4.06-1.29,6.18l-.12,2.93c0,1,0,2.21.88,2.62a2.89,2.89,0,0,1,2.7,1.81,1.65,1.65,0,0,1,0,1.27,1.92,1.92,0,0,1-1.94.83,5,5,0,0,1-1.9-.53,2,2,0,0,0-1.16-.38,1.88,1.88,0,0,0-.76.35,6.32,6.32,0,0,1-2.75,1.19,4,4,0,0,1-3.62-1.59c-.3-.41-.42-1.15.06-1.31a.66.66,0,0,1,.61.16,1,1,0,0,1,.35.77,1.28,1.28,0,0,1-1.94.9,2,2,0,0,1-.61-2.34,5.44,5.44,0,0,1,1.91-2.08,8.59,8.59,0,0,0-3.11-15.15c-1.22-.31-2.5-.35-3.7-.7-1.63-.48-3.16-1.54-4.86-1.4a.81.81,0,0,0-.68.32.86.86,0,0,0-.08.55,11,11,0,0,0,1.31,3.77,10.56,10.56,0,0,1,4-1.3,3.11,3.11,0,0,0-.22,1.7,1.58,1.58,0,0,0,1.09,1.24,1.77,1.77,0,0,0,1.78-.95c.1-.15.19-.32.36-.36a.64.64,0,0,1,.36.08l2.9,1.38c.16.21-.08.5-.3.66a7.44,7.44,0,0,1-5.17,1.18,2.8,2.8,0,0,1-1-.31,10,10,0,0,1-1.22-1.13,2.79,2.79,0,0,0-3.45,0A8.36,8.36,0,0,0,130,416c.84,1.94,2.06,3.7,3,5.61,1.7,3.58,2.3,7.74,4.77,10.83.68.84,2,.31,3-.17.74-.37,1.32-1,2-1.4a2,2,0,0,1,2.29,0,2.32,2.32,0,0,0,.49.45c.48.22.95-.27,1.4-.54a2.82,2.82,0,0,1,2.67.11c.84.41,1.57,1,2.43,1.37,1.66.7,3.54.42,5.34.32.51,0,1.25.25,1,.73a.77.77,0,0,1-.58.35c-5.05,1.2-10.33.57-15.51.25a1.06,1.06,0,0,0-.5.05c-.54.25-.3,1.07.08,1.53a6.61,6.61,0,0,0,8,1.53c1.16-.64,2.18-1.66,3.49-1.81a9.52,9.52,0,0,1-6.52,4.12,2.82,2.82,0,0,0,1.29,3,10.75,10.75,0,0,0,7,1.69,20.82,20.82,0,0,0,6.7-2.75c4.67-2.66,9.2-5.74,12.67-9.85a29.57,29.57,0,0,0,6.79-16,2.88,2.88,0,0,0-1.33-2.51.8.8,0,0,0-.41-.18c-.41-.05-.72.43-.64.83a1.35,1.35,0,0,0,.81.86,3.58,3.58,0,0,0,3.57-.56,7.8,7.8,0,0,0,2.19-3.05,19.57,19.57,0,0,0,1-13.33c-.09-.31-.24-.68-.56-.74-.49-.09-.74.56-.8,1.05a59,59,0,0,0-.59,9.1,19.4,19.4,0,0,0,2.23,8.77,4.49,4.49,0,0,0,1.28,1.58,2,2,0,0,0,1.94.28,2.85,2.85,0,0,0,1.25-2.52,18,18,0,0,0-.06-3.74,9.83,9.83,0,0,1-.12-2.86c.24-1.26,1.1-2.35,1.23-3.61.19-1.87-1.23-3.6-1.16-5.47a11.49,11.49,0,0,1,1.3-3.65c1-2.38.91-5,.84-7.62a5.58,5.58,0,0,0-.52-2.63c-.43-.74-1.18-1.24-1.68-1.94-1-1.45-.78-3.43-1.31-5.12a11.16,11.16,0,0,0-1.93-3.27c-.44-.58-1-1.23-1.75-1.13-.47,1.76,1.06,3.33,2.2,4.74a14.08,14.08,0,0,1,2.22,13.45q-.12-6.09-.23-12.16a14.71,14.71,0,0,0-.29-3.18c-.61-2.57-2.54-4.59-4.45-6.41a10.81,10.81,0,0,0-2.7-2,3.85,3.85,0,0,0-3.28-.13,5.72,5.72,0,0,0-2.31,1.34,1.61,1.61,0,0,0,.29,2.35c1,.54,2.17-.71,2.34-1.86.42-3-2.12-5.47-4.6-7.13a34.84,34.84,0,0,0-8.46-4.16,31,31,0,0,0-37.53,16c-.71,1.49-1.23,3.49,0,4.62a4.24,4.24,0,0,0,2.57.82c10.23.95,20.68,1.88,30.65-.6-1.17-1.18-3.08-1-4.71-.77a84.77,84.77,0,0,1-13.13.76c-5.51-.1-11.59-.57-15.92,2.83-3.5,2.74-4.91,7.33-5.86,11.67-1.1,5.05-1.73,10.76,1.2,15a8,8,0,0,0,0-7.34,6.12,6.12,0,0,0,2.2,6.08.68.68,0,0,0,.46.19c.3,0,.44-.38.5-.67.35-1.88-.18-4,.75-5.65s3-2.35,4.33-3.75c1.65-1.73,2-4.37,3.54-6.19,1.18-1.38,3-2.14,4.16-3.5a6.1,6.1,0,0,0,1.09-6.19c-.8.42-.72,1.59-.47,2.46A23.15,23.15,0,0,0,159.6,400.9c5.52.69,10.77-1.14,15.81-3.46.9-.42,1.93-1.12,1.79-2.1-1-.57-2.31.38-2.55,1.51a6.08,6.08,0,0,0,.63,3.34c1.57,4.16,2.51,8.55,4.1,12.7s4,8.2,7.71,10.63a8.64,8.64,0,0,1,1.95,2,1.41,1.41,0,0,1,.39.95c-.07.67-1,.88-1.64.71-1.26-.32-2.26-1.32-3.49-1.73a.64.64,0,0,0-.47,0,.59.59,0,0,0-.24.47c-.13,1.12.65,2.12,1.34,3s1.37,2,1,3.09c-2.15-.21-3.66-3.06-5.77-2.56.44,2.51,3.18,4.45,2.76,7a4.28,4.28,0,0,1-3.69-.32,7.44,7.44,0,0,0-3.64-1c.09,2.6,2.53,4.85,2.08,7.4a.9.9,0,0,1-.25.57,1.15,1.15,0,0,1-1.14,0,51.64,51.64,0,0,1-5.83-2.5l.63,8.28a1.42,1.42,0,0,1-.08.71.93.93,0,0,1-1.17.33,2.93,2.93,0,0,1-1-.84,26.71,26.71,0,0,0-3.58-3.31,1.54,1.54,0,0,0-2.16.49,4.19,4.19,0,0,0-.45,2.53c.05,1.45.1,2.91.16,4.36a1.88,1.88,0,0,1-.16,1,1.2,1.2,0,0,1-1.31.43,3,3,0,0,1-1.22-.79,12.64,12.64,0,0,1-2.66-3.66c-.4-.84-.92-1.87-1.84-1.86s-1.42,1-1.62,1.89c-.46,2-.4,4.1-1.41,5.85a1,1,0,0,1-.78.61,1,1,0,0,1-.56-.28c-2.54-2.2-1.24-6.88-3.72-9.15-.46,1.44-.91,2.87-1.36,4.3-.13.41-.47.91-.85.72a.71.71,0,0,1-.29-.39c-1.07-2.63-.48-5.61-.79-8.43,0-.4-.28-.93-.67-.81a.64.64,0,0,0-.33.26l-1.35,1.64c-.14.18-.32.37-.54.35s-.43-.33-.5-.6c-.49-2,.46-4.44-1-5.92a3.21,3.21,0,0,0-2.56-.86,9.56,9.56,0,0,0-2.7.72c-.54-.18-1.3-.21-1.63-.68a2.19,2.19,0,0,1,.1-2.22,11.38,11.38,0,0,0,1.09-2.07,1.62,1.62,0,0,0-.76-2c-.25-.09-.52-.08-.76-.19-.48-.22-.64-.81-.89-1.27-.91-1.7-3.15-2.05-5.08-2.13-2.23-.09-4.47-.09-6.71,0-2.39.11-4.9.38-6.9,1.7a10.11,10.11,0,0,0-3.62,4.85,37.89,37.89,0,0,0-1.52,5.95,110.68,110.68,0,0,1-3,11.48,6.1,6.1,0,0,0-.44,2.59,6,6,0,0,0,1.36,2.68c1.78,2.39,3.69,4.88,6.42,6.06a5.31,5.31,0,0,0,4.2.22,7.37,7.37,0,0,0,2.92-3c1.5-2.31,2.9-4.69,4.18-7.13a9.42,9.42,0,0,0,1.12-2.87,3.49,3.49,0,0,0-.73-2.9,10.28,10.28,0,0,0,4.41-.74,3.14,3.14,0,0,0-.59-6.12,10.19,10.19,0,0,0-3.89,0,11.12,11.12,0,0,0-4.47,1.26c3.08,1.72,7.3-1.37,10.32.45.6.36,1.17.92,1.88.89a1.64,1.64,0,0,0,1.36-1.3,4.63,4.63,0,0,0-.1-2,4.77,4.77,0,0,0-1.16-2.61,4.62,4.62,0,0,0-2.79-.92,28.87,28.87,0,0,0-6.57.19c-.69.09-1.56.44-1.49,1.13a95.42,95.42,0,0,0,9.55-1c1-.16,2.2-.45,2.62-1.4s-.27-2.2-1.17-2.87c-2.07-1.53-4.89-1.49-7.44-1.12a37.26,37.26,0,0,0-6.92,1.72,13.64,13.64,0,0,0-5.75,3.42,15.11,15.11,0,0,0-2.41,4.13q-1.55,3.56-2.76,7.23c-.87,2.65-2,5.72-4.59,6.6a15.63,15.63,0,0,1-2.74.42,10.28,10.28,0,0,0-5.66,2.7,5.58,5.58,0,0,0-1.84,3.16c-.31,2.33,1.52,4.36,3.35,5.83,6.32,5.07,14.68,7.93,22.65,6.5,3.64-.65,7.26-2.29,9.46-5.26s2.58-7.44.22-10.29a3.12,3.12,0,0,0-2.92-1.32c0-.4-.62-.1-.94.15a1.18,1.18,0,0,0-.32,1.1,5.86,5.86,0,0,0,1.77,2.75,16.58,16.58,0,0,1,3.64,10.45,49.1,49.1,0,0,1-1.4,11.17c-.32,1.61-.65,3.21-1,4.81a11.91,11.91,0,0,1-.73,2.58,9.71,9.71,0,0,1-3.43,3.69c-5.79,4.05-13,5.51-20.11,5.71-4.82.14-10.14-.48-13.45-4a15.28,15.28,0,0,1-3-5.19,19.57,19.57,0,0,1-1.43-6.86,16.41,16.41,0,0,1,6.36-12.49A23.83,23.83,0,0,1,104,465c8.1-.53,16.87,2.59,21.57,9.22,1.54,2.18,2.53,4.71,4.1,6.88,2.15,3,5.51,5.69,5.26,9.35"/></g></g></svg>