<svg xmlns="http://www.w3.org/2000/svg" viewBox="0 0 611.11 374.49"><defs><style>.cls-1{fill:none;stroke:#000;stroke-linecap:round;stroke-linejoin:round;stroke-width:2px;}</style></defs><title>teamAsset 37</title><g id="Layer_2" data-name="Layer 2"><g id="Layer_1-2" data-name="Layer 1"><path class="cls-1" d="M253.6,126.22c-.73,2.51-3,4.19-5.25,5.59C237,139,223.59,144.51,217,156.16c-1.62,2.83-2.73,6.43-1.15,9.28a11.58,11.58,0,0,0,4,3.66c15.62,10.36,32.37,21.09,51.11,21.44,4.57.08,10.61-2.2,9.91-6.71-.28-1.76-1.6-3.15-2.87-4.4-4.17-4.05-8.87-8-14.58-9.09s-12.57,1.92-13.82,7.6A126.78,126.78,0,0,0,271,180.41c2.85.09,6.21-.18,7.74-2.6s.37-5.46-1.66-7.23-4.77-2.46-7.39-3.1c-4.93-1.19-10-2.35-15-2s-10.25,2.46-13.16,6.62c-3.75,5.36-2.89,12.72-.64,18.87,5.15,14.09,16.28,25.08,23.74,38.11.8,1.41,1.59,3,1.29,4.58-.5,2.71-3.68,3.88-6.38,4.41a78.48,78.48,0,0,1-22.32,1.14c-2.94-.27-6-.7-8.81,0-3.15.8-5.78,2.92-8.19,5.09a102.12,102.12,0,0,0-18.47,22.14c-4.49,2.37-1.75,7.36,1,11.64s7.53,6.68,12.1,8.89c15.31,7.41,30.67,14.84,46.8,20.27,11.39,3.83,24,6.62,35.28,2.56,6.39-2.28,12.63-8.87,10-15.13a11.61,11.61,0,0,0-1.3,11,12.9,12.9,0,0,0,7.93-9c1-4.43-.42-9.1.26-13.59,1.09-7.12,7.37-13.32,6.16-20.42a26.76,26.76,0,0,1-42.79-.57,221.59,221.59,0,0,1,42.91-2.19c.22-2.71-3.88-3.05-6.51-2.34a170.56,170.56,0,0,1-32,5.33,7.93,7.93,0,0,1-4.59-.64c-1.35-.81-2.07-2.83-1-4A93.9,93.9,0,0,0,304.69,250c3.07-1.45,6.3-3.1,9.67-2.66,1.49.2,3,.81,4.45.52a10.73,10.73,0,0,1,2.58-.6c2.88.15,2.6,4.52,1.38,7.14.54-7.19.26-15.5,1.75-22.5,1.61-7.62,7-14.18,8.77-22,2.2-9.91.43-22.46-8.79-26.69-2.21-1-5.2-3.42-3.36-5a4.73,4.73,0,1,0,4.2-8.48c-2.94-1.46-8-.63-8.34-3.9,3.42-4.07,11.15-2.77,13.05,2.19a16.61,16.61,0,0,0,4.86-10.64,16.75,16.75,0,0,0-8.43,1.15C318.91,161.14,311.26,167,311,175c-.11,4,1.7,7.82,3.47,11.44l11.68,23.89c1.25,2.56,2.52,5.5,1.45,8.13s-3.75,3.74-5.89,5.4a15.17,15.17,0,0,0-3.92,18.56c-2.2,2-5.57-.88-6.36-3.73s-.82-6.3-3.24-8c-1-.71-2.33-1-3.1-2-1.45-1.82.29-4.74,2.56-5.24s4.56.6,6.57,1.76a49.33,49.33,0,0,1-20.41,2,6.3,6.3,0,0,1-3.65-1.28c-3.05-2.81.85-7.37,2.77-11,3.31-6.34-.09-14-3.27-20.37s-6.1-14.41-2.07-20.32c3.43-5,11.24-7.26,11.87-13.32.35-3.37-2-6.57-4.92-8.21s-6.42-2-9.8-2.23a108.81,108.81,0,0,0-46.3,7.46l71.78,8.5c2,.24,4.91-.17,5-2.22,0-1.38-1.33-2.31-2.13-3.43-2.23-3.15.54-7.73,4.12-9.14s7.59-.85,11.43-1.17,8.14-2.07,9.15-5.79-1.88-7.44-3.27-11.14-1.3-7.68-1.7-11.57c-2.12-20.5-20.1-38.23-40.63-40-2.17-.19-4.27-.86-5.31,1s-1.21,4.16-1.63,6.29c-1.07,5.47-5.83,11.38-11.14,9.69-3.54-1.13-5.4-5.16-8.77-6.72-5.63-2.61-11.47,2.6-17,5.38-16,8-27.47,5.9-40.84-6.65-18.21-17.1-32.89-20-56.86-13.76-7.17,1.86-14.31,4.5-20,9.2-10.88,9-15.09,24-25.63,33.38-2.19,1.94-4.66,3.64-6.36,6s-2.48,5.75-.92,8.24c1.93,3.06,7.1,5.16,5.63,8.47s-6.69,1.08-9.76,2.89c-2.45,1.44-2.6,5.17-1,7.54s4.27,3.69,6.87,4.84c2.93,1.29,6.52,3.85,5.28,6.8-.88,2.1-3.7,2.53-5.94,2.11s-4.89-1.82-5.4-4.18,2.51-4.94,4.34-3.36l-.09,3.08c-1.78,1.28-4.21.48-6.34,0s-5-.22-5.63,1.88c-1,3.43,5,4.62,6.29,8,.83,2.18-.65,4.53-2.25,6.22-3.14,3.3-7,5.85-10,9.28s-5,8.26-3.46,12.53c1.5,4.08,5.84,6.57,7.45,10.61a9.27,9.27,0,0,1-3.9,11.1c.82,2.28,5,1.07,6.62-.77s2.52-4.41,4.74-5.35c3.08-1.3,8.43.1,8.6-3.23a3.86,3.86,0,0,0-1-2.45,15.63,15.63,0,0,0-12.05-5.87c.53,2.55,2.72,4.37,4.77,6,3,2.32,6,4.7,9.66,5.66s8,.15,10.18-2.93,1.51-7.26,0-10.67-3.71-6.52-4.66-10.12a15.21,15.21,0,0,1,21.76-17.39,8.35,8.35,0,0,1,2.7-7c1.5,4.7,6.13,7.87,10.93,9s9.83.6,14.74.05a23.32,23.32,0,0,0-12.19-6.22c-2.68-.46-5.51-.48-7.91-1.74s-4.12-4.43-2.68-6.73,4.64-2.21,7.16-1.47c5.11,1.5,9.47,4.79,14.24,7.14s10.61,3.7,15.3,1.19c2.23-1.19,4.12-3.63,3.52-6.09a7.24,7.24,0,0,0-1.78-2.93c-10.53-11.81-27.72-15-43.54-15a11.48,11.48,0,0,1-5.47-.9c-1.64-.88-2.79-3-2-4.66.73-1.48,2.57-2,4.19-2.25a86.13,86.13,0,0,1,17.12-1.21c4.26.12,8.61.59,12.43,2.48,4.08,2,7.22,5.52,10.25,8.93,4.35,4.88,8.74,9.83,11.66,15.66s4.27,12.77,2.2,19a30.07,30.07,0,0,1-5.56,9.25,74.4,74.4,0,0,1-39.09,24.75c-4,1-8.18,1.71-11.8,3.71-10,5.52-12.44,18.55-13.8,29.89-4.74-2.44-6.62-8.09-8.88-12.92s-6.57-9.9-11.84-9c-1.58.27-3.15,1.08-4.72.77-3.15-.64-5.27-5.48-8.19-4.15-2.19,4.45-4.36,9.86-1.83,14.12s8.08,4.91,12.89,5.54,10.47,2.36,11.73,7A61.25,61.25,0,0,0,83,244.65c-3.13-.82-7-1.18-9.11,1.27-1.82,2.08-1.4,5.47.35,7.61s4.5,3.21,7.21,3.73c7.49,1.44,15.15-.69,22.47-2.8-1.73,3.42-5.74,5-9.53,5.58s-7.71.28-11.4,1.3c-8.63,2.37-14.32,12.37-12,21,1.66,6.07,6.62,10.84,12.29,13.56s12,3.67,18.29,4.22A167.24,167.24,0,0,0,163.28,294c.24,8.15-9.33,13.37-11,21.34-2.75,12.9,16,23.67,12.15,36.28,1.1,3.82,0,5.78,1.14,9.6A62.34,62.34,0,0,0,175,328.1c0-15.08-5.45-30.78.06-44.81,2.26-5.76,6.24-10.75,8.19-16.62,6.29-18.88-9.53-41.72,1.24-58.45,2.31-3.6,5.65-6.42,8.35-9.73,13.22-16.19,9.12-39.9,4.31-60.25-2.86-12.1-7.2-26-18.83-30.4-4.72-1.78-10-1.65-14.77-3.12-13.34-4.07-20.3-20.92-15.48-34s19.18-21.28,33.12-21c16.87.4,32.44,11.38,49.29,10.36,20.63-1.26,39.42-20.28,59.2-14.32,7.25,2.19,13.21,7.54,20.43,9.82,10.21,3.22,21.24-.11,31.29-3.81,22-8.1,44-18.2,67.38-18.62s49.2,12.26,54.87,35c2.43,9.76,3.85,12.8-.1,22.06a19.08,19.08,0,0,1-5.5,7.68c-3.21,2.51-7.35,3.48-11.38,4a65.69,65.69,0,0,1-32.79-4.2C400.28,92.23,386.06,82,372.42,87.39c-3,1.21-5.72,3.14-8.78,4.25-10.19,3.71-21.33-2.43-29.35-9.74-8.51-7.76-16-18.66-14-30,1.78-10,10.43-17.35,19.2-22.54a113.7,113.7,0,0,1,61.22-15.69c3-.17-1.25,4.41-3.72,6.14-12.63,8.87-29.33,9.42-44.62,7.29s-30.34-6.6-45.78-6.58c-20.88,0-40.75,8.24-60.18,15.88-5.37,2.11-10.86,4.22-16.62,4.63-12.87.91-24.75-6.67-34.58-15S176.19,8,164.17,3.31,136.11.83,129.88,12.12c-10.29,5.54-9.09,12.09-16.76,20.9-14,16.08-40.3,17.11-58.55,6.08C48.08,35.17,42.34,30,35.43,26.86A36.71,36.71,0,0,0,1,29.49"/><path class="cls-1" d="M383.21,283.41c13,.8,24.71-1.67,37.45.75a102.65,102.65,0,0,0,22.47,1.74c4.36-.15,8.82-.6,12.76-2.49s7.29-5.45,7.9-9.77c.76-5.42-2.82-10.63-2.63-16.1.18-5.65,4.31-11.41,1.9-16.52a7.61,7.61,0,0,1-6.15,3.57l3.42-9.17a338.79,338.79,0,0,1-43.62-8.63c13.15-5.54,26.94,9.26,41.13,7.77a5.56,5.56,0,0,0,3.51-1.38c2.32-2.44-.28-6.4-3.08-8.27a29.9,29.9,0,0,0-17.8-5c1.52-3.17,6.11-2.88,9.47-1.84s7.55,2.15,10-.4c2.86-3,.35-7.92-2.19-11.22-.28,2.52,1,4.92,1.53,7.42s-.39,5.76-2.9,6.16c-1.73.27-3.28-1-4.89-1.64-3.39-1.44-7.26-.44-10.8.58L415,226.35a92,92,0,0,0,30.05-22.17c1-1.11,2.09-2.31,3.56-2.51,3.57-.49,6.16,5.16,9.58,4A26,26,0,0,0,449.87,190a12.73,12.73,0,0,0,2.32-8.86,22.11,22.11,0,0,0-16.09,3.44A19.36,19.36,0,0,0,453.42,182a18.34,18.34,0,0,0-17.56.38l4.4,4.66c-5.05-.31-10.37-.71-14.58-3.51s-6.68-8.89-3.85-13.09c1.72-2.54,4.81-3.71,7.72-4.71q8.42-2.91,16.9-5.62c2.6-.84,5.35-1.67,8-1.18,6.22,1.14,9.14,9.06,7.33,15.12s-6.8,10.55-11.55,14.72a69.59,69.59,0,0,0,17.6-11.8c1.57-1.45,3.15-3.1,3.57-5.2a8.57,8.57,0,0,0-1-5.25c-5.43-11.39-20.89-15.68-25.36-27.48-1.73-4.56-1.51-9.65-.51-14.42,1.42-6.81,5.46-14.17,12.34-15.18,8.36-1.22,14.7,7.52,17.23,15.58a63.73,63.73,0,0,1,0,37.86c-1,3.17-2,7.17.43,9.39,6.18-6.74,8.8-16.2,8.57-25.33s-3.08-18-6.72-26.4c-2.48-5.69-5.61-11.52-11-14.6s-12.69-.15-16.85,4.45a83.79,83.79,0,0,0-10,13.54,20.33,20.33,0,0,0-18.4,3.39,61.54,61.54,0,0,0-16.83-21.25c-3.74-3-9.27-5.58-13.06-2.62a30.54,30.54,0,0,0,3.85,16.74c2.64,4.7,6.47,10.82,2.73,14.7a9.59,9.59,0,0,1-4.92,2.29,55,55,0,0,1-37.83-5.05c-.8-2.66,3.31-3.75,6.06-3.39L399.94,134c-1.27-3.26-4.86-4.9-8.19-5.93-40.55-12.6-85.53,17.12-125.87,3.85-1.56,3.09,2.95,5.61,6.38,6,20.11,2.4,40.37-1.67,60.22-5.72l33.36-6.81c.68,12.63,2.36,25.72,9.2,36.35s20.16,18,32.27,14.41c11.3-3.39,18.29-15.27,19.79-27a48.75,48.75,0,0,0-16.77-42.76c-6.29-5.26-14.22-8.92-22.42-8.77s-16.52,4.62-20,12c-2,4.26-2.28,9.08-2.47,13.78-.38,9.51-.36,19.31,3.14,28.15,6.26,15.83,24.3,26,41.09,23.26,1.33,12.28-9.62,21.89-18.53,30.45a144.3,144.3,0,0,0-27.24,36c-5.85,10.94-10.07,24.95-3.05,35.17,2,2.93,4.87,5.41,5.8,8.83,1.18,4.31-1.05,8.75-3.33,12.59-6.06,10.19-12.56,17.72-14.45,29.41a40.15,40.15,0,0,0-.34,12.47c.82,5.43,3.21,10.54,3.94,16s-.76,11.83-5.61,14.41c-3.75,8.49-14.13-.94-17.33-9.65-4.21-11.46,4.36-24.52,15.62-29.25s24.09-3.14,36-.63,24,5.92,36.15,4.6c13.92-1.52,26.34-9.07,39.53-13.79s29.41-6.06,39.82,3.31c6.5,5.84,9.54,14.88,16.32,20.41,7.39,6,17.73,6.68,27.25,6.13,24.71-1.44,48.07-10.92,69.83-22.69"/></g></g></svg>