<svg xmlns="http://www.w3.org/2000/svg" viewBox="0 0 841.88 155.89"><defs><style>.cls-1{fill:none;stroke:#000;stroke-linecap:round;stroke-linejoin:round;}</style></defs><title>top_flowerAsset 1</title><g id="Layer_2" data-name="Layer 2"><g id="Layer_1-2" data-name="Layer 1"><path class="cls-1" d="M.5,76c15.75,5.94,20.37,25.65,31.21,38.52,15.6,18.5,43.85,21.33,67,14.36s43-21.75,63.82-34.14,44.53-22.35,68.51-19.12c.36.35,1.68.09,2,.44,5.92-2.36,12.73-.22,18.15,3.15s10,7.91,15.59,11c20.76,11.65,47.86,1.29,69.92,10.22,11.62,4.7,6.94,14.45,11.33,21.83a6.72,6.72,0,0,0,12.18-1.44c5.09-15.75,13.67-30.18,22.21-44.27a2.77,2.77,0,0,0,.57-1.74,2.68,2.68,0,0,0-1.18-1.56,68.52,68.52,0,0,0-41.47-14.58c-4.85,0-9.9.5-14.07,3-3.71,2.23-6.59,7.12-4.37,10.84,1.32,2.2,3.95,3.2,6.41,3.94a91.62,91.62,0,0,0,51.94.13,6.71,6.71,0,0,0,3.41-1.82c1.29-1.53,1-3.8.61-5.75a67.21,67.21,0,0,0-30.21-42.65c-3.22-2-6.7-3.7-10.45-4.13s-7.84.62-10.33,3.47c-3.3,3.76-3,9.69-.55,14.08s6.47,7.58,10.42,10.65l31.43,24.45a8.41,8.41,0,0,0,3.78,2,7.84,7.84,0,0,0,4.74-1.41,69.21,69.21,0,0,0,27.74-29.37c5.29-10.72,7.7-23.71,1.61-34.48a21.67,21.67,0,0,0-13.3-10.46C387-2,378.13,7.26,375.11,17.39c-3.81,12.78-2,28.64,1.45,41.31,1.82,6.75,5.48,25.22,14.91,22.18,12.64-4.07,25.7-10,36.1-18.44C433.24,57.86,438.1,52,440.28,45c1.58-5,1.07-12.77-5.12-14.28-3.06-.75-6.29.18-9.16,1.49-13.2,6.06-24.54,14.65-32.36,27.36A22.39,22.39,0,0,0,390.13,70c-.55,10.25,6.93,13.7,14,15.5,12.83,3.28,26,3.77,39.17,4.85a8,8,0,0,0,6.14-1.86c6-5.54-1.84-15.28-6.76-18.32a33.72,33.72,0,0,0-22.3-4.21c-18.33,2.95-34.74,17-43.56,32.84a78,78,0,0,0-8.52,23c-1.06,5.58-2.83,14.92.44,20.05a3.57,3.57,0,0,0,4,1.69,5,5,0,0,0,2.14-2c4.59-6.36,8.31-13.36,13.51-19.22,9.73-10.95,28.8-20.21,43.75-15.92-2.14,16.68-20.68,48.38-41,44.91a7.49,7.49,0,0,1-4.8-2.45,3.8,3.8,0,0,1,2-6c11.56-3.15,25.45.67,36.95-.47,22.18-2.21,41.41-17.41,53.27-35.36,3.36-5.1,7.82-9.25,12.09-13.62,6.4-6.55,17.42-9.56,23.53-9.34,21.51.8,32.4,11.69,44.47,32.55,9.87,17,26.14,31.38,45,36.91,19.49,5.71,40.73-2.35,56.71-14.89A110,110,0,0,0,688.85,105C696.53,91,701,75.42,707.64,60.82s15.91-28.81,30-36.44C775.32,4,799,19.23,841.38,13q-3,7.24-5.92,14.5"/></g></g></svg>