<svg xmlns="http://www.w3.org/2000/svg" viewBox="0 0 102 102"><defs><style>.cls-1,.cls-2{fill:none;}.cls-1{stroke:#000;stroke-linecap:round;stroke-linejoin:round;stroke-width:1.5px;}</style></defs><title>videosAsset 33</title><g id="Layer_2" data-name="Layer 2"><g id="Layer_1-2" data-name="Layer 1"><path class="cls-1" d="M6.32,64.5c4.21,0,8.31-1.34,12.52-1.24,1.63,0,3.92.08,5.2,1.28,1.72,1.63.89,4.14,2.83,5.79,2.52,2.13,6.39.74,9.35.75l15.4,0,7.38,0c1.91,0,5.47.73,7-.54a3.12,3.12,0,0,0,.74-.8c.54-1,.07-3.57.06-4.72,0-2,0-3.94,0-5.91,0-3.74-.05-7.48-.08-11.21,0-.7,0-1.39,0-2.08L25.39,46l.09,8.82c.05,4.48-.56,6.93,4.88,6.9,8.46,0,16.92-.09,25.37-.16,4,0,8.25,1.4,8.32-3.57q.09-6.41.17-12.8c2,0,4.54-.66,4.8-2.65a3.09,3.09,0,0,0-2.12-3A9.28,9.28,0,0,0,63,39.18a230.4,230.4,0,0,1-31.64-.26,9.85,9.85,0,0,0-4.62.36c-1.45.6-2.61,2.18-2.18,3.68.55,1.89,3,2.36,5,2.24,1-.06,2.27-.46,2.3-1.47a2.13,2.13,0,0,0-.46-1.16l-2.7-4.16c10.12-6.63,23-7.18,34.17-11.88,1.29-.54,2.75-1.42,2.78-2.82a2.62,2.62,0,0,0-2.33-2.36,7.58,7.58,0,0,0-3.53.58q-17,5.68-33.9,11.94a8.08,8.08,0,0,0-3.27,1.84,2.78,2.78,0,0,0-.4,3.46c1.07,1.34,3.21.84,4.81,1.44,2.57,1,3,4.37,3,7.12,0,3.52-.07,7-.21,10.55-.1,2.27-1.32,7.33,1,8.89,1,.68,3.44.22,4.67.22h21c2,0,4.32.35,6.26,0A4.09,4.09,0,0,0,64,66.81a.59.59,0,0,0,.24-.2.68.68,0,0,0,0-.45c-.61-4.24,27.26-2.24,30.73-2"/><rect class="cls-2" width="102" height="102"/></g></g></svg>